<?xml version="1.0" encoding="UTF-8"?><svg id="Layer_2" xmlns="http://www.w3.org/2000/svg" xmlns:xlink="http://www.w3.org/1999/xlink" viewBox="0 0 148 110.2"><defs><linearGradient id="linear-gradient" x1="131.24" y1="88.78" x2="124.74" y2="67.57" gradientTransform="translate(24.88 -30.48) rotate(15)" gradientUnits="userSpaceOnUse"><stop offset="0" stop-color="#c486c4"/><stop offset=".1" stop-color="#b98bc5"/><stop offset=".29" stop-color="#9d98ca"/><stop offset=".52" stop-color="#6faed1"/><stop offset=".8" stop-color="#30ccdb"/><stop offset="1" stop-color="#00e3e3"/></linearGradient><linearGradient id="New_Gradient_Swatch_2" x1="125.63" y1="69.79" x2="118.08" y2="41.33" gradientTransform="translate(18.66 -29.66) rotate(15)" gradientUnits="userSpaceOnUse"><stop offset="0" stop-color="#00e3e3"/><stop offset=".2" stop-color="#30ccdb"/><stop offset=".48" stop-color="#6faed1"/><stop offset=".71" stop-color="#9d98ca"/><stop offset=".9" stop-color="#b98bc5"/><stop offset="1" stop-color="#c486c4"/></linearGradient><linearGradient id="linear-gradient-2" x1="109.76" y1="84.03" x2="105.09" y2="66.69" gradientTransform="matrix(1, 0, 0, 1, 0, 0)" xlink:href="#linear-gradient"/><linearGradient id="New_Gradient_Swatch_2-2" x1="106.01" y1="64.06" x2="118.78" y2="42.11" gradientTransform="translate(100.87 -69.14) rotate(59)" xlink:href="#New_Gradient_Swatch_2"/><linearGradient id="New_Gradient_Swatch_2-3" x1="63.35" y1="71.45" x2="73.25" y2="85.39" gradientTransform="translate(56.8 -24.81) rotate(35)" xlink:href="#New_Gradient_Swatch_2"/><linearGradient id="New_Gradient_Swatch_2-4" x1="62.01" y1="69.65" x2="53.77" y2="41.38" gradientTransform="translate(16.49 -13.11) rotate(15)" xlink:href="#New_Gradient_Swatch_2"/><linearGradient id="linear-gradient-3" x1="48.34" y1="88.39" x2="48.34" y2="70.8" gradientTransform="matrix(1, 0, 0, 1, 0, 0)" xlink:href="#linear-gradient"/><linearGradient id="New_Gradient_Swatch_2-5" x1="50.14" y1="68.23" x2="54.22" y2="44.02" gradientTransform="translate(98.54 -4.84) rotate(80)" xlink:href="#New_Gradient_Swatch_2"/><linearGradient id="linear-gradient-4" x1="44" y1="22.54" x2="128.99" y2="22.54" gradientUnits="userSpaceOnUse"><stop offset="0" stop-color="#6ee"/><stop offset="1" stop-color="#c486c4"/></linearGradient><linearGradient id="linear-gradient-5" x1="69" y1="22.5" x2="99" y2="22.5" gradientUnits="userSpaceOnUse"><stop offset="0" stop-color="#00e3e3"/><stop offset=".2" stop-color="#30ccdb"/><stop offset=".48" stop-color="#6faed1"/><stop offset=".71" stop-color="#9d98ca"/><stop offset=".9" stop-color="#b98bc5"/><stop offset="1" stop-color="#c486c4"/></linearGradient><linearGradient id="linear-gradient-6" x1="18" y1="43" x2="18" y2="28" gradientUnits="userSpaceOnUse"><stop offset="0" stop-color="#33e9e9"/><stop offset="1" stop-color="#c486c4"/></linearGradient></defs><g id="icons"><g id="set"><g id="at_at"><g id="Layer_46_copy_4"><ellipse cx="131.68" cy="92.26" rx="11.54" ry="7.49" transform="translate(-15.76 28.12) rotate(-11.51)" fill="none" stroke="#333" stroke-linejoin="round" stroke-width="4"/><rect x="121" y="102" width="25" height="6" fill="#00e3e3" stroke="#333" stroke-linejoin="round" stroke-width="4"/><rect x="124" y="96" width="19" height="6" fill="#b567b5" stroke="#333" stroke-linejoin="round" stroke-width="4"/><path d="M121.7,68.74h13v14.5c0,3.59-2.91,6.5-6.5,6.5h0c-3.59,0-6.5-2.91-6.5-6.5v-14.5h0Z" transform="translate(-16.14 35.88) rotate(-15)" fill="url(#linear-gradient)" stroke="#333" stroke-linejoin="round" stroke-width="4"/><rect x="115.48" y="42.54" width="13" height="27" transform="translate(-10.35 33.48) rotate(-15)" fill="url(#New_Gradient_Swatch_2)" stroke="#333" stroke-linejoin="round" stroke-width="4"/><circle cx="118.49" cy="43" r="6.5" fill="none" stroke="#333" stroke-linejoin="round" stroke-width="4"/><circle cx="125.34" cy="68.6" r="6.5" fill="#00e3e3" stroke="#333" stroke-linejoin="round" stroke-width="4"/></g><g id="Layer_46_copy"><ellipse cx="111.18" cy="89.38" rx="12" ry="7.5" transform="translate(-19.34 31.82) rotate(-15)" fill="none" stroke="#333" stroke-linejoin="round" stroke-width="4"/><rect x="101.79" y="99.01" width="25" height="6" transform="translate(-22.51 33.06) rotate(-15)" fill="#00e3e3" stroke="#333" stroke-linejoin="round" stroke-width="4"/><rect x="103.24" y="93.22" width="19" height="6" transform="translate(-21.06 32.46) rotate(-15)" fill="#b567b5" stroke="#333" stroke-linejoin="round" stroke-width="4"/><g><path d="M108.72,84.73c-2.03,0-3.82-1.37-4.34-3.34l-3.24-12.07,8.69-2.33,3.24,12.07c.64,2.4-.79,4.87-3.18,5.51-.38,.1-.78,.15-1.17,.15Z" fill="url(#linear-gradient-2)"/><path d="M108.42,69.43l2.72,10.14c.36,1.33-.44,2.71-1.77,3.06-.21,.06-.43,.09-.65,.09-1.13,0-2.12-.76-2.41-1.85l-2.72-10.14,4.83-1.29m2.83-4.9l-12.56,3.36,3.75,14.01c.78,2.9,3.4,4.82,6.27,4.82,.56,0,1.12-.07,1.69-.22h0c3.47-.93,5.53-4.49,4.6-7.96l-3.75-14.01h0Z" fill="#6ee"/><path d="M98.69,67.9l12.56-3.36,3.75,14.01c.93,3.47-1.13,7.03-4.6,7.96h0c-3.47,.93-7.03-1.13-7.96-4.6l-3.75-14.01Z" fill="none" stroke="#333" stroke-linejoin="round" stroke-width="4"/></g><g><rect x="100.03" y="50.07" width="23" height="9" transform="translate(7.31 122.07) rotate(-59)" fill="url(#New_Gradient_Swatch_2-2)"/><path d="M114.28,45.14l4.29,2.58-9.79,16.29-4.29-2.58,9.79-16.29m-1.37-5.49l-13.91,23.14,11.14,6.7,13.91-23.14-11.14-6.7h0Z" fill="#6ee"/><rect x="98.03" y="48.07" width="27" height="13" transform="translate(7.31 122.07) rotate(-59)" fill="none" stroke="#333" stroke-linejoin="round" stroke-width="4"/></g><circle cx="118.49" cy="43" r="6.5" fill="#b567b5" stroke="#333" stroke-linejoin="round" stroke-width="4"/><circle cx="104.84" cy="65.71" r="6.5" fill="#b567b5" stroke="#333" stroke-linejoin="round" stroke-width="4"/></g><g id="Layer_46_copy_2"><ellipse cx="75.47" cy="88.71" rx="12" ry="7.5" transform="translate(-37.23 59.33) rotate(-35)" fill="none" stroke="#333" stroke-linejoin="round" stroke-width="4"/><rect x="69.88" y="95.57" width="25" height="6" transform="translate(-41.64 65.08) rotate(-35)" fill="#00e3e3" stroke="#333" stroke-linejoin="round" stroke-width="4"/><rect x="69.44" y="90.66" width="19" height="6" transform="translate(-39.44 62.21) rotate(-35)" fill="#b567b5" stroke="#333" stroke-linejoin="round" stroke-width="4"/><path d="M61.24,67.17h13v14.5c0,3.59-2.91,6.5-6.5,6.5h0c-3.59,0-6.5-2.91-6.5-6.5v-14.5h0Z" transform="translate(-32.3 52.9) rotate(-35)" fill="url(#New_Gradient_Swatch_2-3)" stroke="#333" stroke-linejoin="round" stroke-width="4"/><rect x="51.55" y="42.58" width="13" height="27" transform="translate(-12.54 16.94) rotate(-15)" fill="url(#New_Gradient_Swatch_2-4)" stroke="#333" stroke-linejoin="round" stroke-width="4"/><circle cx="54.56" cy="43.04" r="6.5" fill="none" stroke="#333" stroke-linejoin="round" stroke-width="4"/><circle cx="61.42" cy="68.64" r="6.5" fill="#00e3e3" stroke="#333" stroke-linejoin="round" stroke-width="4"/></g><g id="Layer_46_copy_3"><ellipse cx="45.64" cy="93.23" rx="7.49" ry="11.54" transform="translate(-52.15 128.01) rotate(-83.49)" fill="none" stroke="#333" stroke-linejoin="round" stroke-width="4"/><rect x="32" y="102" width="25" height="6" fill="#00e3e3" stroke="#333" stroke-linejoin="round" stroke-width="4"/><rect x="35" y="96" width="19" height="6" fill="#b567b5" stroke="#333" stroke-linejoin="round" stroke-width="4"/><g><path d="M47.3,88.39c-.26,0-.53-.02-.79-.07-1.18-.21-2.22-.87-2.91-1.85-.69-.99-.95-2.18-.75-3.36l2.17-12.31,8.86,1.56-2.17,12.31c-.38,2.16-2.24,3.72-4.42,3.72Z" fill="url(#linear-gradient-3)"/><path d="M46.65,73.12l4.92,.87-1.82,10.34c-.21,1.2-1.24,2.07-2.45,2.07-.15,0-.29-.01-.44-.04-1.36-.24-2.27-1.54-2.03-2.9l1.82-10.34m-3.24-4.63l-2.52,14.28c-.62,3.54,1.74,6.91,5.27,7.53,.38,.07,.76,.1,1.14,.1,3.09,0,5.84-2.22,6.39-5.37l2.52-14.28-12.8-2.26h0Z" fill="#6ee"/><path d="M43.41,68.48l12.8,2.26-2.52,14.28c-.62,3.54-3.99,5.9-7.53,5.27h0c-3.54-.62-5.9-3.99-5.27-7.53l2.52-14.28Z" fill="none" stroke="#333" stroke-linejoin="round" stroke-width="4"/></g><g><rect x="40.66" y="51.79" width="23" height="9" transform="translate(-12.34 97.88) rotate(-80)" fill="url(#New_Gradient_Swatch_2-5)"/><path d="M51.34,46.51l4.92,.87-3.3,18.71-4.92-.87,3.3-18.71m-3.24-4.63l-4.69,26.59,12.8,2.26,4.69-26.59-12.8-2.26h0Z" fill="#6ee"/><rect x="38.66" y="49.79" width="27" height="13" transform="translate(-12.34 97.88) rotate(-80)" fill="none" stroke="#333" stroke-linejoin="round" stroke-width="4"/></g><circle cx="54.5" cy="43" r="6.5" fill="#b567b5" stroke="#333" stroke-linejoin="round" stroke-width="4"/><circle cx="49.9" cy="69.1" r="6.5" fill="#b567b5" stroke="#333" stroke-linejoin="round" stroke-width="4"/></g><rect x="34" y="31" width="8" height="9" fill="#00e3e3" stroke="#333" stroke-linejoin="round" stroke-width="4"/><g><polygon points="44 41 44 15.43 77.12 4.07 128.99 15.6 128.99 41 44 41" fill="url(#linear-gradient-4)"/><path d="M77.23,6.15l49.75,11.06v21.79H46V16.86l31.23-10.71m-.23-4.15L42,14v29h88.99V14L77,2h0Z" fill="#d3a4d3"/><polygon points="42 43 42 14 77 2 130.99 14 130.99 43 42 43" fill="none" stroke="#333" stroke-linecap="round" stroke-linejoin="round" stroke-width="4"/></g><g><rect x="69" y="4" width="30" height="37" fill="url(#linear-gradient-5)"/><path d="M97,6V39h-26V6h26m4-4h-34V43h34V2h0Z" fill="#b2f7f7"/><rect x="67" y="2" width="34" height="41" fill="none" stroke="#333" stroke-miterlimit="10" stroke-width="4"/></g><path d="M34,43H2c0-8,7.42-15,15-15h17v15Z" fill="url(#linear-gradient-6)" stroke="#333" stroke-linecap="round" stroke-linejoin="round" stroke-width="4"/><path d="M34,43H15.33c0-4,4.56-8,8.6-8h10.07v8Z" fill="none" stroke="#333" stroke-linejoin="round" stroke-width="4"/><polygon points="101 43 98 53 77 53 77 49 67 48 67 43 101 43" fill="#00e3e3" stroke="#333" stroke-linejoin="round" stroke-width="4"/><circle cx="17" cy="32.5" r="4.5" fill="#b567b5" stroke="#333" stroke-linejoin="round" stroke-width="4"/></g></g></g></svg>