<?xml version="1.0" encoding="UTF-8"?><svg id="Layer_2" xmlns="http://www.w3.org/2000/svg" xmlns:xlink="http://www.w3.org/1999/xlink" viewBox="0 0 96 124"><defs><linearGradient id="New_Gradient_Swatch_2" x1="30" y1="113.5" x2="66" y2="113.5" gradientUnits="userSpaceOnUse"><stop offset="0" stop-color="#00e3e3"/><stop offset=".2" stop-color="#30ccdb"/><stop offset=".48" stop-color="#6faed1"/><stop offset=".71" stop-color="#9d98ca"/><stop offset=".9" stop-color="#b98bc5"/><stop offset="1" stop-color="#c486c4"/></linearGradient><linearGradient id="linear-gradient" x1="2" y1="65.5" x2="94" y2="65.5" gradientUnits="userSpaceOnUse"><stop offset="0" stop-color="#c486c4"/><stop offset=".1" stop-color="#b98bc5"/><stop offset=".29" stop-color="#9d98ca"/><stop offset=".52" stop-color="#6faed1"/><stop offset=".8" stop-color="#30ccdb"/><stop offset="1" stop-color="#00e3e3"/></linearGradient><linearGradient id="New_Gradient_Swatch_2-2" x1="8" y1="56.98" x2="88" y2="56.98" xlink:href="#New_Gradient_Swatch_2"/><linearGradient id="linear-gradient-2" x1="16" y1="61.8" x2="80" y2="61.8" gradientUnits="userSpaceOnUse"><stop offset="0" stop-color="#6ee"/><stop offset="1" stop-color="#c486c4"/></linearGradient><linearGradient id="linear-gradient-3" x1="50" y1="54.5" x2="73" y2="54.5" gradientUnits="userSpaceOnUse"><stop offset="0" stop-color="#00e3e3"/><stop offset=".24" stop-color="#3fd0de"/><stop offset=".5" stop-color="#7ebdd9"/><stop offset=".73" stop-color="#acafd5"/><stop offset=".9" stop-color="#c8a7d3"/><stop offset="1" stop-color="#d3a4d3"/></linearGradient><linearGradient id="linear-gradient-4" x1="23" y1="54.5" x2="46" y2="54.5" gradientUnits="userSpaceOnUse"><stop offset="0" stop-color="#d3a4d3"/><stop offset=".1" stop-color="#c8a7d3"/><stop offset=".27" stop-color="#acafd5"/><stop offset=".5" stop-color="#7ebdd9"/><stop offset=".76" stop-color="#3fd0de"/><stop offset="1" stop-color="#00e3e3"/></linearGradient></defs><g id="icons"><g id="set"><g id="C-3PO"><polyline points="30 105 30 122 66 122 66 105" fill="url(#New_Gradient_Swatch_2)" stroke="#333" stroke-linecap="round" stroke-linejoin="round" stroke-width="4"/><path d="M94,57.78c0,6.67-.94,13.22-2.68,19.22H4.68c-1.74-6-2.68-12.54-2.68-19.22,0-1.29,.04-2.78,.11-3.78H93.89c.08,1,.11,2.49,.11,3.78Z" fill="url(#linear-gradient)" stroke="#333" stroke-linejoin="round" stroke-width="4"/><path d="M27.98,17.18c4.42-2.72,8.44-6.14,11.29-10.5,1.62-2.48,4.39-4.68,8.73-4.68,4.33,0,7.11,2.2,8.73,4.68,2.84,4.35,6.87,7.78,11.29,10.5,12.38,7.62,19.98,22.53,19.98,40.82,0,28.78-18.55,53.96-40,53.96S8,86.78,8,58c0-18.29,7.6-33.2,19.98-40.82Z" fill="url(#New_Gradient_Swatch_2-2)" stroke="#333" stroke-linejoin="round" stroke-width="4"/><g><path d="M48,104.17c-17.05,0-32-21.58-32-46.17,0-22.35,13.46-38.57,32-38.57s32,16.22,32,38.57c0,24.6-14.95,46.17-32,46.17Z" fill="url(#linear-gradient-2)"/><path d="M48,21.43c8.21,0,15.71,3.45,21.12,9.71,5.81,6.72,8.88,16.01,8.88,26.86s-3.34,22.48-9.16,31.02c-5.78,8.48-13.18,13.15-20.84,13.15s-15.06-4.67-20.84-13.15c-5.82-8.55-9.16-19.85-9.16-31.02s3.07-20.14,8.88-26.86c5.41-6.26,12.91-9.71,21.12-9.71m0-4c-19.05,0-34,16.06-34,40.57s14.95,48.17,34,48.17,34-23.67,34-48.17-14.95-40.57-34-40.57h0Z" fill="#b2f7f7"/><path d="M82,58c0,24.51-14.95,48.17-34,48.17S14,82.51,14,58,28.95,17.43,48,17.43s34,16.06,34,40.57Z" fill="none" stroke="#333" stroke-linecap="round" stroke-linejoin="round" stroke-width="4"/></g><path d="M23,54.09c0,25.31,12.38,50.16,25,50.16s25-24.85,25-50.16" fill="none" stroke="#d3a4d3" stroke-linecap="round" stroke-linejoin="round" stroke-width="4"/><line x1="48" y1="55" x2="48" y2="106" fill="none" stroke="#333" stroke-linecap="round" stroke-linejoin="round" stroke-width="4"/><g><ellipse cx="61.5" cy="54.5" rx="11.5" ry="12.5" fill="url(#linear-gradient-3)"/><path d="M61.5,44c5.24,0,9.5,4.71,9.5,10.5s-4.26,10.5-9.5,10.5-9.5-4.71-9.5-10.5,4.26-10.5,9.5-10.5m0-4c-7.46,0-13.5,6.49-13.5,14.5s6.04,14.5,13.5,14.5,13.5-6.49,13.5-14.5-6.04-14.5-13.5-14.5h0Z" fill="#d3a4d3"/><ellipse cx="61.5" cy="54.5" rx="13.5" ry="14.5" fill="none" stroke="#333" stroke-linecap="round" stroke-linejoin="round" stroke-width="4"/></g><g><ellipse cx="34.5" cy="54.5" rx="11.5" ry="12.5" fill="url(#linear-gradient-4)"/><path d="M34.5,44c5.24,0,9.5,4.71,9.5,10.5s-4.26,10.5-9.5,10.5-9.5-4.71-9.5-10.5,4.26-10.5,9.5-10.5m0-4c-7.46,0-13.5,6.49-13.5,14.5s6.04,14.5,13.5,14.5,13.5-6.49,13.5-14.5-6.04-14.5-13.5-14.5h0Z" fill="#d3a4d3"/><ellipse cx="34.5" cy="54.5" rx="13.5" ry="14.5" fill="none" stroke="#333" stroke-linecap="round" stroke-linejoin="round" stroke-width="4"/></g><circle cx="61.5" cy="54.5" r="4.5" fill="#fff" stroke="#333" stroke-linecap="round" stroke-linejoin="round" stroke-width="4"/><line x1="53.79" y1="77.36" x2="48" y2="71.57" fill="none" stroke="#333" stroke-linecap="round" stroke-linejoin="round" stroke-width="4"/><path d="M21,54.09c0,24.47,12.09,52.09,27,52.09,14.91,0,27-27.62,27-52.09" fill="none" stroke="#333" stroke-linecap="round" stroke-linejoin="round" stroke-width="4"/><circle cx="34.5" cy="54.5" r="4.5" fill="#fff" stroke="#333" stroke-linecap="round" stroke-linejoin="round" stroke-width="4"/><line x1="42.21" y1="77.36" x2="48" y2="71.57" fill="none" stroke="#333" stroke-linecap="round" stroke-linejoin="round" stroke-width="4"/><ellipse cx="48" cy="12.61" rx="4.79" ry="4.82" fill="#b2f7f7" stroke="#333" stroke-linecap="round" stroke-linejoin="round" stroke-width="4"/><line x1="43" y1="88" x2="53" y2="88" fill="none" stroke="#333" stroke-linecap="round" stroke-linejoin="round" stroke-width="4"/><line x1="23" y1="122" x2="73" y2="122" fill="none" stroke="#333" stroke-linecap="round" stroke-linejoin="round" stroke-width="4"/></g></g></g></svg>