<?xml version="1.0" encoding="UTF-8"?><svg id="Layer_2" xmlns="http://www.w3.org/2000/svg" xmlns:xlink="http://www.w3.org/1999/xlink" viewBox="0 0 109.92 119"><defs><linearGradient id="linear-gradient" x1="15.93" y1="35.36" x2="93.93" y2="35.36" gradientUnits="userSpaceOnUse"><stop offset="0" stop-color="#c486c4"/><stop offset=".1" stop-color="#b98bc5"/><stop offset=".29" stop-color="#9d98ca"/><stop offset=".52" stop-color="#6faed1"/><stop offset=".8" stop-color="#30ccdb"/><stop offset="1" stop-color="#00e3e3"/></linearGradient><linearGradient id="linear-gradient-2" x1="2" y1="68.5" x2="107.92" y2="68.5" gradientUnits="userSpaceOnUse"><stop offset="0" stop-color="#00e3e3"/><stop offset="1" stop-color="#c486c4"/></linearGradient><linearGradient id="linear-gradient-3" x1="11.3" y1="76" x2="98.62" y2="76" gradientUnits="userSpaceOnUse"><stop offset="0" stop-color="#c486c4"/><stop offset="1" stop-color="#6ee"/></linearGradient><linearGradient id="linear-gradient-4" x1="26.93" y1="92" x2="82.93" y2="92" gradientUnits="userSpaceOnUse"><stop offset="0" stop-color="#00e3e3"/><stop offset=".22" stop-color="#37cddc"/><stop offset=".49" stop-color="#76b5d5"/><stop offset=".72" stop-color="#a4a3cf"/><stop offset=".9" stop-color="#c099cc"/><stop offset="1" stop-color="#cb95cb"/></linearGradient><linearGradient id="linear-gradient-5" x1="59.98" y1="59.49" x2="82.98" y2="59.49" gradientUnits="userSpaceOnUse"><stop offset="0" stop-color="#4cebeb"/><stop offset=".3" stop-color="#7ed0e1"/><stop offset=".62" stop-color="#acb8d9"/><stop offset=".86" stop-color="#c8a9d4"/><stop offset="1" stop-color="#d3a4d3"/></linearGradient><linearGradient id="linear-gradient-6" x1="26.87" y1="59.49" x2="49.87" y2="59.49" gradientUnits="userSpaceOnUse"><stop offset="0" stop-color="#d3a4d3"/><stop offset=".14" stop-color="#c8a9d4"/><stop offset=".38" stop-color="#acb8d9"/><stop offset=".7" stop-color="#7ed0e1"/><stop offset="1" stop-color="#4cebeb"/></linearGradient><linearGradient id="linear-gradient-7" x1="27.58" y1="87.44" x2="82.29" y2="87.44" gradientUnits="userSpaceOnUse"><stop offset="0" stop-color="#6ee"/><stop offset="1" stop-color="#cb95cb"/></linearGradient></defs><g id="icons"><g id="set"><g id="Darth_Vader"><g><path d="M15.93,62.86v-22C15.93,22.66,30.74,7.86,48.93,7.86h12c18.2,0,33,14.8,33,33v22H15.93Z" fill="url(#linear-gradient)"/><path d="M60.93,9.86c17.09,0,31,13.91,31,31v20H17.93v-20c0-17.09,13.91-31,31-31h12m0-4h-12C29.6,5.86,13.93,21.53,13.93,40.86v24H95.93v-24c0-19.33-15.67-35-35-35h0Z" fill="#d3a4d3"/><path d="M95.93,64.86H13.93v-24C13.93,21.53,29.6,5.86,48.93,5.86h12c19.33,0,35,15.67,35,35v24Z" fill="none" stroke="#333" stroke-miterlimit="10" stroke-width="4"/></g><path d="M44.02,25h21.87c14.06,0,26.24,9.77,29.29,23.49l11.87,36.9c3.95,13.27-6,26.61-19.85,26.61H22.72c-13.85,0-23.79-13.33-19.85-26.61L14.74,48.49c3.05-13.73,15.22-23.49,29.29-23.49Z" fill="url(#linear-gradient-2)" stroke="#333" stroke-linecap="round" stroke-linejoin="round" stroke-width="4"/><g><path d="M30.02,110c-6,0-11.49-2.77-15.05-7.59-3.56-4.83-4.59-10.89-2.82-16.62l10.52-31.12c.02-.07,.04-.13,.06-.2,1.66-7.34,8.08-12.46,15.61-12.46h33.24c7.53,0,13.95,5.12,15.61,12.46,.01,.07,.03,.13,.06,.2l10.54,31.17c1.75,5.69,.73,11.75-2.84,16.57-3.56,4.83-9.05,7.59-15.05,7.59H30.02Z" fill="url(#linear-gradient-3)"/><path d="M71.58,44c6.59,0,12.2,4.48,13.66,10.9,.03,.13,.07,.27,.11,.4l10.52,31.12c1.56,5.11,.64,10.5-2.53,14.8-3.18,4.31-8.08,6.78-13.44,6.78H30.02c-5.36,0-10.26-2.47-13.44-6.78-3.17-4.3-4.09-9.69-2.53-14.8l10.52-31.12c.04-.13,.08-.26,.11-.4,1.46-6.42,7.07-10.9,13.66-10.9h33.24m0-4H38.34c-8.41,0-15.7,5.82-17.56,14.02l-10.54,31.17c-4.11,13.32,5.84,26.81,19.78,26.81h49.88c13.94,0,23.89-13.49,19.78-26.81l-10.54-31.17c-1.86-8.2-9.15-14.02-17.56-14.02h0Z" fill="#b2f7f7"/><path d="M79.9,112H30.02c-13.94,0-23.89-13.49-19.78-26.81l10.54-31.17c1.86-8.2,9.15-14.02,17.56-14.02h33.24c8.41,0,15.7,5.82,17.56,14.02l10.54,31.17c4.11,13.32-5.84,26.81-19.78,26.81Z" fill="none" stroke="#333" stroke-linecap="round" stroke-linejoin="round" stroke-width="4"/></g><g><rect x="26.93" y="69" width="56" height="46" fill="url(#linear-gradient-4)"/><path d="M80.93,71v42H28.93v-42h52m4-4H24.93v50h60v-50h0Z" fill="#d3a4d3"/><rect x="24.93" y="67" width="60" height="50" fill="none" stroke="#333" stroke-linecap="round" stroke-linejoin="round" stroke-width="4"/></g><path d="M54.96,2h0c2.21,0,4,1.79,4,4V40h-8V6c0-2.21,1.79-4,4-4Z" fill="#00e3e3" stroke="#333" stroke-linejoin="round" stroke-width="4"/><g><path d="M59.98,69v-6c0-7.17,5.16-13.01,11.5-13.01h.1c6.27,0,11.39,5.1,11.4,11.38,0,.42-.02,4.94-.03,7.63h-22.97Z" fill="url(#linear-gradient-5)"/><path d="M71.59,51.99c5.17,0,9.39,4.21,9.4,9.38,0,.32-.01,3.13-.02,5.63h-18.98v-4c0-6.07,4.26-11.01,9.5-11.01h.1m0-4h-.1c-7.46,0-13.5,6.72-13.5,15.01v8h26.96s.04-9.04,.04-9.64c-.01-7.39-6.01-13.38-13.4-13.38h0Z" fill="#d3a4d3"/><path d="M84.94,71h-26.96v-8c0-8.29,6.04-15.01,13.5-15.01,.03,0,.07,0,.1,0,7.39,0,13.38,5.99,13.4,13.38,0,.6-.04,9.64-.04,9.64Z" fill="none" stroke="#333" stroke-miterlimit="10" stroke-width="4"/></g><g><path d="M26.91,69c-.01-2.7-.03-7.23-.03-7.65,.01-6.27,5.12-11.36,11.39-11.36h.11c6.34,0,11.5,5.84,11.5,13.01v6H26.91Z" fill="url(#linear-gradient-6)"/><path d="M38.37,51.99c5.24,0,9.5,4.94,9.5,11.01v4H28.9c-.01-2.5-.02-5.32-.02-5.64,.01-5.17,4.22-9.37,9.39-9.37h.11m0-4h-.11c-7.38,0-13.38,5.98-13.39,13.36,0,.59,.04,9.65,.04,9.65h26.96v-8c0-8.29-6.04-15.01-13.5-15.01h0Z" fill="#d3a4d3"/><path d="M24.92,71h26.96s0-5.87,0-8c0-8.29-6.04-15.01-13.5-15.01h-.11c-7.38,0-13.38,5.98-13.39,13.36,0,.59,.04,9.65,.04,9.65Z" fill="none" stroke="#333" stroke-miterlimit="10" stroke-width="4"/></g><g><polygon points="33.67 90.62 27.58 69 82.29 69 76.2 90.62 54.93 105.87 33.67 90.62" fill="url(#linear-gradient-7)"/><path d="M79.65,71l-5.19,18.4-19.53,14.01-19.53-14.01-5.19-18.4h49.43m5.28-4H24.93l7,24.83,23,16.5,23-16.5,7-24.83h0Z" fill="#a6f5f5"/><polygon points="54.93 108.33 31.93 91.83 24.93 67 84.93 67 77.93 91.83 54.93 108.33" fill="none" stroke="#333" stroke-linecap="round" stroke-linejoin="round" stroke-width="4"/></g><line x1="54.96" y1="68" x2="54.96" y2="92" fill="none" stroke="#333" stroke-linejoin="round" stroke-width="4"/><line x1="46.96" y1="79" x2="46.96" y2="92" fill="none" stroke="#333" stroke-linejoin="round" stroke-width="4"/><line x1="62.96" y1="79" x2="62.96" y2="92" fill="none" stroke="#333" stroke-linejoin="round" stroke-width="4"/><g><path d="M54.93,73.78l13.63,14.22h-27.25l13.63-14.22m0-5.78l-23,24h46l-23-24h0Z" fill="#d3a4d3"/><polygon points="54.93 68 31.93 92 77.93 92 54.93 68" fill="none" stroke="#333" stroke-linejoin="round" stroke-width="4"/></g><rect x="49.96" y="62" width="10" height="10" rx="4" ry="4" fill="#00e3e3" stroke="#333" stroke-linejoin="round" stroke-width="4"/><line x1="51.96" y1="48" x2="57.96" y2="48" fill="none" stroke="#333" stroke-linecap="round" stroke-linejoin="round" stroke-width="4"/></g></g></g></svg>