<?xml version="1.0" encoding="UTF-8"?><svg id="Layer_2" xmlns="http://www.w3.org/2000/svg" xmlns:xlink="http://www.w3.org/1999/xlink" viewBox="0 0 109.83 110"><defs><linearGradient id="linear-gradient" x1="54.92" y1="113.33" x2="54.92" y2="57.67" gradientUnits="userSpaceOnUse"><stop offset="0" stop-color="#00e3e3"/><stop offset=".2" stop-color="#30ccdb"/><stop offset=".48" stop-color="#6faed1"/><stop offset=".71" stop-color="#9d98ca"/><stop offset=".9" stop-color="#b98bc5"/><stop offset="1" stop-color="#c486c4"/></linearGradient><linearGradient id="linear-gradient-2" x1="54.92" y1="53" x2="54.92" y2="7.33" gradientUnits="userSpaceOnUse"><stop offset="0" stop-color="#c486c4"/><stop offset=".1" stop-color="#b98bc5"/><stop offset=".29" stop-color="#9d98ca"/><stop offset=".52" stop-color="#6faed1"/><stop offset=".8" stop-color="#30ccdb"/><stop offset="1" stop-color="#00e3e3"/></linearGradient><linearGradient id="linear-gradient-3" x1="100.32" y1="52" x2="100.32" y2="30.33" xlink:href="#linear-gradient-2"/><linearGradient id="linear-gradient-4" x1="31.33" y1="105.71" x2="31.33" y2="74" xlink:href="#linear-gradient"/><linearGradient id="linear-gradient-5" x1="17.25" y1="80" x2="17.25" y2="60" gradientUnits="userSpaceOnUse"><stop offset="0" stop-color="#6ee"/><stop offset="1" stop-color="#b567b5"/></linearGradient><linearGradient id="linear-gradient-6" x1="67.92" y1="44.01" x2="67.92" y2="14.01" xlink:href="#linear-gradient"/></defs><g id="icons"><g id="set"><g id="Death_Star"><g><path d="M107.83,58c-1.56,28-24.65,50-52.92,50S3.56,86,2,58H107.83Z" fill="url(#linear-gradient)"/><path d="M2,53C3.56,25,26.65,3,54.92,3s51.36,22,52.92,50H2Z" fill="url(#linear-gradient-2)"/><path d="M19.7,20.76c-1.03,1.78-1.98,3.64-2.85,5.58-.38,.83-.75,1.72-1.09,2.59-.17,.43-.33,.85-.5,1.3-.1,.28-.21,.56-.3,.84-.16,.42-.29,.81-.4,1.15-.17,.48-.31,.93-.44,1.35-.49,1.55-.94,3.2-1.34,4.91-.08,.32-.15,.65-.22,.97-.08,.37-.17,.75-.24,1.13-.13,.61-.23,1.2-.34,1.8-.11,.58-.21,1.2-.3,1.89-.09,.6-.33,1.23-.41,1.86-.07,.6-.35,1.21-.35,1.86h0s-4.52,.01-4.52,.01c.41-3,1.1-5.9,2.04-8.74,1.06-3.19,2.48-6.29,4.21-9.23,2.01-3.41,4.38-6.52,7.05-9.27M54.92,2C35.45,2,18.43,12.35,9.21,28c-1.85,3.14-3.39,6.49-4.56,10-1.48,4.44-2.39,9-2.65,14H14.96c.03-1,.08-1.53,.14-2.29,.03-.45,.06-.89,.11-1.33,.05-.6,.12-1.19,.19-1.78,.07-.59,.15-1.18,.24-1.76,.08-.59,.17-1.17,.28-1.75,.1-.58,.2-1.15,.32-1.72,.07-.36,.15-.73,.23-1.08,.06-.3,.13-.6,.2-.9,.37-1.57,.79-3.12,1.26-4.62,.13-.42,.26-.84,.41-1.25,.12-.37,.24-.73,.38-1.09,.09-.27,.19-.54,.29-.81,.15-.4,.3-.8,.46-1.2,.32-.82,.66-1.63,1.02-2.42C27.45,12.43,40.27,2,54.92,2h0Z" fill="#b2f7f7"/><path d="M54.92,6c17.6,0,33.4,8.98,42.26,24.03,.76,1.29,1.46,2.97,2.1,3.97h-6.47c-1.24,0-2.4,.57-3.16,1.55-.76,.98-1.02,2.25-.71,3.45,.75,2.91,1.29,6,1.62,9H34.13s.06-.86,.09-1.29c.04-.5,.08-1,.12-1.47l.06-.57c.04-.37,.07-.74,.12-1.15v-.12c.06-.38,.1-.77,.15-1.15,0-.02,0-.04,0-.06,.24-2.05,.56-4.11,.94-6.13,.14-.74,.28-1.45,.42-2.09,.08-.35,.16-.7,.23-1.03,.11-.48,.22-.97,.33-1.44,.04-.14,.08-.29,.11-.43,.18-.72,.35-1.39,.52-1.99,.34-1.21,.09-2.5-.66-3.5-.76-1-1.94-1.59-3.19-1.59h-6.31c6.8-11,17.07-18,27.84-18m0-4c-14.65,0-27.47,10-34.43,26h12.9c-.2,1-.39,1.44-.57,2.17-.02,.1-.05,.19-.08,.29-.13,.54-.26,1.09-.38,1.64-.07,.33-.14,.66-.22,.99-.16,.74-.31,1.5-.45,2.26-.39,2.06-.72,4.19-.98,6.38-.06,.45-.11,.91-.16,1.36-.07,.58-.12,1.16-.18,1.75-.05,.52-.09,1.04-.13,1.57-.14,1.83-.24,3.59-.29,5.59H94.86c-.21-5-.91-10-2.05-14h12.38c-1.17-4-2.71-6.86-4.56-10C91.41,12.35,74.39,2,54.92,2h0Z" fill="#b2f7f7"/><path d="M75.8,62c-.44,7-1.55,13.14-3.16,18.92-.7,2.49-1.56,5.08-2.46,7.08h-19.05c-.75-5-1.33-10.38-1.7-16.26-.2-3.07-.35-6.74-.43-9.74h26.8Zm4.07-4H44.93c.06,5,.23,9.57,.52,14,.48,7.58,1.28,14,2.31,20h25.06c1.38-3,2.6-6.36,3.62-10,1.98-7.1,3.21-15,3.44-24h0Z" fill="#b2f7f7"/><path d="M107.84,52h-12.98c-.21-4.87-.91-9.57-2.05-14h12.38c1.48,4.44,2.39,9.13,2.65,14Z" fill="url(#linear-gradient-3)"/><path d="M49.7,105.71c-11.82-1.26-23.27-6.73-31.31-15.1-1.98-2.05-3.79-4.61-5.42-6.61h19.83c.63,0,1.29-.33,1.67-.83,.39-.52,.52-1.21,.34-1.83-.2-.7-.39-1.44-.56-2.18-.17-.7-.88-4.14-1.05-5.11,0-.01,0-.05,0-.05h10.39c.49,7,1.25,13.09,2.21,18.36,1.25,6.81,2.65,10.88,3.91,13.35Z" fill="url(#linear-gradient-4)"/><path d="M41.82,76c.49,6,1.16,11.87,2.05,16.73,.83,4.51,1.7,7.92,2.63,10.51-10.11-1.81-19.72-6.79-26.66-14.01-1-1.03-1.96-2.22-2.87-3.22h15.83c1.27,0,2.49-.6,3.26-1.62,.77-1.01,1.02-2.35,.68-3.57-.21-.73-.39-1.44-.55-2.13-.09-.36-.33-1.68-.57-2.68h6.2Zm3.1-4h-13.95c-.06,0-.1,.05-.09,.1,.11,.77,.22,1.53,.36,2.28,.17,1.01,.89,4.48,1.07,5.23,.18,.77,.38,1.53,.59,2.28,.02,.06-.03,.11-.09,.11H9.48c-.04,.08-.04,.06-.08,.14,2.13,3.55,4.66,6.88,7.55,9.87,9.16,9.53,22.99,15.99,37.07,15.99h0c.1,0,.13-.14,.04-.18-2.47-1.08-4.66-6.93-6.29-15.81-1.03-5.59-2.05-12.37-2.53-19.92,0-.05-.31-.09-.31-.09h0Z" fill="#d3a4d3"/><path d="M103.68,62c-.46,3-1.3,5.87-2.28,8.7-.87,2.51-2.05,5.3-3.31,7.3h-2.89c.56-2,1.05-3.31,1.48-5,.91-3.55,1.55-7,1.91-11h5.09Zm4.23-4h-13.06c-.21,5-.91,9.57-2.05,14-.89,3.51-2.06,7-3.47,10h11.09c1.87-3,3.43-6.49,4.64-10,1.52-4.41,2.5-9.07,2.85-13.91v-.09h0Z" fill="#b2f7f7"/><path d="M10.47,80c-1.53-3-2.82-5.62-3.84-8.64-1.25-3.67-2.08-7.36-2.45-11.36H27.93c.07,4,.39,8.41,.94,12.28,.37,2.66,.86,5.72,1.45,7.72H10.47Z" fill="url(#linear-gradient-5)"/><path d="M25.95,62c.13,4,.45,7.2,.93,10.55,.26,1.86,.59,3.45,.96,5.45H11.66c-1.23-2-2.28-4.76-3.14-7.29-.96-2.82-1.66-5.71-2.09-8.71H25.95Zm3.97-4H2s.03,.08,.03,.12c.28,4.83,1.21,9.49,2.71,13.88,1.19,3.51,2.72,7,4.58,10h23.6c-.88-3-1.57-6.49-2.06-10-.63-4.43-.94-9.12-.94-13.99h0Z" fill="#b2f7f7"/><path d="M104.92,54.94c0,1.02-.03,2.06-.08,3.06H5c-.05-1-.08-2.05-.08-3.06s.03-1.94,.08-2.94H104.84c.05,1,.08,1.97,.08,2.94Z" fill="#00e3e3"/><circle cx="67.92" cy="29.01" r="15" fill="url(#linear-gradient-6)"/><path d="M67.92,16.01c7.17,0,13,5.83,13,13s-5.83,13-13,13-13-5.83-13-13,5.83-13,13-13h0Zm0-4c-9.39,0-17,7.61-17,17s7.61,17,17,17,17-7.61,17-17-7.61-17-17-17h0Z" fill="#d3a4d3"/><circle cx="67.92" cy="29.01" r="5" fill="#00e3e3"/></g><g><path d="M29.95,52c.13-4.87,.57-9.57,1.28-14,.56-3.51,1.28-7,2.16-10h-12.9C27.45,12,40.13,2,54.78,2" fill="none" stroke="#333" stroke-linecap="round" stroke-linejoin="round" stroke-width="4"/><path d="M104.92,38h-12.11c1.14,4,1.84,9.13,2.05,14" fill="none" stroke="#333" stroke-linecap="round" stroke-linejoin="round" stroke-width="4"/><path d="M79.88,58c-.23,9-1.46,16.9-3.44,24-1.02,3.64-2.24,7-3.62,10h-25.06c-1.03-6-1.83-12.42-2.31-20-.29-4.43-.46-9-.52-14h34.95Z" fill="none" stroke="#333" stroke-linecap="round" stroke-linejoin="round" stroke-width="4"/><line x1="30.92" y1="72" x2="44.92" y2="72" fill="none" stroke="#333" stroke-miterlimit="10" stroke-width="4"/><line x1="88.92" y1="82" x2="99.92" y2="82" fill="none" stroke="#333" stroke-linejoin="round" stroke-width="4"/><path d="M14.96,52c.37-8.73,2.35-16.9,5.53-24" fill="none" stroke="#333" stroke-linejoin="round" stroke-width="4"/><path d="M8.92,82h24c-.88-3-1.57-6.49-2.06-10-.63-4.43-.94-9.12-.94-13.99h0" fill="none" stroke="#333" stroke-linejoin="round" stroke-width="4"/><path d="M94.86,58c-.21,4.87-.91,9.57-2.05,14-.89,3.51-2.06,6.86-3.47,10-1.63,3.64-3.57,6.99-5.79,10-7,9.52-17.91,15.58-28.66,15.99-2.81,0-5.29-6.12-7.11-15.99" fill="none" stroke="#333" stroke-linejoin="round" stroke-width="4"/><path d="M104.92,54.94c0,1.02-.03,2.06-.08,3.06H5c-.05-1-.08-2.05-.08-3.06s.03-1.94,.08-2.94H104.84c.05,1,.08,1.97,.08,2.94Z" fill="none" stroke="#333" stroke-linejoin="round" stroke-width="4"/><path d="M107.83,58c-1.56,28-24.65,50-52.92,50S3.56,86,2,58H107.83Z" fill="none" stroke="#333" stroke-linecap="round" stroke-linejoin="round" stroke-width="4"/><path d="M2,52C3.56,24,26.65,2,54.92,2s51.36,22,52.92,50H2Z" fill="none" stroke="#333" stroke-linecap="round" stroke-linejoin="round" stroke-width="4"/><g><circle cx="67.92" cy="29.01" r="17" fill="none" stroke="#333" stroke-miterlimit="10" stroke-width="4"/><line x1="65.42" y1="33.34" x2="59.42" y2="43.73" fill="none" stroke="#333" stroke-linejoin="round" stroke-width="4"/><line x1="76.42" y1="14.28" x2="70.42" y2="24.68" fill="none" stroke="#333" stroke-linejoin="round" stroke-width="4"/><line x1="76.42" y1="43.73" x2="70.42" y2="33.34" fill="none" stroke="#333" stroke-linejoin="round" stroke-width="4"/><line x1="65.42" y1="24.68" x2="59.42" y2="14.28" fill="none" stroke="#333" stroke-linejoin="round" stroke-width="4"/><line x1="62.92" y1="29" x2="50.92" y2="29" fill="none" stroke="#333" stroke-linejoin="round" stroke-width="4"/><line x1="84.92" y1="29" x2="72.92" y2="29" fill="none" stroke="#333" stroke-linejoin="round" stroke-width="4"/><circle cx="67.92" cy="29.01" r="5" fill="none" stroke="#333" stroke-linejoin="round" stroke-width="4"/></g></g></g></g></g></svg>