<?xml version="1.0" encoding="UTF-8"?><svg id="Layer_2" xmlns="http://www.w3.org/2000/svg" xmlns:xlink="http://www.w3.org/1999/xlink" viewBox="0 0 145 103.75"><defs><linearGradient id="linear-gradient" x1="10" y1="51.91" x2="141" y2="51.91" gradientUnits="userSpaceOnUse"><stop offset="0" stop-color="#c486c4"/><stop offset="1" stop-color="#6ee"/></linearGradient><linearGradient id="linear-gradient-2" x1="58" y1="93.75" x2="58" y2="9.75" gradientUnits="userSpaceOnUse"><stop offset="0" stop-color="#00e3e3"/><stop offset=".15" stop-color="#21ccda"/><stop offset=".44" stop-color="#60a1ca"/><stop offset=".7" stop-color="#8e81be"/><stop offset=".89" stop-color="#aa6eb7"/><stop offset="1" stop-color="#b567b5"/></linearGradient><linearGradient id="linear-gradient-3" x1="45.91" y1="51.75" x2="119.56" y2="51.75" gradientUnits="userSpaceOnUse"><stop offset="0" stop-color="#b567b5"/><stop offset=".11" stop-color="#aa6eb7"/><stop offset=".3" stop-color="#8e81be"/><stop offset=".56" stop-color="#60a1ca"/><stop offset=".85" stop-color="#21ccda"/><stop offset="1" stop-color="#00e3e3"/></linearGradient><linearGradient id="linear-gradient-4" x1="48" y1="51.75" x2="68" y2="51.75" gradientUnits="userSpaceOnUse"><stop offset="0" stop-color="#c486c4"/><stop offset=".1" stop-color="#b98bc5"/><stop offset=".29" stop-color="#9d98ca"/><stop offset=".52" stop-color="#6faed1"/><stop offset=".8" stop-color="#30ccdb"/><stop offset="1" stop-color="#00e3e3"/></linearGradient><linearGradient id="linear-gradient-5" x1="10" y1="51.8" x2="97.25" y2="51.8" gradientUnits="userSpaceOnUse"><stop offset="0" stop-color="#cb95cb"/><stop offset=".1" stop-color="#c099cc"/><stop offset=".28" stop-color="#a4a3cf"/><stop offset=".51" stop-color="#76b5d5"/><stop offset=".78" stop-color="#37cddc"/><stop offset="1" stop-color="#00e3e3"/></linearGradient><linearGradient id="linear-gradient-6" x1="73.6" y1="84.05" x2="111" y2="84.05" xlink:href="#linear-gradient-4"/></defs><g id="icons"><g id="set"><g id="Falcon"><g><path d="M45.52,98.11c-8.14-2.18-15.58-6.46-21.55-12.43-9-8.99-13.96-20.96-13.96-33.7s5.01-25.05,14.12-34.1c6-5.99,13.4-10.18,21.46-12.17l3.86,4.01c.38,.4,.9,.61,1.44,.61,.11,0,.21,0,.32-.03,2.24-.37,4.53-.55,6.8-.55s4.55,.19,6.8,.55c.11,.02,.22,.03,.32,.03,.54,0,1.06-.22,1.44-.62l3.71-3.86c26.05,6.68,64.3,30.02,70.73,34.01v4.95s-19-.05-19-.05c-.53,0-1.04,.21-1.41,.58-.38,.38-.59,.88-.59,1.42v10c0,1.1,.9,2,2,2h19v4.89c-6.42,3.99-44.59,27.3-70.67,34.2l-3.75-4.03c-.38-.41-.91-.64-1.46-.64-.11,0-.21,0-.32,.03-2.24,.37-4.53,.55-6.8,.55s-4.55-.19-6.8-.55c-.11-.02-.22-.03-.32-.03-.56,0-1.1,.23-1.48,.66l-3.88,4.28Z" fill="url(#linear-gradient)"/><path d="M44.95,7.94l3.05,3.17c.76,.79,1.8,1.23,2.88,1.23,.21,0,.43-.02,.65-.05,2.14-.35,4.31-.53,6.47-.53s4.34,.18,6.47,.53c.22,.04,.43,.05,.65,.05,1.08,0,2.13-.44,2.89-1.23l2.89-3.01c24.66,6.69,59.7,27.72,68.1,32.89v1.83l-16.99-.05h-.01c-1.06,0-2.07,.42-2.82,1.17-.75,.75-1.18,1.77-1.18,2.83v10c0,2.21,1.79,4,4,4h17v1.78c-8.39,5.17-43.33,26.17-68.02,33.06l-2.93-3.15c-.76-.82-1.83-1.28-2.93-1.28-.21,0-.43,.02-.65,.05-2.14,.35-4.31,.53-6.47,.53s-4.34-.18-6.47-.53c-.22-.04-.43-.05-.65-.05-1.12,0-2.2,.47-2.96,1.31l-3.05,3.36c-7.35-2.17-14.05-6.15-19.49-11.58-8.63-8.62-13.38-20.08-13.38-32.28s4.81-24.01,13.54-32.69c5.46-5.45,12.13-9.35,19.41-11.35m1.28-4.44c-9.05,2-17.14,6.59-23.52,12.96-9.09,9.04-14.71,21.67-14.71,35.52s5.56,26.13,14.55,35.11c6.4,6.39,14.53,11.05,23.64,13.25l4.69-5.17c2.32,.38,4.7,.58,7.12,.58s4.8-.2,7.12-.58l4.56,4.9c29.03-7.24,73.32-35.32,73.32-35.32v-8h-21v-10l21,.06v-8.06S98.64,10.63,69.63,3.63l-4.51,4.7c-2.32-.38-4.7-.58-7.12-.58s-4.8,.2-7.12,.58l-4.65-4.83h0Z" fill="#b2f7f7"/><path d="M122,46.75v10h21v8s-44.29,28.08-73.32,35.32l-4.56-4.9c-2.32,.38-4.7,.58-7.12,.58s-4.8-.2-7.12-.58l-4.69,5.17c-9.11-2.2-17.24-6.86-23.64-13.25-8.99-8.98-14.55-21.36-14.55-35.11s5.62-26.48,14.71-35.52c6.38-6.37,14.47-10.96,23.52-12.96l4.65,4.83c2.32-.38,4.7-.58,7.12-.58s4.8,.2,7.12,.58l4.51-4.7c29.01,7,73.37,35.12,73.37,35.12v8.06l-21-.06Z" fill="none" stroke="#333" stroke-linecap="round" stroke-linejoin="round" stroke-width="4"/></g><path d="M65.13,95.43c.16,3.29-2.37,6.13-5.67,6.28-.49,.03-.98,.04-1.46,.04-.42,0-.83-.01-1.25-.02-3.38-.08-6.05-2.91-5.88-6.3v-.26c2.33,.38,4.71,.58,7.13,.58s4.8-.2,7.12-.58v.26Z" fill="#00e3e3" stroke="#333" stroke-linejoin="round" stroke-width="4"/><path d="M65.12,8.33c-2.32-.38-4.7-.58-7.12-.58s-4.8,.2-7.12,.58c-.01-.11-.01-.22-.01-.32,0-3.24,2.59-5.93,5.86-6,.84-.02,1.7-.01,2.54,0,3.38,.08,6.02,2.94,5.85,6.31Z" fill="#00e3e3" stroke="#333" stroke-linejoin="round" stroke-width="4"/><path d="M76,51.75c0,2.57-.54,5.02-1.52,7.23-.35,.8-.77,1.58-1.23,2.31-1.65,2.64-3.97,4.82-6.72,6.3-2.54,1.38-5.44,2.16-8.53,2.16-4.96,0-9.46-2.02-12.72-5.28-3.26-3.26-5.28-7.76-5.28-12.72,0-2.9,.69-5.64,1.92-8.07,.86-1.73,2.01-3.3,3.36-4.65,1.15-1.15,2.46-2.15,3.89-2.95,2.61-1.49,5.62-2.33,8.83-2.33,7.36,0,13.69,4.44,16.48,10.77,.98,2.21,1.52,4.66,1.52,7.23Z" fill="none" stroke="#333" stroke-linejoin="round" stroke-width="4"/><g><path d="M58,93.75c-1.67,0-3.36-.1-5.03-.3l2.03-41.6c0-.07,0-.13,0-.2l-2.03-41.6c1.67-.2,3.36-.3,5.03-.3s3.36,.1,5.03,.3l-2.03,41.6c0,.07,0,.13,0,.2l2.03,41.6c-1.67,.2-3.36,.3-5.03,.3Z" fill="url(#linear-gradient-2)"/><path d="M58,11.75c.98,0,1.96,.04,2.94,.11l-1.94,39.7c0,.13,0,.26,0,.39l1.94,39.7c-.98,.07-1.96,.11-2.94,.11s-1.96-.04-2.94-.11l1.94-39.7c0-.13,0-.26,0-.39l-1.94-39.7c.98-.07,1.96-.11,2.94-.11m0-4c-2.42,0-4.8,.2-7.12,.58l2.12,43.42-2.12,43.42c2.32,.38,4.7,.58,7.12,.58s4.8-.2,7.12-.58l-2.12-43.42,2.12-43.42c-2.32-.38-4.7-.58-7.12-.58h0Z" fill="#b2f7f7"/><path d="M58,11.75c.98,0,1.96,.04,2.94,.11l-1.94,39.7c0,.13,0,.26,0,.39l1.94,39.7c-.98,.07-1.96,.11-2.94,.11s-1.96-.04-2.94-.11l1.94-39.7c0-.13,0-.26,0-.39l-1.94-39.7c.98-.07,1.96-.11,2.94-.11m0-4c-2.42,0-4.8,.2-7.12,.58l2.12,43.42-2.12,43.42c2.32,.38,4.7,.58,7.12,.58s4.8-.2,7.12-.58l-2.12-43.42,2.12-43.42c-2.32-.38-4.7-.58-7.12-.58h0Z" fill="#a6f5f5"/><path d="M63,51.75l2.12,43.42c-2.32,.38-4.7,.58-7.12,.58s-4.8-.2-7.12-.58l2.12-43.42-2.12-43.42c2.32-.38,4.7-.58,7.12-.58s4.8,.2,7.12,.58l-2.12,43.42Z" fill="none" stroke="#333" stroke-linecap="round" stroke-linejoin="round" stroke-width="4"/></g><g><path d="M77.33,56.84c.44-1.65,.66-3.36,.66-5.09s-.22-3.44-.67-5.09l42.67,2v6.18l-42.67,2Z" fill="url(#linear-gradient-3)"/><path d="M79.79,48.78l38.21,1.79v2.37l-38.21,1.79c.13-.98,.2-1.97,.2-2.98s-.07-1.99-.2-2.98m-5.33-4.25c.98,2.21,1.54,4.66,1.54,7.23s-.55,5.02-1.53,7.23l47.54-2.23v-10l-47.55-2.23h0Z" fill="#d3a4d3"/><path d="M122,46.75v10l-47.54,2.23c.98-2.21,1.53-4.66,1.53-7.23s-.55-5.02-1.54-7.23l47.55,2.23Z" fill="none" stroke="#333" stroke-miterlimit="10" stroke-width="4"/></g><g><circle cx="58" cy="51.75" r="10" fill="url(#linear-gradient-4)"/><path d="M58,43.75c4.41,0,8,3.59,8,8s-3.59,8-8,8-8-3.59-8-8,3.59-8,8-8m0-4c-6.62,0-12,5.38-12,12s5.38,12,12,12,12-5.38,12-12-5.38-12-12-12h0Z" fill="#d3a4d3"/><path d="M58,63.75c-6.62,0-12-5.38-12-12s5.38-12,12-12,12,5.38,12,12-5.38,12-12,12Z" fill="none" stroke="#333" stroke-miterlimit="10" stroke-width="4"/></g><path d="M8,51.98c0,13.75,5.56,26.13,14.55,35.11l-8.86-1.14c-7.33-9.46-11.69-21.33-11.69-34.2S6.36,27.01,13.69,17.55l8.96-1.15,.06,.06c-9.09,9.04-14.71,21.67-14.71,35.52Z" fill="#00e3e3" stroke="#333" stroke-linejoin="round" stroke-width="4"/><g><path d="M22.63,84.29c-8.16-8.82-12.63-20.22-12.63-32.31s4.51-23.79,12.74-32.67l19.79,19.79c-2.93,3.57-4.52,7.99-4.52,12.65s1.59,9.08,4.52,12.65l-19.89,19.89Z" fill="url(#linear-gradient-5)"/><path d="M22.82,22.23l17.05,17.05c-2.52,3.64-3.88,7.95-3.88,12.47s1.36,8.82,3.88,12.47l-17.16,17.16c-6.94-8.21-10.72-18.51-10.72-29.39s3.82-21.47,10.82-29.75m-.11-5.77c-9.09,9.04-14.71,21.67-14.71,35.52s5.56,26.13,14.55,35.11h.1s22.63-22.62,22.63-22.62c-3.26-3.26-5.28-7.76-5.28-12.72s2.02-9.46,5.28-12.72L22.71,16.46h0Z" fill="#d3a4d3"/><path d="M40,51.75c0,4.96,2.02,9.46,5.28,12.72l-22.63,22.63h-.1c-8.99-8.99-14.55-21.37-14.55-35.12s5.62-26.48,14.71-35.52l22.57,22.57c-3.26,3.26-5.28,7.76-5.28,12.72Z" fill="none" stroke="#333" stroke-miterlimit="10" stroke-width="4"/></g><g><path d="M120,94.75c0,3.87-3.13,7-7,7v-14c1.94,0,3.68,.78,4.95,2.05,1.27,1.27,2.05,3.01,2.05,4.95Z" fill="#00e3e3"/><path d="M120,94.75c0,3.87-3.13,7-7,7v-14c1.94,0,3.68,.78,4.95,2.05,1.27,1.27,2.05,3.01,2.05,4.95Z" fill="none" stroke="#333" stroke-miterlimit="10" stroke-width="4"/></g><g><path d="M97.81,99.75l-24.2-27.22c1.62-1.21,3.1-2.62,4.39-4.17l22.71,20.87c.37,.34,.85,.53,1.35,.53h8.94v10h-13.19Z" fill="url(#linear-gradient-6)"/><path d="M78.13,71.2l21.23,19.5c.74,.68,1.7,1.05,2.71,1.05h6.94v6h-10.29l-22.22-24.99c.57-.5,1.12-1.02,1.64-1.56m-.4-5.8c-1.88,2.72-4.32,5.03-7.13,6.76l26.31,29.59h16.09v-14h-10.94l-24.33-22.35h0Z" fill="#d3a4d3"/><path d="M113,87.75v14h-16.09l-26.31-29.59c2.81-1.73,5.25-4.04,7.13-6.76l24.33,22.35h10.94Z" fill="none" stroke="#333" stroke-miterlimit="10" stroke-width="4"/></g><circle cx="30.5" cy="51.75" r="3.5" fill="#00e3e3" stroke="#333" stroke-linejoin="round" stroke-width="4"/><circle cx="33.5" cy="64.27" r="3.5" fill="#00e3e3" stroke="#333" stroke-linejoin="round" stroke-width="4"/><circle cx="33.5" cy="39.27" r="3.5" fill="#00e3e3" stroke="#333" stroke-linejoin="round" stroke-width="4"/></g></g></g></svg>