<?xml version="1.0" encoding="UTF-8"?><svg id="Layer_2" xmlns="http://www.w3.org/2000/svg" xmlns:xlink="http://www.w3.org/1999/xlink" viewBox="0 0 567 738.34"><defs><style>.cls-1{fill:url(#linear-gradient-2);}.cls-2,.cls-3{fill:#ceebed;}.cls-2,.cls-4,.cls-5,.cls-6,.cls-7,.cls-8,.cls-9{stroke-linejoin:round;stroke-width:4px;}.cls-2,.cls-4,.cls-6,.cls-8,.cls-9{stroke:#303030;}.cls-2,.cls-5,.cls-6,.cls-8,.cls-9{stroke-linecap:round;}.cls-4{fill:url(#linear-gradient);}.cls-5{stroke:#cb9dc8;}.cls-5,.cls-8{fill:none;}.cls-6{fill:url(#New_Gradient_Swatch_2);}.cls-7{fill:url(#New_Gradient_Swatch_2-2);stroke:#333;}.cls-9{fill:#fff;}.cls-10{fill:url(#linear-gradient-3);}.cls-11{fill:url(#linear-gradient-4);}.cls-12{fill:#cb9dc8;}</style><linearGradient id="New_Gradient_Swatch_2" x1="173.35" y1="684.33" x2="393.65" y2="684.33" gradientUnits="userSpaceOnUse"><stop offset="0" stop-color="#56c5cf"/><stop offset=".15" stop-color="#69b8ca"/><stop offset=".53" stop-color="#979ac0"/><stop offset=".83" stop-color="#b388ba"/><stop offset="1" stop-color="#be82b8"/></linearGradient><linearGradient id="linear-gradient" x1="2" y1="390.59" x2="565" y2="390.59" gradientUnits="userSpaceOnUse"><stop offset="0" stop-color="#be82b8"/><stop offset=".17" stop-color="#b388ba"/><stop offset=".47" stop-color="#979ac0"/><stop offset=".85" stop-color="#69b8ca"/><stop offset="1" stop-color="#56c5cf"/></linearGradient><linearGradient id="New_Gradient_Swatch_2-2" x1="38.72" y1="338.46" x2="528.28" y2="338.46" xlink:href="#New_Gradient_Swatch_2"/><linearGradient id="linear-gradient-2" x1="77.43" y1="367.97" x2="489.56" y2="367.97" gradientUnits="userSpaceOnUse"><stop offset="0" stop-color="#9fdae0"/><stop offset="1" stop-color="#be82b8"/></linearGradient><linearGradient id="linear-gradient-3" x1="285.52" y1="323.28" x2="446.75" y2="323.28" gradientUnits="userSpaceOnUse"><stop offset="0" stop-color="#56c5cf"/><stop offset=".22" stop-color="#76b9cd"/><stop offset=".57" stop-color="#a4aaca"/><stop offset=".84" stop-color="#c0a0c8"/><stop offset="1" stop-color="#cb9dc8"/></linearGradient><linearGradient id="linear-gradient-4" x1="120.25" y1="323.28" x2="281.47" y2="323.28" gradientUnits="userSpaceOnUse"><stop offset="0" stop-color="#cb9dc8"/><stop offset=".16" stop-color="#c0a0c8"/><stop offset=".43" stop-color="#a4aaca"/><stop offset=".78" stop-color="#76b9cd"/><stop offset="1" stop-color="#56c5cf"/></linearGradient></defs><g id="icons"><g id="C-3PO"><polyline class="cls-6" points="173.35 632.31 173.35 736.34 393.65 736.34 393.65 632.31"/><path class="cls-4" d="M565,343.37c0,40.85-5.75,80.88-16.42,117.6H18.42C7.75,424.25,2,384.21,2,343.37c0-7.91,.23-17.03,.7-23.15H564.29c.47,6.12,.7,15.24,.7,23.15Z"/><path class="cls-7" d="M161.01,94.88c27.03-16.64,51.67-37.59,69.08-64.24,9.91-15.17,26.9-28.64,53.41-28.64,26.51,0,43.5,13.47,53.41,28.64,17.41,26.64,42.05,47.6,69.08,64.24,75.78,46.65,122.3,137.9,122.3,249.82,0,176.14-113.53,330.22-244.78,330.22S38.72,520.83,38.72,344.69c0-111.92,46.51-203.16,122.3-249.82Z"/><g><path class="cls-1" d="M283.5,637.5c-54.55,0-106.44-32.07-146.1-90.29-38.11-55.93-59.96-129.74-59.96-202.51,0-36.33,5.38-70.45,16-101.4,10.18-29.66,24.92-55.78,43.81-77.65,37.45-43.33,89.39-67.2,146.24-67.2s108.79,23.86,146.24,67.2c18.9,21.86,33.64,47.99,43.81,77.65,10.62,30.95,16,65.07,16,101.4,0,72.77-21.85,146.58-59.96,202.51-39.67,58.23-91.56,90.29-146.1,90.29Z"/><path class="cls-3" d="M283.5,100.44c56.26,0,107.66,23.62,144.73,66.51,18.73,21.67,33.34,47.57,43.44,76.99,10.55,30.74,15.9,64.64,15.9,100.76,0,72.38-21.73,145.78-59.61,201.38-18.93,27.79-40.77,49.69-64.9,65.07-25.34,16.16-52.1,24.35-79.55,24.35s-54.21-8.19-79.55-24.35c-24.13-15.39-45.97-37.28-64.9-65.07-37.88-55.61-59.61-129.01-59.61-201.38,0-36.11,5.35-70.01,15.9-100.76,10.09-29.42,24.71-55.32,43.44-76.99,37.07-42.89,88.47-66.51,144.73-66.51m0-4c-116.6,0-208.06,98.29-208.06,248.25s91.46,294.8,208.06,294.8,208.06-144.84,208.06-294.8-91.46-248.25-208.06-248.25h0Z"/><path class="cls-8" d="M491.56,344.69c0,149.96-91.46,294.8-208.06,294.8S75.43,494.65,75.43,344.69,166.9,96.44,283.5,96.44s208.06,98.29,208.06,248.25Z"/></g><path class="cls-5" d="M130.51,320.75c0,154.9,75.78,306.94,152.99,306.94s152.99-152.04,152.99-306.94"/><line class="cls-8" x1="283.5" y1="326.34" x2="283.5" y2="638.43"/><g><ellipse class="cls-10" cx="366.14" cy="323.28" rx="80.61" ry="86.73"/><path class="cls-12" d="M366.14,238.54c43.35,0,78.61,38.01,78.61,84.73s-35.27,84.73-78.61,84.73-78.61-38.01-78.61-84.73,35.27-84.73,78.61-84.73m0-4c-45.63,0-82.61,39.73-82.61,88.73s36.99,88.73,82.61,88.73,82.61-39.73,82.61-88.73-36.99-88.73-82.61-88.73h0Z"/><ellipse class="cls-8" cx="366.14" cy="323.28" rx="82.61" ry="88.73"/></g><g><ellipse class="cls-11" cx="200.86" cy="323.28" rx="80.61" ry="86.73"/><path class="cls-12" d="M200.86,238.54c43.35,0,78.61,38.01,78.61,84.73s-35.27,84.73-78.61,84.73-78.61-38.01-78.61-84.73,35.27-84.73,78.61-84.73m0-4c-45.63,0-82.61,39.73-82.61,88.73s36.99,88.73,82.61,88.73,82.61-39.73,82.61-88.73-36.99-88.73-82.61-88.73h0Z"/><ellipse class="cls-8" cx="200.86" cy="323.28" rx="82.61" ry="88.73"/></g><circle class="cls-9" cx="366.11" cy="323.28" r="27.54"/><line class="cls-8" x1="318.91" y1="463.15" x2="283.5" y2="427.74"/><path class="cls-8" d="M118.27,320.75c0,149.74,73.97,318.75,165.23,318.75,91.25,0,165.23-169.01,165.23-318.75"/><circle class="cls-9" cx="200.88" cy="323.28" r="27.54"/><line class="cls-8" x1="248.08" y1="463.15" x2="283.5" y2="427.74"/><ellipse class="cls-2" cx="283.5" cy="66.93" rx="29.32" ry="29.51"/><line class="cls-8" x1="252.9" y1="528.28" x2="314.1" y2="528.28"/><line class="cls-8" x1="130.51" y1="736.34" x2="436.49" y2="736.34"/></g></g></svg>