<?xml version="1.0" encoding="UTF-8"?><svg id="Layer_2" xmlns="http://www.w3.org/2000/svg" xmlns:xlink="http://www.w3.org/1999/xlink" viewBox="0 0 94 120.94"><defs><linearGradient id="linear-gradient" x1="24" y1="20" x2="70" y2="20" gradientUnits="userSpaceOnUse"><stop offset="0" stop-color="#c486c4"/><stop offset="1" stop-color="#00e3e3"/></linearGradient><linearGradient id="linear-gradient-2" x1="24" y1="67.5" x2="70" y2="67.5" gradientUnits="userSpaceOnUse"><stop offset="0" stop-color="#c486c4"/><stop offset="1" stop-color="#6ee"/></linearGradient><linearGradient id="linear-gradient-3" x1="27" y1="101" x2="67" y2="101" gradientUnits="userSpaceOnUse"><stop offset="0" stop-color="#c486c4"/><stop offset=".1" stop-color="#b98bc5"/><stop offset=".29" stop-color="#9d98ca"/><stop offset=".52" stop-color="#6faed1"/><stop offset=".8" stop-color="#30ccdb"/><stop offset="1" stop-color="#00e3e3"/></linearGradient><linearGradient id="New_Gradient_Swatch_2" x1="83" y1="37.97" x2="83" y2="73" gradientUnits="userSpaceOnUse"><stop offset="0" stop-color="#00e3e3"/><stop offset=".2" stop-color="#30ccdb"/><stop offset=".48" stop-color="#6faed1"/><stop offset=".71" stop-color="#9d98ca"/><stop offset=".9" stop-color="#b98bc5"/><stop offset="1" stop-color="#c486c4"/></linearGradient><linearGradient id="New_Gradient_Swatch_2-2" x1="11" y1="37.97" x2="11" gradientTransform="translate(22 110.97) rotate(-180)" xlink:href="#New_Gradient_Swatch_2"/><linearGradient id="linear-gradient-4" x1="37" y1="22" x2="57" y2="22" gradientUnits="userSpaceOnUse"><stop offset="0" stop-color="#99f4f4"/><stop offset=".19" stop-color="#a3dae8"/><stop offset=".55" stop-color="#b4acd4"/><stop offset=".84" stop-color="#bf90c8"/><stop offset="1" stop-color="#c486c4"/></linearGradient></defs><g id="icons"><g id="set"><g id="R2_D2"><g><path d="M24,36v-9c0-1.23,.1-2.47,.29-3.68,.09-.57,.21-1.17,.38-1.85,2.53-10.29,11.71-17.47,22.33-17.47,6.15,0,11.92,2.39,16.27,6.73,2.97,2.97,5.07,6.69,6.06,10.74,.16,.67,.29,1.28,.38,1.84,.2,1.21,.29,2.45,.29,3.68v9H24Z" fill="url(#linear-gradient)"/><path d="M47,6c5.61,0,10.89,2.18,14.85,6.15,2.71,2.71,4.63,6.1,5.53,9.79,.15,.62,.26,1.17,.35,1.7,.18,1.1,.27,2.24,.27,3.36v7H26v-7c0-1.13,.09-2.26,.27-3.36,.08-.52,.2-1.08,.35-1.68,2.31-9.39,10.69-15.95,20.39-15.95m0-4c-11.74,0-21.59,8.09-24.27,19-.16,.66-.3,1.32-.41,2-.21,1.3-.32,2.64-.32,4v11h50v-11c0-1.36-.11-2.7-.32-4-.11-.68-.25-1.34-.41-2-1.1-4.49-3.42-8.51-6.59-11.68-4.52-4.52-10.78-7.32-17.68-7.32h0Z" fill="#6ee"/><path d="M72,27v11H22v-11c0-1.36,.11-2.7,.32-4,.11-.68,.25-1.34,.41-2C25.41,10.09,35.26,2,47,2c6.9,0,13.16,2.8,17.68,7.32,3.17,3.17,5.49,7.19,6.59,11.68,.16,.66,.3,1.32,.41,2,.21,1.3,.32,2.64,.32,4Z" fill="none" stroke="#333" stroke-linecap="round" stroke-linejoin="round" stroke-width="4"/></g><g><rect x="24" y="40" width="46" height="55" fill="url(#linear-gradient-2)"/><path d="M68,42v51H26V42h42m4-4H22v59h50V38h0Z" fill="#6ee"/><rect x="22" y="38" width="50" height="59" fill="none" stroke="#333" stroke-linecap="round" stroke-linejoin="round" stroke-width="4"/></g><g><polygon points="74.49 116.94 77.6 102.94 86.4 102.94 89.51 116.94 74.49 116.94" fill="#c486c4"/><path d="M84.79,104.94l2.22,10h-10.03l2.22-10h5.58m3.21-4h-12l-4,18h20l-4-18h0Z" fill="#b2f7f7"/><polygon points="76 100.94 88 100.94 92 118.94 72 118.94 76 100.94" fill="none" stroke="#333" stroke-linejoin="round" stroke-width="4"/></g><polygon points="62.24 105 31.76 105 27 97 67 97 62.24 105" fill="url(#linear-gradient-3)" stroke="#333" stroke-linecap="round" stroke-linejoin="round" stroke-width="4"/><rect x="78" y="71" width="8" height="30" fill="#00e3e3" stroke="#333" stroke-linejoin="round" stroke-width="4"/><path d="M78,37.97h0c5.52,0,10,4.48,10,10v25.03h-10V37.97h0Z" fill="url(#New_Gradient_Swatch_2)" stroke="#333" stroke-linejoin="round" stroke-width="4"/><g><polygon points="4.49 116.94 7.6 102.94 16.4 102.94 19.51 116.94 4.49 116.94" fill="#c486c4"/><path d="M14.79,104.94l2.22,10H6.99l2.22-10h5.58m3.21-4H6l-4,18H22l-4-18h0Z" fill="#b2f7f7"/><polygon points="18 100.94 6 100.94 2 118.94 22 118.94 18 100.94" fill="none" stroke="#333" stroke-linejoin="round" stroke-width="4"/></g><rect x="8" y="71" width="8" height="30" transform="translate(24 172) rotate(180)" fill="#00e3e3" stroke="#333" stroke-linejoin="round" stroke-width="4"/><path d="M6,37.97h10v25.03c0,5.52-4.48,10-10,10h0V37.97h0Z" transform="translate(22 110.97) rotate(180)" fill="url(#New_Gradient_Swatch_2-2)" stroke="#333" stroke-linejoin="round" stroke-width="4"/><path d="M72,27v5H22v-5c0-1.36,.11-3,.32-4h49.36c.21,1,.32,2.64,.32,4Z" fill="none" stroke="#333" stroke-linejoin="round" stroke-width="4"/><rect x="37" y="12" width="20" height="20" fill="url(#linear-gradient-4)" stroke="#333" stroke-linejoin="round" stroke-width="4"/><circle cx="46.97" cy="21.5" r="4.5" fill="#00e3e3" stroke="#333" stroke-linejoin="round" stroke-width="4"/><line x1="33" y1="46" x2="60" y2="46" fill="none" stroke="#333" stroke-linecap="round" stroke-linejoin="round" stroke-width="4"/><line x1="33" y1="52" x2="60" y2="52" fill="none" stroke="#333" stroke-linecap="round" stroke-linejoin="round" stroke-width="4"/><line x1="33" y1="58" x2="60" y2="58" fill="none" stroke="#333" stroke-linecap="round" stroke-linejoin="round" stroke-width="4"/><g><rect x="34.94" y="67.97" width="8" height="16" fill="#00e3e3"/><path d="M40.94,69.97v12h-4v-12h4m4-4h-12v20h12v-20h0Z" fill="#d3a4d3"/><rect x="32.94" y="65.97" width="12" height="20" fill="none" stroke="#333" stroke-linejoin="round" stroke-width="4"/></g></g></g></g></svg>