<?xml version="1.0" encoding="UTF-8"?><svg id="Layer_2" xmlns="http://www.w3.org/2000/svg" xmlns:xlink="http://www.w3.org/1999/xlink" viewBox="0 0 108.03 117.98"><defs><linearGradient id="linear-gradient" x1="4" y1="57.07" x2="104.02" y2="57.07" gradientUnits="userSpaceOnUse"><stop offset="0" stop-color="#33e9e9"/><stop offset="1" stop-color="#c486c4"/></linearGradient><radialGradient id="radial-gradient" cx="141.5" cy="88.39" fx="141.5" fy="88.39" r="18.33" gradientTransform="translate(-72.57 -16.46) scale(.9)" gradientUnits="userSpaceOnUse"><stop offset="0" stop-color="#6ee"/><stop offset=".15" stop-color="#77dae6"/><stop offset=".53" stop-color="#a0acd3"/><stop offset=".83" stop-color="#ba90c8"/><stop offset="1" stop-color="#c486c4"/></radialGradient><linearGradient id="linear-gradient-2" x1="21.87" y1="101.85" x2="86.08" y2="101.85" gradientUnits="userSpaceOnUse"><stop offset="0" stop-color="#cb95cb"/><stop offset=".1" stop-color="#c099cc"/><stop offset=".28" stop-color="#a4a3cf"/><stop offset=".51" stop-color="#76b5d5"/><stop offset=".78" stop-color="#37cddc"/><stop offset="1" stop-color="#00e3e3"/></linearGradient><radialGradient id="radial-gradient-2" cx="141.16" cy="70.99" fx="141.16" fy="70.99" r="42.15" xlink:href="#radial-gradient"/></defs><g id="icons"><g id="set"><g id="Stormtroopers"><g><rect x="8.89" y="38.36" width="7" height="19.69" fill="#00e3e3"/><rect x="8.89" y="38.36" width="7" height="19.69" fill="none" stroke="#333" stroke-miterlimit="10" stroke-width="4"/></g><g><rect x="92.06" y="38.36" width="7" height="19.69" fill="#00e3e3"/><rect x="92.06" y="38.36" width="7" height="19.69" fill="none" stroke="#333" stroke-miterlimit="10" stroke-width="4"/></g><g><path d="M26.87,110.14c-9.17-7.35-16.41-16.05-21.01-25.23-2.57-5.14-2.47-11.16,.27-16.11,.71-1.29,1.49-2.56,2.3-3.79,6.19-9.32,9.46-19.87,9.46-30.5,0-16.82,13.69-30.51,30.51-30.51h11.15c16.82,0,30.51,13.69,30.51,30.51,0,10.68,3.27,21.22,9.45,30.53,.89,1.35,1.74,2.75,2.51,4.18,2.57,4.73,2.66,10.48,.25,15.38-4.57,9.27-11.88,18.08-21.18,25.54l-13.16-9.94c-.36-.27-.78-.4-1.21-.4-.39,0-.78,.11-1.12,.34-3.99,2.71-7.79,4.02-11.63,4.02-4.26,0-8.21-1.21-12.07-3.68-.33-.21-.71-.32-1.08-.32-.42,0-.85,.13-1.2,.4l-12.76,9.58Z" fill="url(#linear-gradient)"/><path d="M59.55,6c15.72,0,28.51,12.79,28.51,28.51v.05c0,11.02,3.38,21.94,9.78,31.59,.86,1.3,1.68,2.66,2.42,4.03,2.26,4.16,2.34,9.23,.21,13.54-4.25,8.61-10.93,16.82-19.44,23.88l-11.91-8.99c-.71-.54-1.56-.81-2.41-.81-.78,0-1.57,.23-2.24,.69-3.65,2.47-7.08,3.67-10.5,3.67-3.86,0-7.46-1.1-10.99-3.37-.66-.42-1.41-.63-2.16-.63-.85,0-1.69,.27-2.4,.8l-11.51,8.64c-8.37-6.96-15-15.06-19.27-23.58-2.28-4.55-2.19-9.88,.23-14.25,.69-1.24,1.43-2.47,2.22-3.66,6.41-9.65,9.79-20.58,9.79-31.6,0-15.72,12.79-28.51,28.51-28.51h11.15m0-4h-11.15C30.45,2,15.89,16.56,15.89,34.51h0c0,10.49-3.32,20.65-9.13,29.39-.85,1.28-1.64,2.59-2.39,3.93-3.08,5.57-3.15,12.28-.31,17.98,5.24,10.48,13.39,19.59,22.76,26.86l13.99-10.51c3.73,2.4,8.06,4,13.15,4,4.74,0,9.02-1.84,12.75-4.36l14.39,10.87c9.48-7.35,17.71-16.56,22.95-27.18,2.7-5.47,2.63-11.86-.28-17.22-.81-1.49-1.68-2.93-2.61-4.33-5.8-8.74-9.11-18.89-9.11-29.37v-.05c0-17.96-14.56-32.51-32.51-32.51h0Z" fill="#b2f7f7"/><path d="M59.55,6c15.72,0,28.51,12.79,28.51,28.51v.05c0,11.02,3.38,21.94,9.78,31.59,.86,1.3,1.68,2.66,2.42,4.03,2.26,4.16,2.34,9.23,.21,13.54-4.25,8.61-10.93,16.82-19.44,23.88l-11.91-8.99c-.71-.54-1.56-.81-2.41-.81-.78,0-1.57,.23-2.24,.69-3.65,2.47-7.08,3.67-10.5,3.67-3.86,0-7.46-1.1-10.99-3.37-.66-.42-1.41-.63-2.16-.63-.85,0-1.69,.27-2.4,.8l-11.51,8.64c-8.37-6.96-15-15.06-19.27-23.58-2.28-4.55-2.19-9.88,.23-14.25,.69-1.24,1.43-2.47,2.22-3.66,6.41-9.65,9.79-20.58,9.79-31.6,0-15.72,12.79-28.51,28.51-28.51h11.15m0-4h-11.15C30.45,2,15.89,16.56,15.89,34.51h0c0,10.49-3.32,20.65-9.13,29.39-.85,1.28-1.64,2.59-2.39,3.93-3.08,5.57-3.15,12.28-.31,17.98,5.24,10.48,13.39,19.59,22.76,26.86l13.99-10.51c3.73,2.4,8.06,4,13.15,4,4.74,0,9.02-1.84,12.75-4.36l14.39,10.87c9.48-7.35,17.71-16.56,22.95-27.18,2.7-5.47,2.63-11.86-.28-17.22-.81-1.49-1.68-2.93-2.61-4.33-5.8-8.74-9.11-18.89-9.11-29.37v-.05c0-17.96-14.56-32.51-32.51-32.51h0Z" fill="#a6f5f5"/><path d="M103.78,68.27c-.81-1.49-1.68-2.93-2.61-4.33-5.8-8.74-9.11-18.89-9.11-29.37v-.05c0-17.96-14.56-32.51-32.51-32.51h-11.15C30.45,2,15.89,16.56,15.89,34.51h0c0,10.49-3.32,20.65-9.13,29.39-.85,1.28-1.64,2.59-2.39,3.93-3.08,5.57-3.15,12.28-.31,17.98,5.24,10.48,13.39,19.59,22.76,26.86l13.99-10.51c3.73,2.4,8.06,4,13.15,4,4.74,0,9.02-1.84,12.75-4.36l14.39,10.87c9.48-7.35,17.71-16.56,22.95-27.18,2.7-5.47,2.63-11.86-.28-17.22Z" fill="none" stroke="#333" stroke-linecap="round" stroke-linejoin="round" stroke-width="4"/></g><path d="M27.4,88.46c-7.09-9.04-9.43-18.84-9.43-29.53" fill="none" stroke="#333" stroke-linecap="round" stroke-linejoin="round" stroke-width="4"/><path d="M89.97,58.93c0,10.68-2.35,20.49-9.44,29.53" fill="none" stroke="#333" stroke-linecap="round" stroke-linejoin="round" stroke-width="4"/><path d="M80.28,87.33c-1.74-5.95-11.02-10.13-15.94-13.66-4.49-3.22-4.43-5.81-10.37-5.81s-5.85,2.59-10.34,5.8c-4.93,3.53-14.22,7.72-15.96,13.68,1.36-4.81,8.56-13.78,11.97-18.32,4.93-6.56,6.97-11.22,14.34-11.22s9.42,4.66,14.34,11.22c3.4,4.53,10.61,13.51,11.97,18.32Z" fill="url(#radial-gradient)" stroke="#333" stroke-linejoin="round" stroke-width="4"/><g><path d="M79.09,90.55c-5.94-2.83-11.15-1.17-14.33,.73-1.5,.89-3.46,.51-4.36-.98-1.3-2.15-3.66-2.58-6.36-2.58s-5.05,.43-6.35,2.58c-.9,1.48-2.84,1.88-4.33,1-3.22-1.9-8.51-3.55-14.43-.8-2.34,1.09-4.25,2.98-5.4,5.29-5.96,11.95,5.28,23.83,17.2,19.14,2.27-.89,4.2-2.51,5.55-4.54,.95-1.43,1.6-2.84,2.01-4.22,.76-2.59,3.45-4.59,5.76-4.59s4.89,2.03,5.65,4.54c.45,1.51,1.22,3.06,2.37,4.66,1.42,1.95,3.36,3.5,5.63,4.31,11.72,4.22,22.57-7.43,16.81-19.19-1.14-2.33-3.06-4.24-5.4-5.35Z" fill="url(#linear-gradient-2)"/><path d="M79.09,90.55c-5.94-2.83-11.15-1.17-14.33,.73-1.5,.89-3.46,.51-4.36-.98-1.3-2.15-3.66-2.58-6.36-2.58s-5.05,.43-6.35,2.58c-.9,1.48-2.84,1.88-4.33,1-3.22-1.9-8.51-3.55-14.43-.8-2.34,1.09-4.25,2.98-5.4,5.29-5.96,11.95,5.28,23.83,17.2,19.14,2.27-.89,4.2-2.51,5.55-4.54,.95-1.43,1.6-2.84,2.01-4.22,.76-2.59,3.45-4.59,5.76-4.59s4.89,2.03,5.65,4.54c.45,1.51,1.22,3.06,2.37,4.66,1.42,1.95,3.36,3.5,5.63,4.31,11.72,4.22,22.57-7.43,16.81-19.19-1.14-2.33-3.06-4.24-5.4-5.35Z" fill="none" stroke="#333" stroke-miterlimit="10" stroke-width="4"/></g><g><path d="M53.47,93.16h1c1.38,0,2.5,1.12,2.5,2.5v11.13h-6v-11.13c0-1.38,1.12-2.5,2.5-2.5Z" fill="#00e3e3"/><path d="M53.47,93.16h1c1.38,0,2.5,1.12,2.5,2.5v11.13h-6v-11.13c0-1.38,1.12-2.5,2.5-2.5Z" fill="none" stroke="#333" stroke-miterlimit="10" stroke-width="4"/></g><g><path d="M19.49,38.36c0,3.07,.18,6.62,1.55,9.73,1.97,4.5,5.88,7.91,10.99,7.91,5.89,0,13.92-4.42,18.41-9.58,1.8-2.06,5.05-2.08,6.86-.03,4.56,5.17,12.72,9.6,18.61,9.6,5.11,0,9.02-3.41,10.99-7.91,1.36-3.11,1.55-6.67,1.55-9.73H19.49Z" fill="url(#radial-gradient-2)"/><path d="M19.49,38.36c0,3.07,.18,6.62,1.55,9.73,1.97,4.5,5.88,7.91,10.99,7.91,5.89,0,13.92-4.42,18.41-9.58,1.8-2.06,5.05-2.08,6.86-.03,4.56,5.17,12.72,9.6,18.61,9.6,5.11,0,9.02-3.41,10.99-7.91,1.36-3.11,1.55-6.67,1.55-9.73H19.49Z" fill="none" stroke="#333" stroke-miterlimit="10" stroke-width="4"/></g><g><path d="M78.67,42.36c-.53,4.08-1.92,4.08-2.75,4.08-2.14,0-5.43-1.34-8.18-3.35-.34-.25-.65-.49-.94-.73h11.87m4.22-4h-23.22c0,5.13,9.84,12.08,16.26,12.08s6.97-6.95,6.97-12.08h0Z" fill="#d3a4d3"/><path d="M59.66,38.36c0,5.13,9.84,12.08,16.26,12.08s6.97-6.95,6.97-12.08h-23.22Z" fill="none" stroke="#333" stroke-miterlimit="10" stroke-width="4"/></g><g><path d="M41.15,42.36c-.29,.24-.6,.48-.94,.73-2.75,2-6.03,3.35-8.18,3.35-.83,0-2.22,0-2.75-4.08h11.87m7.14-4H25.06c0,5.13,.55,12.08,6.97,12.08s16.26-6.95,16.26-12.08h0Z" fill="#d3a4d3"/><path d="M48.29,38.36c0,5.13-9.84,12.08-16.26,12.08s-6.97-6.95-6.97-12.08c5.07,0,16.37,0,23.22,0Z" fill="none" stroke="#333" stroke-miterlimit="10" stroke-width="4"/></g><g><path d="M72.61,107.47c-2.74,0-4.97-2.23-4.97-4.97s2.23-4.97,4.97-4.97,4.97,2.23,4.97,4.97-2.23,4.97-4.97,4.97Z" fill="#00e3e3"/><path d="M72.61,99.54c1.64,0,2.97,1.33,2.97,2.97s-1.33,2.97-2.97,2.97-2.97-1.33-2.97-2.97,1.33-2.97,2.97-2.97m0-4c-3.85,0-6.97,3.12-6.97,6.97s3.12,6.97,6.97,6.97,6.97-3.12,6.97-6.97-3.12-6.97-6.97-6.97h0Z" fill="#d3a4d3"/><circle cx="72.61" cy="102.51" r="6.97" fill="none" stroke="#333" stroke-miterlimit="10" stroke-width="4"/></g><g><path d="M35.34,107.47c-2.74,0-4.97-2.23-4.97-4.97s2.23-4.97,4.97-4.97,4.97,2.23,4.97,4.97-2.23,4.97-4.97,4.97Z" fill="#00e3e3"/><path d="M35.34,99.54c1.64,0,2.97,1.33,2.97,2.97s-1.33,2.97-2.97,2.97-2.97-1.33-2.97-2.97,1.33-2.97,2.97-2.97m0-4c-3.85,0-6.97,3.12-6.97,6.97s3.12,6.97,6.97,6.97,6.97-3.12,6.97-6.97-3.12-6.97-6.97-6.97h0Z" fill="#d3a4d3"/><circle cx="35.34" cy="102.51" r="6.97" fill="none" stroke="#333" stroke-miterlimit="10" stroke-width="4"/></g><path d="M16.81,66.72c-1.55,1.95-2.94,4.03-4.17,6.21" fill="none" stroke="#333" stroke-linecap="round" stroke-linejoin="round" stroke-width="4"/><path d="M95.31,72.94c-1.23-2.18-2.62-4.26-4.17-6.21" fill="none" stroke="#333" stroke-linecap="round" stroke-linejoin="round" stroke-width="4"/><path d="M18.71,73.62c-1.31,2.06-2.44,4.25-3.39,6.53" fill="none" stroke="#333" stroke-linecap="round" stroke-linejoin="round" stroke-width="4"/><path d="M92.63,80.15c-.95-2.29-2.08-4.47-3.39-6.53" fill="none" stroke="#333" stroke-linecap="round" stroke-linejoin="round" stroke-width="4"/><g><path d="M91.06,32.14H16.89c-.55,0-1,.45-1,1v5.22H92.06v-5.22c0-.55-.45-1-1-1h0Z" fill="#d3a4d3"/><path d="M92.06,38.36H15.89v-5.22c0-.55,.45-1,1-1H91.06c.55,0,1,.45,1,1v5.22Z" fill="none" stroke="#333" stroke-miterlimit="10" stroke-width="4"/></g></g></g></g></svg>