<?xml version="1.0" encoding="UTF-8"?><svg id="Layer_2" xmlns="http://www.w3.org/2000/svg" xmlns:xlink="http://www.w3.org/1999/xlink" viewBox="0 0 113.64 112.64"><defs><linearGradient id="linear-gradient" x1="40.11" y1="37.26" x2="110.64" y2="37.26" gradientUnits="userSpaceOnUse"><stop offset="0" stop-color="#b567b5"/><stop offset="1" stop-color="#6ee"/></linearGradient><linearGradient id="linear-gradient-2" x1="17.49" y1="83.49" x2="40.82" y2="83.49" gradientTransform="translate(67.57 3.84) rotate(45)" gradientUnits="userSpaceOnUse"><stop offset="0" stop-color="#c486c4"/><stop offset=".1" stop-color="#b98bc5"/><stop offset=".29" stop-color="#9d98ca"/><stop offset=".52" stop-color="#6faed1"/><stop offset=".8" stop-color="#30ccdb"/><stop offset="1" stop-color="#00e3e3"/></linearGradient><linearGradient id="linear-gradient-3" x1="3" y1="37.26" x2="73.52" y2="37.26" gradientTransform="matrix(1, 0, 0, 1, 0, 0)" xlink:href="#linear-gradient-2"/><linearGradient id="linear-gradient-4" x1="72.82" y1="83.49" x2="96.15" y2="83.49" gradientTransform="translate(83.78 -35.29) rotate(45)" gradientUnits="userSpaceOnUse"><stop offset="0" stop-color="#6ee"/><stop offset="1" stop-color="#b567b5"/></linearGradient></defs><g id="icons"><g id="set"><g id="sword"><g id="Layer_61"><path d="M40.11,65.45l7.07,7.07L109.48,8.87c1.55-1.58,1.54-4.12-.03-5.69h0c-1.57-1.57-4.1-1.58-5.69-.03l-63.65,62.3Z" fill="url(#linear-gradient)" stroke="#6ee" stroke-linecap="round" stroke-linejoin="round" stroke-width="4"/><rect x="7.12" y="98.52" width="8" height="6" transform="translate(-52.8 181.16) rotate(-135)" fill="#d3a4d3" stroke="#333" stroke-linejoin="round" stroke-width="4"/><g><rect x="16.65" y="79.49" width="25" height="8" transform="translate(-50.49 45.07) rotate(-45)" fill="url(#linear-gradient-2)"/><path d="M35.16,74.65l2.83,2.83-14.85,14.85-2.83-2.83,14.85-14.85m0-5.66l-20.51,20.51,8.49,8.49,20.51-20.51-8.49-8.49h0Z" fill="#d3a4d3"/><rect x="14.65" y="77.49" width="29" height="12" transform="translate(-50.49 45.07) rotate(-45)" fill="none" stroke="#333" stroke-miterlimit="10" stroke-width="4"/></g><rect x="32.53" y="68.11" width="18" height="6" transform="translate(20.61 150.76) rotate(-135)" fill="#00e3e3" stroke="#333" stroke-linejoin="round" stroke-width="4"/><rect x="7.07" y="92.57" width="18" height="8" transform="translate(-40.85 176.21) rotate(-135)" fill="#00e3e3" stroke="#333" stroke-linejoin="round" stroke-width="4"/><path d="M5.17,102.76h3.42c2.92,0,5.29,2.37,5.29,5.29v.71H-.12v-.71c0-2.92,2.37-5.29,5.29-5.29Z" transform="translate(-63.04 185.41) rotate(-135)" fill="#00e3e3" stroke="#333" stroke-linejoin="round" stroke-width="4"/><line x1="27.39" y1="93.74" x2="18.9" y2="85.25" fill="none" stroke="#333" stroke-linejoin="round" stroke-width="4"/><line x1="31.63" y1="89.5" x2="23.14" y2="81.01" fill="none" stroke="#333" stroke-linejoin="round" stroke-width="4"/></g><g id="Layer_62"><path d="M73.52,65.45l-7.07,7.07L4.15,8.87c-1.55-1.58-1.54-4.12,.03-5.69h0c1.57-1.57,4.1-1.58,5.69-.03l63.65,62.3Z" fill="url(#linear-gradient-3)" stroke="#c486c4" stroke-linejoin="round" stroke-width="4"/><rect x="98.52" y="98.52" width="8" height="6" transform="translate(-41.76 102.22) rotate(-45)" fill="#00e3e3" stroke="#333" stroke-linejoin="round" stroke-width="4"/><g><rect x="80.49" y="70.99" width="8" height="25" transform="translate(-34.29 84.19) rotate(-45)" fill="url(#linear-gradient-4)"/><path d="M78.47,74.65l14.85,14.85-2.83,2.83-14.85-14.85,2.83-2.83m0-5.66l-8.49,8.49,20.51,20.51,8.49-8.49-20.51-20.51h0Z" fill="#b2f7f7"/><rect x="78.49" y="68.99" width="12" height="29" transform="translate(-34.29 84.19) rotate(-45)" fill="none" stroke="#333" stroke-linecap="round" stroke-linejoin="round" stroke-width="4"/></g><rect x="63.11" y="68.11" width="18" height="6" transform="translate(-29.16 71.82) rotate(-45)" fill="#d3a4d3" stroke="#333" stroke-linejoin="round" stroke-width="4"/><rect x="88.57" y="92.57" width="18" height="8" transform="translate(-39.71 97.27) rotate(-45)" fill="#d3a4d3" stroke="#333" stroke-linejoin="round" stroke-width="4"/><path d="M99.76,102.76h14v.71c0,2.92-2.37,5.29-5.29,5.29h-3.42c-2.92,0-5.29-2.37-5.29-5.29v-.71h0Z" transform="translate(-43.51 106.47) rotate(-45)" fill="#d3a4d3" stroke="#333" stroke-linejoin="round" stroke-width="4"/><line x1="86.25" y1="93.74" x2="94.74" y2="85.25" fill="none" stroke="#333" stroke-linejoin="round" stroke-width="4"/><line x1="82.01" y1="89.5" x2="90.5" y2="81.01" fill="none" stroke="#333" stroke-linejoin="round" stroke-width="4"/></g></g></g></g></svg>