<?xml version="1.0" encoding="UTF-8"?><svg id="Layer_2" xmlns="http://www.w3.org/2000/svg" xmlns:xlink="http://www.w3.org/1999/xlink" viewBox="0 0 110 110"><defs><linearGradient id="linear-gradient" x1="76.02" y1="55" x2="105.98" y2="55" gradientUnits="userSpaceOnUse"><stop offset="0" stop-color="#b567b5"/><stop offset="1" stop-color="#6ee"/></linearGradient><linearGradient id="linear-gradient-2" x1="4.02" y1="55" x2="33.98" y2="55" gradientUnits="userSpaceOnUse"><stop offset="0" stop-color="#6ee"/><stop offset="1" stop-color="#b567b5"/></linearGradient><linearGradient id="New_Gradient_Swatch_2" x1="25" y1="54.98" x2="85" y2="54.98" gradientUnits="userSpaceOnUse"><stop offset="0" stop-color="#00e3e3"/><stop offset=".2" stop-color="#30ccdb"/><stop offset=".48" stop-color="#6faed1"/><stop offset=".71" stop-color="#9d98ca"/><stop offset=".9" stop-color="#b98bc5"/><stop offset="1" stop-color="#c486c4"/></linearGradient></defs><g id="icons"><g id="set"><g id="TIE_LN"><g><polygon points="83.92 106 76.02 55 83.92 4 98.09 4 105.98 55 98.09 106 83.92 106" fill="url(#linear-gradient)"/><path d="M96.38,6l7.57,49-7.57,49h-10.75l-7.58-49,7.58-49h10.75m3.43-4h-17.61l-8.2,53,8.2,53h17.61l8.19-53L99.81,2h0Z" fill="#b2f7f7"/><polygon points="82.2 108 74 55 82.2 2 99.81 2 108 55 99.81 108 82.2 108" fill="none" stroke="#333" stroke-linecap="round" stroke-linejoin="round" stroke-width="4"/></g><line x1="99.81" y1="1.98" x2="82.21" y2="107.98" fill="none" stroke="#333" stroke-linejoin="round" stroke-width="4"/><line x1="82.21" y1="1.98" x2="99.81" y2="107.98" fill="none" stroke="#333" stroke-linejoin="round" stroke-width="4"/><line x1="108" y1="55" x2="74" y2="55" fill="none" stroke="#333" stroke-linejoin="round" stroke-width="4"/><polygon points="89.25 65 84.61 55 89.25 45 92.76 45 97.41 55 92.76 65 89.25 65" fill="#b567b5" stroke="#333" stroke-linejoin="round" stroke-width="4"/><g><polygon points="11.91 106 4.02 55 11.91 4 26.08 4 33.98 55 26.08 106 11.91 106" fill="url(#linear-gradient-2)"/><path d="M24.37,6l7.58,49-7.58,49H13.62L6.05,55,13.62,6h10.75m3.43-4H10.19L2,55l8.19,53H27.8l8.2-53L27.8,2h0Z" fill="#b2f7f7"/><polygon points="27.8 108 36 55 27.8 2 10.19 2 2 55 10.19 108 27.8 108" fill="none" stroke="#333" stroke-linecap="round" stroke-linejoin="round" stroke-width="4"/></g><line x1="10.19" y1="1.98" x2="27.79" y2="107.98" fill="none" stroke="#333" stroke-linejoin="round" stroke-width="4"/><line x1="27.79" y1="1.98" x2="10.19" y2="107.98" fill="none" stroke="#333" stroke-linejoin="round" stroke-width="4"/><line x1="2" y1="55" x2="36" y2="55" fill="none" stroke="#333" stroke-linejoin="round" stroke-width="4"/><polygon points="20.75 65 25.39 55 20.75 45 17.24 45 12.59 55 17.24 65 20.75 65" fill="#b567b5" stroke="#333" stroke-linejoin="round" stroke-width="4"/><polygon points="85 58 65.12 69.93 44.94 69.96 25 58 25 52 45.02 39.99 65.03 40.02 85 52 85 58" fill="url(#New_Gradient_Swatch_2)" stroke="#333" stroke-linejoin="round" stroke-width="4"/><rect x="19" y="52" width="72" height="6" rx="3" ry="3" fill="#00e3e3" stroke="#333" stroke-linejoin="round" stroke-width="4"/><g><circle cx="55.01" cy="55" r="18" fill="#00e3e3"/><circle cx="55.01" cy="55" r="18" fill="none" stroke="#333" stroke-linecap="round" stroke-linejoin="round" stroke-width="4"/></g><circle cx="55" cy="55" r="11" fill="#c486c4" stroke="#333" stroke-linejoin="round" stroke-width="4"/><line x1="49.5" y1="45.47" x2="60.5" y2="64.53" fill="none" stroke="#333" stroke-linejoin="round" stroke-width="4"/><line x1="60.5" y1="45.47" x2="49.5" y2="64.53" fill="none" stroke="#333" stroke-linejoin="round" stroke-width="4"/><line x1="44" y1="55" x2="66" y2="55" fill="none" stroke="#333" stroke-linejoin="round" stroke-width="4"/><polygon points="49.23 55 52.11 50 57.89 50 60.77 55 57.89 60 52.11 60 49.23 55" fill="#b2f7f7" stroke="#333" stroke-linejoin="round" stroke-width="4"/></g></g></g></svg>