<?xml version="1.0" encoding="UTF-8"?><svg id="Layer_2" xmlns="http://www.w3.org/2000/svg" xmlns:xlink="http://www.w3.org/1999/xlink" viewBox="0 0 150 93"><defs><linearGradient id="linear-gradient" x1="32.06" y1="71.75" x2="117.94" y2="71.75" gradientUnits="userSpaceOnUse"><stop offset="0" stop-color="#c486c4"/><stop offset=".1" stop-color="#b98bc5"/><stop offset=".29" stop-color="#9d98ca"/><stop offset=".52" stop-color="#6faed1"/><stop offset=".8" stop-color="#30ccdb"/><stop offset="1" stop-color="#00e3e3"/></linearGradient><linearGradient id="linear-gradient-2" x1="58" y1="69.5" x2="92" y2="69.5" xlink:href="#linear-gradient"/><linearGradient id="linear-gradient-3" x1="6.67" y1="37.5" x2="40" y2="37.5" xlink:href="#linear-gradient"/><linearGradient id="New_Gradient_Swatch_2" x1="110" y1="37.5" x2="143.17" y2="37.5" gradientUnits="userSpaceOnUse"><stop offset="0" stop-color="#00e3e3"/><stop offset=".2" stop-color="#30ccdb"/><stop offset=".48" stop-color="#6faed1"/><stop offset=".71" stop-color="#9d98ca"/><stop offset=".9" stop-color="#b98bc5"/><stop offset="1" stop-color="#c486c4"/></linearGradient><linearGradient id="linear-gradient-4" x1="42" y1="37" x2="108" y2="37" gradientUnits="userSpaceOnUse"><stop offset="0" stop-color="#99f4f4"/><stop offset="1" stop-color="#c486c4"/></linearGradient><linearGradient id="linear-gradient-5" x1="42" y1="45.5" x2="108" y2="45.5" gradientUnits="userSpaceOnUse"><stop offset="0" stop-color="#80f1f1"/><stop offset="1" stop-color="#c486c4"/></linearGradient><linearGradient id="linear-gradient-6" x1="46.4" y1="14.51" x2="103.6" y2="14.51" gradientUnits="userSpaceOnUse"><stop offset="0" stop-color="#c486c4"/><stop offset="1" stop-color="#80f1f1"/></linearGradient></defs><g id="icons"><g id="set"><g id="Yoda"><g><path d="M32.06,89c1.23-19.2,20.02-34.5,42.94-34.5s41.71,15.3,42.94,34.5H32.06Z" fill="url(#linear-gradient)"/><path d="M75,56.5c21,0,38.36,13.35,40.73,30.5H34.27c2.36-17.14,19.73-30.5,40.73-30.5m0-4c-24.85,0-45,17.24-45,38.5H120c0-21.26-20.15-38.5-45-38.5h0Z" fill="#b2f7f7"/><path d="M120,91H30c0-21.26,20.15-38.5,45-38.5s45,17.24,45,38.5Z" fill="none" stroke="#333" stroke-linejoin="round" stroke-width="4"/></g><g><rect x="58" y="59" width="34" height="21" fill="url(#linear-gradient-2)"/><path d="M90,61v17h-30v-17h30m4-4H56v25h38v-25h0Z" fill="#d3a4d3"/><rect x="56" y="57" width="38" height="25" fill="none" stroke="#333" stroke-linejoin="round" stroke-width="4"/></g><g><path d="M40,46.01c-10.89,0-21.45-4.53-28.96-12.42l-4.37-4.59H40v17.01Z" fill="url(#linear-gradient-3)"/><path d="M38,31v12.95c-9.63-.52-18.84-4.73-25.51-11.74l-1.15-1.21h26.67m4-4H2l7.59,7.97c7.93,8.32,18.92,13.04,30.41,13.04h2V27h0Z" fill="#d3a4d3"/><path d="M40,48.01h2V27H2l7.59,7.97c7.93,8.32,18.92,13.04,30.41,13.04Z" fill="none" stroke="#333" stroke-linejoin="round" stroke-width="4"/></g><g><path d="M110,29h33.17l-5.57,5.57c-7.37,7.38-17.18,11.44-27.6,11.44V29Z" fill="url(#New_Gradient_Swatch_2)"/><path d="M138.35,31l-2.16,2.16c-6.52,6.52-15.05,10.31-24.19,10.8v-12.96h26.35m9.65-4h-40v21.01h2c10.88,0,21.32-4.32,29.02-12.02l8.98-8.98h0Z" fill="#d3a4d3"/><path d="M108,48.01h2c10.88,0,21.32-4.32,29.02-12.02l8.98-8.98h-40v21.01Z" fill="none" stroke="#333" stroke-linejoin="round" stroke-width="4"/></g><g><circle cx="75" cy="37" r="33" fill="url(#linear-gradient-4)"/><path d="M75,6c17.09,0,31,13.91,31,31s-13.91,31-31,31-31-13.91-31-31S57.91,6,75,6m0-4c-19.33,0-35,15.67-35,35s15.67,35,35,35,35-15.67,35-35S94.33,2,75,2h0Z" fill="#b2f7f7"/><circle cx="75" cy="37" r="35" fill="none" stroke="#333" stroke-linecap="round" stroke-linejoin="round" stroke-width="4"/></g><g><path d="M75,70c-18.2,0-33-14.8-33-33,0-.28,0-.56,0-.84,0-.25,.02-.5,.04-.75,0-.05,0-.1,0-.14,.59-7.96,7.38-14.26,15.45-14.26,4.51,0,8.78,1.95,11.72,5.36,1.47,1.69,3.57,2.65,5.78,2.65s4.32-.96,5.78-2.65c2.94-3.41,7.21-5.36,11.72-5.36,8.05,0,14.83,6.27,15.45,14.28,0,.05,0,.1,0,.12,.02,.25,.03,.5,.04,.76,0,.27,0,.55,0,.83,0,18.2-14.8,33-33,33Z" fill="url(#linear-gradient-5)"/><path d="M92.5,23.01c6.99,0,12.87,5.42,13.45,12.36,0,.06,0,.13,0,.19,.02,.22,.02,.45,.03,.67,0,.26,0,.51,0,.77,0,17.09-13.91,31-31,31s-31-13.91-31-31c0-.26,0-.51,0-.76,0-.23,.02-.46,.03-.68,0-.06,0-.13,0-.19,.58-6.94,6.46-12.36,13.45-12.36,3.93,0,7.65,1.7,10.21,4.68,1.84,2.12,4.5,3.33,7.29,3.33s5.45-1.21,7.3-3.34c2.56-2.96,6.27-4.66,10.2-4.66m0-4c-5.29,0-10.03,2.34-13.23,6.05-1.14,1.3-2.7,1.96-4.27,1.96s-3.14-.65-4.27-1.96c-3.2-3.71-7.94-6.05-13.23-6.05-9.22,0-16.78,7.13-17.45,16.19v.07c-.02,.27-.03,.55-.04,.83-.01,.3-.01,.6-.01,.9,0,19.33,15.67,35,35,35s35-15.67,35-35c0-.3,0-.6-.01-.9-.01-.28-.02-.56-.04-.83v-.07c-.67-9.06-8.23-16.19-17.45-16.19h0Z" fill="#6ee"/><path d="M110,37c0,19.33-15.67,35-35,35s-35-15.67-35-35c0-.3,0-.6,.01-.9,.01-.28,.02-.56,.04-.83v-.07c.67-9.06,8.23-16.19,17.45-16.19,5.29,0,10.03,2.34,13.23,6.05,2.27,2.61,6.27,2.61,8.54,0,3.2-3.71,7.94-6.05,13.23-6.05,9.22,0,16.78,7.13,17.45,16.19v.07c.02,.27,.03,.55,.04,.83,.01,.3,.01,.6,.01,.9Z" fill="none" stroke="#333" stroke-linecap="round" stroke-linejoin="round" stroke-width="4"/></g><g><path d="M75,25.02c-1.07,0-2.05-.45-2.76-1.27-3.69-4.28-9.07-6.74-14.74-6.74-4.1,0-7.94,1.29-11.1,3.5,5.71-9.9,16.41-16.51,28.6-16.51s22.89,6.61,28.6,16.51c-3.17-2.21-7-3.5-11.1-3.5-5.67,0-11.05,2.46-14.75,6.74-.71,.81-1.69,1.26-2.75,1.26Z" fill="url(#linear-gradient-6)"/><path d="M75,6c8.81,0,16.78,3.67,22.44,9.59-1.59-.38-3.24-.58-4.94-.58-6.26,0-12.18,2.71-16.25,7.42-.44,.51-.97,.58-1.25,.58s-.81-.08-1.24-.57c-4.08-4.73-10-7.44-16.26-7.44-1.69,0-3.35,.2-4.94,.58,5.65-5.92,13.63-9.59,22.44-9.59m0-4c-18.73,0-34.02,14.71-34.95,33.2,.67-9.06,8.23-16.19,17.45-16.19,5.29,0,10.03,2.34,13.23,6.05,1.14,1.3,2.7,1.96,4.27,1.96s3.14-.65,4.27-1.96c3.2-3.71,7.94-6.05,13.23-6.05,9.22,0,16.78,7.13,17.45,16.19-.93-18.49-16.22-33.2-34.95-33.2h0Z" fill="#6ee"/><path d="M109.95,35.2c-.67-9.06-8.23-16.19-17.45-16.19-5.29,0-10.03,2.34-13.23,6.05-2.27,2.61-6.27,2.61-8.54,0-3.2-3.71-7.94-6.05-13.23-6.05-9.22,0-16.78,7.13-17.45,16.19C40.98,16.71,56.27,2,75,2s34.02,14.71,34.95,33.2Z" fill="none" stroke="#333" stroke-linecap="round" stroke-linejoin="round" stroke-width="4"/></g><circle cx="92.5" cy="36.51" r="11.5" fill="none" stroke="#333" stroke-linecap="round" stroke-linejoin="round" stroke-width="4"/><circle cx="92.5" cy="36.51" r="4.5" fill="#00e3e3" stroke="#333" stroke-linecap="round" stroke-linejoin="round" stroke-width="4"/><circle cx="57.5" cy="36.51" r="11.5" fill="none" stroke="#333" stroke-linecap="round" stroke-linejoin="round" stroke-width="4"/><circle cx="57.5" cy="36.51" r="4.5" fill="#00e3e3" stroke="#333" stroke-linecap="round" stroke-linejoin="round" stroke-width="4"/><line x1="47" y1="32" x2="68" y2="32" fill="none" stroke="#333" stroke-linecap="round" stroke-linejoin="round" stroke-width="4"/><line x1="47" y1="41" x2="68" y2="41" fill="none" stroke="#333" stroke-linecap="round" stroke-linejoin="round" stroke-width="4"/><line x1="82" y1="32" x2="103" y2="32" fill="none" stroke="#333" stroke-linecap="round" stroke-linejoin="round" stroke-width="4"/><line x1="82" y1="41" x2="103" y2="41" fill="none" stroke="#333" stroke-linecap="round" stroke-linejoin="round" stroke-width="4"/><line x1="61" y1="60" x2="89" y2="60" fill="none" stroke="#333" stroke-linecap="round" stroke-linejoin="round" stroke-width="4"/><line x1="73" y1="32" x2="77" y2="32" fill="none" stroke="#333" stroke-linecap="round" stroke-linejoin="round" stroke-width="4"/><line x1="67.89" y1="42.12" x2="61.01" y2="59.99" fill="none" stroke="#333" stroke-linecap="round" stroke-linejoin="round" stroke-width="4"/><line x1="82.1" y1="42.06" x2="88.99" y2="59.99" fill="none" stroke="#333" stroke-linecap="round" stroke-linejoin="round" stroke-width="4"/><g><circle cx="75" cy="44.5" r="5.5" fill="#00e3e3"/><path d="M75,41c1.93,0,3.5,1.57,3.5,3.5s-1.57,3.5-3.5,3.5-3.5-1.57-3.5-3.5,1.57-3.5,3.5-3.5m0-4c-4.14,0-7.5,3.36-7.5,7.5s3.36,7.5,7.5,7.5,7.5-3.36,7.5-7.5-3.36-7.5-7.5-7.5h0Z" fill="#d3a4d3"/><circle cx="75" cy="44.5" r="7.5" fill="none" stroke="#333" stroke-miterlimit="10" stroke-width="4"/></g><line x1="110" y1="27" x2="119.17" y2="17.83" fill="none" stroke="#333" stroke-linecap="round" stroke-linejoin="round" stroke-width="4"/><line x1="110" y1="27" x2="112.17" y2="14.83" fill="none" stroke="#333" stroke-linecap="round" stroke-linejoin="round" stroke-width="4"/><line x1="40" y1="27" x2="30.83" y2="17.83" fill="none" stroke="#333" stroke-linecap="round" stroke-linejoin="round" stroke-width="4"/><line x1="40" y1="27" x2="37.83" y2="14.83" fill="none" stroke="#333" stroke-linecap="round" stroke-linejoin="round" stroke-width="4"/></g></g></g></svg>