<?xml version="1.0" encoding="UTF-8"?><svg id="Layer_2" xmlns="http://www.w3.org/2000/svg" xmlns:xlink="http://www.w3.org/1999/xlink" viewBox="0 0 166.69 167.01"><defs><style>.cls-1{fill:url(#linear-gradient-2);}.cls-2,.cls-3{fill:#cceef1;}.cls-4,.cls-5,.cls-6,.cls-7,.cls-8,.cls-9,.cls-3{stroke-linejoin:round;stroke-width:4px;}.cls-4,.cls-5,.cls-6,.cls-8,.cls-3{stroke:#2f2f2f;}.cls-4,.cls-5,.cls-7,.cls-8,.cls-3{stroke-linecap:round;}.cls-4,.cls-10{fill:#fff;}.cls-5,.cls-7,.cls-11{fill:none;}.cls-10{font-family:MyriadConceptRoman-Bold, 'Myriad Variable Concept';font-size:9px;font-variation-settings:'wght' 700, 'wdth' 100;}.cls-12{filter:url(#drop-shadow-1);}.cls-6{fill:url(#linear-gradient);}.cls-7{stroke:#d1a4cc;}.cls-11{opacity:.7;stroke:#fff;stroke-miterlimit:10;}.cls-13{fill:#d1a4cc;}.cls-8{fill:url(#New_Gradient_Swatch_2);}.cls-9{fill:url(#New_Gradient_Swatch_2-2);stroke:#333;}.cls-14{fill:url(#linear-gradient-3);}.cls-15{fill:url(#linear-gradient-4);}</style><filter id="drop-shadow-1" filterUnits="userSpaceOnUse"><feOffset dx="0" dy="7.2"/><feGaussianBlur result="blur" stdDeviation="7.2"/><feFlood flood-color="#000" flood-opacity=".75"/><feComposite in2="blur" operator="in"/><feComposite in="SourceGraphic"/></filter><linearGradient id="New_Gradient_Swatch_2" x1="68.77" y1="125.26" x2="97.59" y2="125.26" gradientUnits="userSpaceOnUse"><stop offset="0" stop-color="#56c5cf"/><stop offset=".17" stop-color="#6cb7ca"/><stop offset=".54" stop-color="#9a9cc2"/><stop offset=".83" stop-color="#b68cbc"/><stop offset="1" stop-color="#c186bb"/></linearGradient><linearGradient id="linear-gradient" x1="46.35" y1="86.83" x2="120.01" y2="86.83" gradientUnits="userSpaceOnUse"><stop offset="0" stop-color="#c186bb"/><stop offset=".17" stop-color="#b68cbc"/><stop offset=".46" stop-color="#9a9cc2"/><stop offset=".83" stop-color="#6cb7ca"/><stop offset="1" stop-color="#56c5cf"/></linearGradient><linearGradient id="New_Gradient_Swatch_2-2" x1="51.16" y1="80.01" x2="115.2" y2="80.01" xlink:href="#New_Gradient_Swatch_2"/><linearGradient id="linear-gradient-2" x1="57.96" y1="83.87" x2="108.4" y2="83.87" gradientUnits="userSpaceOnUse"><stop offset="0" stop-color="#9adce2"/><stop offset="1" stop-color="#c186bb"/></linearGradient><linearGradient id="linear-gradient-3" x1="85.18" y1="78.03" x2="102.8" y2="78.03" gradientUnits="userSpaceOnUse"><stop offset="0" stop-color="#56c5cf"/><stop offset=".25" stop-color="#7cbace"/><stop offset=".59" stop-color="#aaaecc"/><stop offset=".85" stop-color="#c6a6cc"/><stop offset="1" stop-color="#d1a4cc"/></linearGradient><linearGradient id="linear-gradient-4" x1="63.56" y1="78.03" x2="81.18" y2="78.03" gradientUnits="userSpaceOnUse"><stop offset="0" stop-color="#d1a4cc"/><stop offset=".15" stop-color="#c6a6cc"/><stop offset=".41" stop-color="#aaaecc"/><stop offset=".75" stop-color="#7cbace"/><stop offset="1" stop-color="#56c5cf"/></linearGradient></defs><g id="Layer_2-2"><path class="cls-12" d="M80.91,1.81c1.34-2.41,3.53-2.41,4.87,0,1.34,2.41,3.76,2.56,5.39,.34,1.63-2.22,3.8-1.95,4.83,.61,1.02,2.56,3.41,3.01,5.31,1.01,1.9-2,4.01-1.46,4.71,1.21,.7,2.67,3.01,3.42,5.14,1.67,2.13-1.75,4.16-.94,4.52,1.79,.36,2.73,2.56,3.77,4.89,2.3,2.33-1.47,4.25-.41,4.26,2.34,.01,2.76,2.07,4.06,4.56,2.9,2.5-1.16,4.27,.12,3.93,2.86-.33,2.74,1.54,4.29,4.17,3.44,2.62-.84,4.22,.66,3.54,3.33-.67,2.67,.99,4.45,3.7,3.94,2.71-.5,4.1,1.18,3.1,3.75-1,2.57,.43,4.53,3.18,4.37,2.75-.16,3.92,1.69,2.61,4.11-1.32,2.42-.15,4.55,2.6,4.74,2.75,.18,3.68,2.17,2.07,4.4-1.61,2.24-.72,4.5,1.99,5.03,2.7,.53,3.38,2.61,1.5,4.63-1.88,2.02-1.27,4.37,1.34,5.23,2.62,.86,3.03,3.01,.91,4.78-2.12,1.77-1.81,4.18,.68,5.36,2.49,1.18,2.63,3.37,.31,4.85-2.32,1.49-2.32,3.92,0,5.41,2.32,1.49,2.18,3.67-.31,4.85-2.49,1.18-2.79,3.6-.68,5.36,2.12,1.77,1.71,3.91-.91,4.78-2.62,.86-3.22,3.22-1.34,5.23,1.88,2.02,1.2,4.1-1.5,4.63-2.7,.53-3.6,2.79-1.99,5.03,1.61,2.24,.68,4.22-2.07,4.4-2.75,.18-3.92,2.32-2.6,4.74,1.32,2.42,.14,4.27-2.61,4.11-2.75-.16-4.18,1.81-3.18,4.37,1,2.57-.39,4.25-3.1,3.75-2.71-.51-4.37,1.27-3.7,3.94,.67,2.67-.92,4.17-3.54,3.33-2.62-.84-4.5,.71-4.17,3.44,.33,2.74-1.44,4.02-3.93,2.86-2.5-1.16-4.55,.14-4.56,2.9-.01,2.76-1.93,3.81-4.26,2.34-2.33-1.47-4.53-.43-4.89,2.3-.36,2.73-2.39,3.54-4.52,1.79-2.13-1.75-4.45-1-5.14,1.67-.7,2.67-2.81,3.21-4.71,1.21-1.9-2-4.28-1.54-5.31,1.01-1.03,2.56-3.2,2.83-4.83,.61-1.63-2.22-4.06-2.07-5.39,.34-1.34,2.41-3.53,2.41-4.87,0-1.34-2.41-3.77-2.56-5.39-.34-1.63,2.22-3.8,1.95-4.83-.61-1.02-2.56-3.41-3.01-5.31-1.01-1.89,2-4.01,1.46-4.71-1.21-.7-2.67-3.01-3.42-5.14-1.67-2.13,1.75-4.16,.94-4.52-1.79-.36-2.73-2.56-3.77-4.89-2.3-2.33,1.47-4.25,.41-4.26-2.34-.01-2.76-2.06-4.06-4.56-2.9-2.5,1.16-4.27-.12-3.94-2.86,.33-2.74-1.54-4.29-4.17-3.44-2.62,.84-4.22-.66-3.55-3.33,.67-2.67-.99-4.45-3.7-3.94-2.71,.5-4.1-1.18-3.1-3.75,1-2.57-.43-4.53-3.18-4.37-2.75,.16-3.92-1.69-2.61-4.11,1.32-2.42,.15-4.55-2.6-4.74-2.75-.18-3.68-2.16-2.07-4.4,1.61-2.24,.72-4.5-1.99-5.03-2.71-.53-3.38-2.61-1.5-4.63,1.88-2.02,1.27-4.37-1.35-5.23-2.62-.86-3.03-3.01-.91-4.78,2.12-1.77,1.81-4.18-.68-5.36-2.49-1.18-2.62-3.37-.31-4.85,2.32-1.49,2.32-3.92,0-5.41-2.32-1.49-2.18-3.67,.31-4.85,2.49-1.18,2.79-3.6,.68-5.36-2.12-1.77-1.71-3.91,.91-4.78,2.62-.86,3.22-3.22,1.35-5.23-1.88-2.02-1.2-4.1,1.5-4.63,2.71-.53,3.6-2.79,1.99-5.03-1.61-2.24-.68-4.22,2.07-4.4,2.75-.18,3.92-2.32,2.6-4.74-1.32-2.42-.14-4.27,2.61-4.11,2.75,.16,4.18-1.81,3.18-4.37-1-2.57,.39-4.25,3.1-3.75,2.71,.51,4.37-1.27,3.7-3.94-.67-2.67,.92-4.17,3.55-3.33,2.63,.84,4.5-.71,4.17-3.45-.33-2.74,1.44-4.02,3.94-2.86,2.5,1.16,4.55-.14,4.56-2.9,.01-2.76,1.93-3.81,4.26-2.34,2.33,1.47,4.53,.43,4.89-2.3,.36-2.73,2.39-3.54,4.52-1.79,2.13,1.75,4.44,1,5.14-1.67,.7-2.67,2.82-3.21,4.71-1.21,1.9,2,4.28,1.54,5.31-1.01,1.03-2.56,3.2-2.83,4.83-.61,1.63,2.22,4.06,2.07,5.39-.34Z"/></g><g id="icons"><polyline class="cls-8" points="68.77 118.46 68.77 132.07 97.59 132.07 97.59 118.46"/><path class="cls-6" d="M120.01,80.66c0,5.34-.75,10.58-2.15,15.38H48.5c-1.4-4.8-2.15-10.04-2.15-15.38,0-1.03,.03-2.23,.09-3.03H119.91c.06,.8,.09,1.99,.09,3.03Z"/><path class="cls-9" d="M67.16,48.15c3.54-2.18,6.76-4.92,9.04-8.4,1.3-1.99,3.52-3.75,6.99-3.75,3.47,0,5.69,1.76,6.99,3.75,2.28,3.49,5.5,6.23,9.04,8.4,9.91,6.1,16,18.04,16,32.68,0,23.04-14.85,43.2-32.02,43.2s-32.02-20.16-32.02-43.2c0-14.64,6.08-26.58,16-32.68Z"/><g><path class="cls-1" d="M83.18,117.4c-13.43,0-25.22-17.09-25.22-36.57,0-17.66,10.61-30.48,25.22-30.48s25.22,12.82,25.22,30.48c0,19.48-11.79,36.57-25.22,36.57Z"/><path class="cls-2" d="M83.18,52.35c13.67,0,23.22,11.71,23.22,28.48,0,8.79-2.62,17.68-7.2,24.39-4.47,6.56-10.16,10.18-16.02,10.18s-11.55-3.61-16.02-10.18c-4.57-6.71-7.2-15.6-7.2-24.39,0-16.77,9.55-28.48,23.22-28.48m0-4c-15.25,0-27.22,12.86-27.22,32.48s11.97,38.57,27.22,38.57,27.22-18.95,27.22-38.57-11.97-32.48-27.22-32.48h0Z"/><path class="cls-5" d="M110.4,80.83c0,19.62-11.97,38.57-27.22,38.57s-27.22-18.95-27.22-38.57,11.97-32.48,27.22-32.48,27.22,12.86,27.22,32.48Z"/></g><path class="cls-7" d="M63.16,77.7c0,20.26,9.91,40.16,20.01,40.16s20.01-19.89,20.01-40.16"/><line class="cls-5" x1="83.18" y1="78.43" x2="83.18" y2="119.26"/><g><path class="cls-14" d="M93.99,87.64c-4.86,0-8.81-4.31-8.81-9.61s3.95-9.61,8.81-9.61,8.81,4.31,8.81,9.61-3.95,9.61-8.81,9.61Z"/><path class="cls-13" d="M93.99,70.42c3.75,0,6.81,3.41,6.81,7.61s-3.05,7.61-6.81,7.61-6.81-3.41-6.81-7.61,3.05-7.61,6.81-7.61m0-4c-5.97,0-10.81,5.2-10.81,11.61s4.84,11.61,10.81,11.61,10.81-5.2,10.81-11.61-4.84-11.61-10.81-11.61h0Z"/><ellipse class="cls-5" cx="93.99" cy="78.03" rx="10.81" ry="11.61"/></g><g><path class="cls-15" d="M72.37,87.64c-4.86,0-8.81-4.31-8.81-9.61s3.95-9.61,8.81-9.61,8.81,4.31,8.81,9.61-3.95,9.61-8.81,9.61Z"/><path class="cls-13" d="M72.37,70.42c3.75,0,6.81,3.41,6.81,7.61s-3.05,7.61-6.81,7.61-6.81-3.41-6.81-7.61,3.05-7.61,6.81-7.61m0-4c-5.97,0-10.81,5.2-10.81,11.61s4.84,11.61,10.81,11.61,10.81-5.2,10.81-11.61-4.84-11.61-10.81-11.61h0Z"/><ellipse class="cls-5" cx="72.37" cy="78.03" rx="10.81" ry="11.61"/></g><circle class="cls-4" cx="93.99" cy="78.03" r="3.6"/><line class="cls-5" x1="87.81" y1="96.33" x2="83.18" y2="91.69"/><path class="cls-5" d="M61.56,77.7c0,19.59,9.68,41.7,21.62,41.7,11.94,0,21.62-22.11,21.62-41.7"/><circle class="cls-4" cx="72.37" cy="78.03" r="3.6"/><line class="cls-5" x1="78.55" y1="96.33" x2="83.18" y2="91.69"/><ellipse class="cls-3" cx="83.18" cy="44.49" rx="3.84" ry="3.86"/><line class="cls-5" x1="79.18" y1="104.85" x2="87.18" y2="104.85"/></g><g id="text"><text class="cls-10" transform="translate(118.65 30.28) rotate(35.98)"><tspan x="0" y="0">C</tspan></text><text class="cls-10" transform="translate(122.89 33.36) rotate(40.51)"><tspan x="0" y="0">3</tspan></text><text class="cls-10" transform="translate(126.58 36.51) rotate(44.96)"><tspan x="0" y="0">P</tspan></text><text class="cls-10" transform="translate(130.12 40.08) rotate(48.42)"><tspan x="0" y="0">-</tspan></text><text class="cls-10" transform="translate(132 42.15) rotate(51.86)"><tspan x="0" y="0">0</tspan></text><text class="cls-10" transform="translate(135 46.03) rotate(54.84)"><tspan x="0" y="0"> </tspan></text><text class="cls-10" transform="translate(136.02 47.48) rotate(56.43)"><tspan x="0" y="0"> </tspan></text><text class="cls-10" transform="translate(137 48.96) rotate(58.02)"><tspan x="0" y="0"> </tspan></text><text class="cls-10" transform="translate(137.94 50.46) rotate(59.62)"><tspan x="0" y="0"> </tspan></text><text class="cls-10" transform="translate(138.84 51.99) rotate(61.23)"><tspan x="0" y="0"> </tspan></text><text class="cls-10" transform="translate(139.7 53.55) rotate(62.83)"><tspan x="0" y="0"> </tspan></text><text class="cls-10" transform="translate(140.51 55.14) rotate(64.45)"><tspan x="0" y="0"> </tspan></text><text class="cls-10" transform="translate(141.27 56.73) rotate(66.04)"><tspan x="0" y="0"> </tspan></text><text class="cls-10" transform="translate(141.99 58.34) rotate(67.64)"><tspan x="0" y="0"> </tspan></text><text class="cls-10" transform="translate(142.68 60) rotate(69.27)"><tspan x="0" y="0"> </tspan></text><text class="cls-10" transform="translate(143.3 61.64) rotate(70.86)"><tspan x="0" y="0"> </tspan></text><text class="cls-10" transform="translate(143.88 63.32) rotate(72.48)"><tspan x="0" y="0"> </tspan></text><text class="cls-10" transform="translate(144.42 65.03) rotate(74.1)"><tspan x="0" y="0"> </tspan></text><text class="cls-10" transform="translate(144.9 66.73) rotate(75.71)"><tspan x="0" y="0"> </tspan></text><text class="cls-10" transform="translate(145.34 68.45) rotate(77.32)"><tspan x="0" y="0"> </tspan></text><text class="cls-10" transform="translate(145.73 70.16) rotate(78.91)"><tspan x="0" y="0"> </tspan></text><text class="cls-10" transform="translate(146.07 71.89) rotate(80.5)"><tspan x="0" y="0"> </tspan></text><text class="cls-10" transform="translate(146.37 73.67) rotate(82.12)"><tspan x="0" y="0"> </tspan></text><text class="cls-10" transform="translate(146.61 75.41) rotate(83.7)"><tspan x="0" y="0"> </tspan></text><text class="cls-10" transform="translate(146.81 77.18) rotate(85.31)"><tspan x="0" y="0"> </tspan></text><text class="cls-10" transform="translate(146.95 78.95) rotate(86.9)"><tspan x="0" y="0"> </tspan></text><text class="cls-10" transform="translate(147.05 80.71) rotate(88.46)"><tspan x="0" y="0"> </tspan></text><text class="cls-10" transform="translate(147.11 82.48) rotate(90.93)"><tspan x="0" y="0"> </tspan></text><text class="cls-10" transform="translate(147.09 84.25) rotate(91.59)"><tspan x="0" y="0"> </tspan></text><text class="cls-10" transform="translate(147.05 86.03) rotate(93.17)"><tspan x="0" y="0"> </tspan></text><text class="cls-10" transform="translate(146.95 87.8) rotate(94.76)"><tspan x="0" y="0"> </tspan></text><text class="cls-10" transform="translate(146.8 89.56) rotate(96.34)"><tspan x="0" y="0"> </tspan></text><text class="cls-10" transform="translate(146.61 91.33) rotate(97.94)"><tspan x="0" y="0"> </tspan></text><text class="cls-10" transform="translate(146.36 93.09) rotate(99.54)"><tspan x="0" y="0"> </tspan></text><text class="cls-10" transform="translate(146.07 94.85) rotate(101.16)"><tspan x="0" y="0"> </tspan></text><text class="cls-10" transform="translate(145.73 96.58) rotate(102.75)"><tspan x="0" y="0"> </tspan></text><text class="cls-10" transform="translate(145.34 98.31) rotate(104.36)"><tspan x="0" y="0"> </tspan></text><text class="cls-10" transform="translate(144.89 100.04) rotate(105.99)"><tspan x="0" y="0"> </tspan></text><text class="cls-10" transform="translate(144.41 101.74) rotate(107.59)"><tspan x="0" y="0"> </tspan></text><text class="cls-10" transform="translate(143.88 103.41) rotate(109.18)"><tspan x="0" y="0"> </tspan></text><text class="cls-10" transform="translate(143.29 105.11) rotate(110.82)"><tspan x="0" y="0"> </tspan></text><text class="cls-10" transform="translate(142.67 106.74) rotate(112.4)"><tspan x="0" y="0"> </tspan></text><text class="cls-10" transform="translate(141.98 108.4) rotate(114.02)"><tspan x="0" y="0"> </tspan></text><text class="cls-10" transform="translate(141.26 110.03) rotate(115.64)"><tspan x="0" y="0"> </tspan></text><text class="cls-10" transform="translate(140.5 111.62) rotate(117.23)"><tspan x="0" y="0"> </tspan></text><text class="cls-10" transform="translate(139.68 113.2) rotate(118.84)"><tspan x="0" y="0"> </tspan></text><text class="cls-10" transform="translate(138.84 114.74) rotate(120.42)"><tspan x="0" y="0"> </tspan></text><text class="cls-10" transform="translate(137.94 116.27) rotate(122.02)"><tspan x="0" y="0"> </tspan></text><text class="cls-10" transform="translate(137 117.77) rotate(123.61)"><tspan x="0" y="0"> </tspan></text><text class="cls-10" transform="translate(136.01 119.26) rotate(125.22)"><tspan x="0" y="0"> </tspan></text><text class="cls-10" transform="translate(134.99 120.71) rotate(126.81)"><tspan x="0" y="0"> </tspan></text><text class="cls-10" transform="translate(133.93 122.13) rotate(128.4)"><tspan x="0" y="0"> </tspan></text><text class="cls-10" transform="translate(132.82 123.53) rotate(130)"><tspan x="0" y="0"> </tspan></text><text class="cls-10" transform="translate(131.68 124.88) rotate(131.58)"><tspan x="0" y="0"> </tspan></text><text class="cls-10" transform="translate(130.51 126.2) rotate(133.16)"><tspan x="0" y="0"> </tspan></text><text class="cls-10" transform="translate(129.31 127.49) rotate(134.74)"><tspan x="0" y="0"> </tspan></text><text class="cls-10" transform="translate(128.05 128.76) rotate(136.35)"><tspan x="0" y="0"> </tspan></text><text class="cls-10" transform="translate(126.77 129.98) rotate(137.92)"><tspan x="0" y="0"> </tspan></text><text class="cls-10" transform="translate(125.44 131.18) rotate(139.53)"><tspan x="0" y="0"> </tspan></text><text class="cls-10" transform="translate(124.1 132.33) rotate(141.11)"><tspan x="0" y="0"> </tspan></text><text class="cls-10" transform="translate(122.73 133.44) rotate(142.69)"><tspan x="0" y="0"> </tspan></text><text class="cls-10" transform="translate(121.32 134.51) rotate(144.28)"><tspan x="0" y="0"> </tspan></text><text class="cls-10" transform="translate(119.88 135.54) rotate(145.87)"><tspan x="0" y="0"> </tspan></text><text class="cls-10" transform="translate(118.4 136.55) rotate(147.49)"><tspan x="0" y="0"> </tspan></text><text class="cls-10" transform="translate(116.9 137.5) rotate(149.08)"><tspan x="0" y="0"> </tspan></text><text class="cls-10" transform="translate(115.45 138.43) rotate(152.23)"><tspan x="0" y="0">C</tspan></text><text class="cls-10" transform="translate(110.81 140.87) rotate(156.81)"><tspan x="0" y="0">3</tspan></text><text class="cls-10" transform="translate(106.34 142.8) rotate(161.33)"><tspan x="0" y="0">P</tspan></text><text class="cls-10" transform="translate(101.59 144.37) rotate(164.81)"><tspan x="0" y="0">-</tspan></text><text class="cls-10" transform="translate(98.9 145.14) rotate(168.3)"><tspan x="0" y="0">0</tspan></text><text class="cls-10" transform="translate(94.07 146.1) rotate(171.31)"><tspan x="0" y="0"> </tspan></text><text class="cls-10" transform="translate(92.32 146.37) rotate(172.91)"><tspan x="0" y="0"> </tspan></text><text class="cls-10" transform="translate(90.54 146.59) rotate(174.52)"><tspan x="0" y="0"> </tspan></text><text class="cls-10" transform="translate(88.78 146.76) rotate(176.1)"><tspan x="0" y="0"> </tspan></text><text class="cls-10" transform="translate(87.03 146.88) rotate(177.66)"><tspan x="0" y="0"> </tspan></text><text class="cls-10" transform="translate(85.24 146.95) rotate(179.07)"><tspan x="0" y="0"> </tspan></text><text class="cls-10" transform="translate(83.47 146.98) rotate(-179.07)"><tspan x="0" y="0"> </tspan></text><text class="cls-10" transform="translate(81.71 146.95) rotate(-177.62)"><tspan x="0" y="0"> </tspan></text><text class="cls-10" transform="translate(79.93 146.88) rotate(-176.03)"><tspan x="0" y="0"> </tspan></text><text class="cls-10" transform="translate(78.17 146.76) rotate(-174.45)"><tspan x="0" y="0"> </tspan></text><text class="cls-10" transform="translate(76.39 146.58) rotate(-172.85)"><tspan x="0" y="0"> </tspan></text><text class="cls-10" transform="translate(74.65 146.37) rotate(-171.27)"><tspan x="0" y="0"> </tspan></text><text class="cls-10" transform="translate(72.88 146.09) rotate(-169.65)"><tspan x="0" y="0"> </tspan></text><text class="cls-10" transform="translate(71.15 145.78) rotate(-168.05)"><tspan x="0" y="0"> </tspan></text><text class="cls-10" transform="translate(69.41 145.41) rotate(-166.44)"><tspan x="0" y="0"> </tspan></text><text class="cls-10" transform="translate(67.69 145) rotate(-164.84)"><tspan x="0" y="0"> </tspan></text><text class="cls-10" transform="translate(65.96 144.53) rotate(-163.21)"><tspan x="0" y="0"> </tspan></text><text class="cls-10" transform="translate(64.27 144.02) rotate(-161.61)"><tspan x="0" y="0"> </tspan></text><text class="cls-10" transform="translate(62.59 143.46) rotate(-160)"><tspan x="0" y="0"> </tspan></text><text class="cls-10" transform="translate(60.92 142.86) rotate(-158.39)"><tspan x="0" y="0"> </tspan></text><text class="cls-10" transform="translate(59.28 142.21) rotate(-156.79)"><tspan x="0" y="0"> </tspan></text><text class="cls-10" transform="translate(57.65 141.51) rotate(-155.19)"><tspan x="0" y="0"> </tspan></text><text class="cls-10" transform="translate(56.03 140.76) rotate(-153.58)"><tspan x="0" y="0"> </tspan></text><text class="cls-10" transform="translate(54.44 139.97) rotate(-151.97)"><tspan x="0" y="0"> </tspan></text><text class="cls-10" transform="translate(52.87 139.13) rotate(-150.36)"><tspan x="0" y="0"> </tspan></text><text class="cls-10" transform="translate(51.34 138.27) rotate(-148.78)"><tspan x="0" y="0"> </tspan></text><text class="cls-10" transform="translate(49.83 137.35) rotate(-147.18)"><tspan x="0" y="0"> </tspan></text><text class="cls-10" transform="translate(48.32 136.38) rotate(-145.57)"><tspan x="0" y="0"> </tspan></text><text class="cls-10" transform="translate(46.86 135.38) rotate(-143.98)"><tspan x="0" y="0"> </tspan></text><text class="cls-10" transform="translate(45.43 134.34) rotate(-142.4)"><tspan x="0" y="0"> </tspan></text><text class="cls-10" transform="translate(44.03 133.26) rotate(-140.81)"><tspan x="0" y="0"> </tspan></text><text class="cls-10" transform="translate(42.66 132.14) rotate(-139.23)"><tspan x="0" y="0"> </tspan></text><text class="cls-10" transform="translate(41.3 130.98) rotate(-137.63)"><tspan x="0" y="0"> </tspan></text><text class="cls-10" transform="translate(40 129.79) rotate(-136.05)"><tspan x="0" y="0"> </tspan></text><text class="cls-10" transform="translate(38.71 128.55) rotate(-134.45)"><tspan x="0" y="0"> </tspan></text><text class="cls-10" transform="translate(37.48 127.29) rotate(-132.86)"><tspan x="0" y="0"> </tspan></text><text class="cls-10" transform="translate(36.27 126) rotate(-131.28)"><tspan x="0" y="0"> </tspan></text><text class="cls-10" transform="translate(35.09 124.65) rotate(-129.68)"><tspan x="0" y="0"> </tspan></text><text class="cls-10" transform="translate(33.96 123.29) rotate(-128.1)"><tspan x="0" y="0"> </tspan></text><text class="cls-10" transform="translate(32.87 121.9) rotate(-126.51)"><tspan x="0" y="0"> </tspan></text><text class="cls-10" transform="translate(31.81 120.46) rotate(-124.9)"><tspan x="0" y="0"> </tspan></text><text class="cls-10" transform="translate(30.79 119.01) rotate(-123.31)"><tspan x="0" y="0"> </tspan></text><text class="cls-10" transform="translate(29.82 117.53) rotate(-121.72)"><tspan x="0" y="0"> </tspan></text><text class="cls-10" transform="translate(28.88 116.02) rotate(-120.12)"><tspan x="0" y="0"> </tspan></text><text class="cls-10" transform="translate(28 114.5) rotate(-118.53)"><tspan x="0" y="0"> </tspan></text><text class="cls-10" transform="translate(27.15 112.94) rotate(-116.93)"><tspan x="0" y="0"> </tspan></text><text class="cls-10" transform="translate(26.36 111.37) rotate(-115.34)"><tspan x="0" y="0"> </tspan></text><text class="cls-10" transform="translate(25.59 109.75) rotate(-113.72)"><tspan x="0" y="0"> </tspan></text><text class="cls-10" transform="translate(24.88 108.13) rotate(-112.11)"><tspan x="0" y="0"> </tspan></text><text class="cls-10" transform="translate(24.21 106.49) rotate(-110.51)"><tspan x="0" y="0"> </tspan></text><text class="cls-10" transform="translate(23.59 104.83) rotate(-108.89)"><tspan x="0" y="0"> </tspan></text><text class="cls-10" transform="translate(23.01 103.15) rotate(-107.28)"><tspan x="0" y="0"> </tspan></text><text class="cls-10" transform="translate(22.49 101.46) rotate(-105.68)"><tspan x="0" y="0"> </tspan></text><text class="cls-10" transform="translate(22.01 99.76) rotate(-104.07)"><tspan x="0" y="0"> </tspan></text><text class="cls-10" transform="translate(21.58 98.04) rotate(-102.46)"><tspan x="0" y="0"> </tspan></text><text class="cls-10" transform="translate(21.19 96.3) rotate(-100.85)"><tspan x="0" y="0"> </tspan></text><text class="cls-10" transform="translate(20.86 94.56) rotate(-99.25)"><tspan x="0" y="0"> </tspan></text><text class="cls-10" transform="translate(20.57 92.81) rotate(-97.65)"><tspan x="0" y="0"> </tspan></text><text class="cls-10" transform="translate(20.33 91.05) rotate(-96.05)"><tspan x="0" y="0"> </tspan></text><text class="cls-10" transform="translate(20.15 89.29) rotate(-94.46)"><tspan x="0" y="0"> </tspan></text><text class="cls-10" transform="translate(20.01 87.52) rotate(-92.88)"><tspan x="0" y="0"> </tspan></text><text class="cls-10" transform="translate(19.92 85.76) rotate(-91.32)"><tspan x="0" y="0"> </tspan></text><text class="cls-10" transform="translate(19.87 83.99) rotate(-89.07)"><tspan x="0" y="0"> </tspan></text><text class="cls-10" transform="translate(19.89 82.19) rotate(-88.16)"><tspan x="0" y="0"> </tspan></text><text class="cls-10" transform="translate(19.94 80.44) rotate(-86.6)"><tspan x="0" y="0"> </tspan></text><text class="cls-10" transform="translate(20.05 78.67) rotate(-85.01)"><tspan x="0" y="0"> </tspan></text><text class="cls-10" transform="translate(20.2 76.89) rotate(-83.41)"><tspan x="0" y="0"> </tspan></text><text class="cls-10" transform="translate(20.4 75.12) rotate(-81.81)"><tspan x="0" y="0"> </tspan></text><text class="cls-10" transform="translate(20.66 73.37) rotate(-80.21)"><tspan x="0" y="0"> </tspan></text><text class="cls-10" transform="translate(20.96 71.63) rotate(-78.61)"><tspan x="0" y="0"> </tspan></text><text class="cls-10" transform="translate(21.31 69.88) rotate(-77)"><tspan x="0" y="0"> </tspan></text><text class="cls-10" transform="translate(21.7 68.16) rotate(-75.39)"><tspan x="0" y="0"> </tspan></text><text class="cls-10" transform="translate(22.15 66.45) rotate(-73.79)"><tspan x="0" y="0"> </tspan></text><text class="cls-10" transform="translate(22.59 64.75) rotate(-70.6)"><tspan x="0" y="0">C</tspan></text><text class="cls-10" transform="translate(24.33 59.82) rotate(-66.02)"><tspan x="0" y="0">3</tspan></text><text class="cls-10" transform="translate(26.29 55.38) rotate(-61.53)"><tspan x="0" y="0">P</tspan></text><text class="cls-10" transform="translate(28.71 50.98) rotate(-58.05)"><tspan x="0" y="0">-</tspan></text><text class="cls-10" transform="translate(30.17 48.58) rotate(-54.58)"><tspan x="0" y="0">0</tspan></text><text class="cls-10" transform="translate(33.05 44.6) rotate(-51.6)"><tspan x="0" y="0"> </tspan></text><text class="cls-10" transform="translate(34.14 43.21) rotate(-50.02)"><tspan x="0" y="0"> </tspan></text><text class="cls-10" transform="translate(35.29 41.84) rotate(-48.42)"><tspan x="0" y="0"> </tspan></text><text class="cls-10" transform="translate(36.46 40.52) rotate(-46.84)"><tspan x="0" y="0"> </tspan></text><text class="cls-10" transform="translate(37.67 39.23) rotate(-45.26)"><tspan x="0" y="0"> </tspan></text><text class="cls-10" transform="translate(38.91 37.98) rotate(-43.68)"><tspan x="0" y="0"> </tspan></text><text class="cls-10" transform="translate(40.21 36.75) rotate(-42.07)"><tspan x="0" y="0"> </tspan></text><text class="cls-10" transform="translate(41.52 35.56) rotate(-40.49)"><tspan x="0" y="0"> </tspan></text><text class="cls-10" transform="translate(42.88 34.4) rotate(-38.89)"><tspan x="0" y="0"> </tspan></text><text class="cls-10" transform="translate(44.25 33.29) rotate(-37.31)"><tspan x="0" y="0"> </tspan></text><text class="cls-10" transform="translate(45.66 32.22) rotate(-35.72)"><tspan x="0" y="0"> </tspan></text><text class="cls-10" transform="translate(47.09 31.18) rotate(-34.13)"><tspan x="0" y="0"> </tspan></text><text class="cls-10" transform="translate(48.56 30.19) rotate(-32.54)"><tspan x="0" y="0"> </tspan></text><text class="cls-10" transform="translate(50.05 29.23) rotate(-30.94)"><tspan x="0" y="0"> </tspan></text><text class="cls-10" transform="translate(51.58 28.32) rotate(-29.34)"><tspan x="0" y="0"> </tspan></text><text class="cls-10" transform="translate(53.13 27.45) rotate(-27.73)"><tspan x="0" y="0"> </tspan></text><text class="cls-10" transform="translate(54.71 26.62) rotate(-26.12)"><tspan x="0" y="0"> </tspan></text><text class="cls-10" transform="translate(56.29 25.84) rotate(-24.53)"><tspan x="0" y="0"> </tspan></text><text class="cls-10" transform="translate(57.89 25.11) rotate(-22.93)"><tspan x="0" y="0"> </tspan></text><text class="cls-10" transform="translate(59.54 24.41) rotate(-21.3)"><tspan x="0" y="0"> </tspan></text><text class="cls-10" transform="translate(61.17 23.77) rotate(-19.71)"><tspan x="0" y="0"> </tspan></text><text class="cls-10" transform="translate(62.85 23.17) rotate(-18.1)"><tspan x="0" y="0"> </tspan></text><text class="cls-10" transform="translate(64.54 22.62) rotate(-16.48)"><tspan x="0" y="0"> </tspan></text><text class="cls-10" transform="translate(66.24 22.12) rotate(-14.88)"><tspan x="0" y="0"> </tspan></text><text class="cls-10" transform="translate(67.95 21.66) rotate(-13.27)"><tspan x="0" y="0"> </tspan></text><text class="cls-10" transform="translate(69.68 21.25) rotate(-11.65)"><tspan x="0" y="0"> </tspan></text><text class="cls-10" transform="translate(71.43 20.89) rotate(-10.04)"><tspan x="0" y="0"> </tspan></text><text class="cls-10" transform="translate(73.15 20.59) rotate(-8.46)"><tspan x="0" y="0"> </tspan></text><text class="cls-10" transform="translate(74.93 20.32) rotate(-6.84)"><tspan x="0" y="0"> </tspan></text><text class="cls-10" transform="translate(76.68 20.11) rotate(-5.26)"><tspan x="0" y="0"> </tspan></text><text class="cls-10" transform="translate(78.45 19.95) rotate(-3.67)"><tspan x="0" y="0"> </tspan></text><text class="cls-10" transform="translate(80.22 19.83) rotate(-2.09)"><tspan x="0" y="0"> </tspan></text><text class="cls-10" transform="translate(82.01 19.77) rotate(-.93)"><tspan x="0" y="0"> </tspan></text><text class="cls-10" transform="translate(83.76 19.75) rotate(1.04)"><tspan x="0" y="0"> </tspan></text><text class="cls-10" transform="translate(85.55 19.78) rotate(2.63)"><tspan x="0" y="0"> </tspan></text><text class="cls-10" transform="translate(87.3 19.86) rotate(4.19)"><tspan x="0" y="0"> </tspan></text><text class="cls-10" transform="translate(89.09 19.99) rotate(5.8)"><tspan x="0" y="0"> </tspan></text><text class="cls-10" transform="translate(90.84 20.17) rotate(7.38)"><tspan x="0" y="0"> </tspan></text><text class="cls-10" transform="translate(92.6 20.4) rotate(8.98)"><tspan x="0" y="0"> </tspan></text><text class="cls-10" transform="translate(94.34 20.67) rotate(10.58)"><tspan x="0" y="0"> </tspan></text><text class="cls-10" transform="translate(96.1 21) rotate(12.19)"><tspan x="0" y="0"> </tspan></text><text class="cls-10" transform="translate(97.83 21.37) rotate(13.8)"><tspan x="0" y="0"> </tspan></text><text class="cls-10" transform="translate(99.55 21.8) rotate(15.41)"><tspan x="0" y="0"> </tspan></text><text class="cls-10" transform="translate(101.25 22.26) rotate(17.01)"><tspan x="0" y="0"> </tspan></text><text class="cls-10" transform="translate(102.96 22.78) rotate(18.63)"><tspan x="0" y="0"> </tspan></text><text class="cls-10" transform="translate(104.64 23.35) rotate(20.24)"><tspan x="0" y="0"> </tspan></text><text class="cls-10" transform="translate(106.3 23.96) rotate(21.85)"><tspan x="0" y="0"> </tspan></text><text class="cls-10" transform="translate(107.95 24.62) rotate(23.45)"><tspan x="0" y="0"> </tspan></text><text class="cls-10" transform="translate(109.59 25.33) rotate(25.07)"><tspan x="0" y="0"> </tspan></text><text class="cls-10" transform="translate(111.18 26.08) rotate(26.66)"><tspan x="0" y="0"> </tspan></text><text class="cls-10" transform="translate(112.77 26.88) rotate(28.27)"><tspan x="0" y="0"> </tspan></text><text class="cls-10" transform="translate(114.32 27.71) rotate(29.86)"><tspan x="0" y="0"> </tspan></text><text class="cls-10" transform="translate(115.86 28.59) rotate(31.46)"><tspan x="0" y="0"> </tspan></text><text class="cls-10" transform="translate(117.37 29.51) rotate(33.05)"><tspan x="0" y="0"> </tspan></text><circle id="circle" class="cls-11" cx="83.49" cy="83.36" r="74.9" transform="translate(-11.52 153.31) rotate(-81.32)"/></g></svg>