<?xml version="1.0" encoding="UTF-8"?><svg id="atat" xmlns="http://www.w3.org/2000/svg" xmlns:xlink="http://www.w3.org/1999/xlink" viewBox="0 0 166.69 167.01"><defs><filter id="drop-shadow-1" filterUnits="userSpaceOnUse"><feOffset dx="0" dy="7.2"/><feGaussianBlur result="blur" stdDeviation="7.2"/><feFlood flood-color="#000" flood-opacity=".75"/><feComposite in2="blur" operator="in"/><feComposite in="SourceGraphic"/></filter><linearGradient id="linear-gradient" x1="120.2" y1="105.89" x2="115.89" y2="91.83" gradientTransform="translate(29.8 -27.2) rotate(15)" gradientUnits="userSpaceOnUse"><stop offset="0" stop-color="#c186bb"/><stop offset=".17" stop-color="#b68cbc"/><stop offset=".46" stop-color="#9a9cc2"/><stop offset=".83" stop-color="#6cb7ca"/><stop offset="1" stop-color="#56c5cf"/></linearGradient><linearGradient id="New_Gradient_Swatch_3" x1="116.48" y1="93.3" x2="111.48" y2="74.44" gradientTransform="translate(25.68 -26.65) rotate(15)" gradientUnits="userSpaceOnUse"><stop offset="0" stop-color="#56c5cf"/><stop offset=".17" stop-color="#6cb7ca"/><stop offset=".54" stop-color="#9a9cc2"/><stop offset=".83" stop-color="#b68cbc"/><stop offset="1" stop-color="#c186bb"/></linearGradient><linearGradient id="linear-gradient-2" x1="105.8" y1="102.13" x2="103.07" y2="92.01" gradientTransform="matrix(1, 0, 0, 1, 0, 0)" xlink:href="#linear-gradient"/><linearGradient id="New_Gradient_Swatch_3-2" x1="103.81" y1="88.94" x2="111.51" y2="75.69" gradientTransform="translate(123.29 -51.48) rotate(59)" xlink:href="#New_Gradient_Swatch_3"/><linearGradient id="New_Gradient_Swatch_3-3" x1="75.21" y1="94.4" x2="81.77" y2="103.64" gradientTransform="translate(70.64 -26.99) rotate(35)" xlink:href="#New_Gradient_Swatch_3"/><linearGradient id="New_Gradient_Swatch_3-4" x1="74.32" y1="93.21" x2="68.85" y2="74.47" gradientTransform="translate(24.24 -15.69) rotate(15)" xlink:href="#New_Gradient_Swatch_3"/><linearGradient id="linear-gradient-3" x1="65.21" y1="104.95" x2="65.21" y2="94.75" gradientTransform="matrix(1, 0, 0, 1, 0, 0)" xlink:href="#linear-gradient"/><linearGradient id="New_Gradient_Swatch_3-5" x1="66.57" y1="91.57" x2="69.04" y2="76.94" gradientTransform="translate(139.09 2.95) rotate(80)" xlink:href="#New_Gradient_Swatch_3"/><linearGradient id="linear-gradient-4" x1="63.06" y1="62" x2="118.03" y2="62" gradientUnits="userSpaceOnUse"><stop offset="0" stop-color="#9adce2"/><stop offset="1" stop-color="#c186bb"/></linearGradient><linearGradient id="linear-gradient-5" x1="79.62" y1="61.96" x2="98.16" y2="61.96" gradientUnits="userSpaceOnUse"><stop offset="0" stop-color="#56c5cf"/><stop offset=".17" stop-color="#6cb7ca"/><stop offset=".54" stop-color="#9a9cc2"/><stop offset=".83" stop-color="#b68cbc"/><stop offset="1" stop-color="#c186bb"/></linearGradient><linearGradient id="linear-gradient-6" x1="45.15" y1="75.54" x2="45.15" y2="65.6" gradientUnits="userSpaceOnUse"><stop offset="0" stop-color="#78d1d8"/><stop offset="1" stop-color="#c186bb"/></linearGradient></defs>

<style>

      /* these are my interactive overrides */
      #smalltext { transition: all 0.5s ease; transform-origin: 50%;}

      #atat:hover #bg_circle { fill: pink; }

      #atat:hover #smalltext { fill: red; transform: rotate(170deg); }

</style>

    <script>
      // select elements you want to interact with first
      let theBadge = document.querySelector('#atat');

      // functions always go in the middle
      function logMyId() {        
        console.log(this.id);
      }

      // event handling at the bottom
      theBadge.addEventListener('click', logMyId);
    </script>


<g id="newBadge"><path id="bg_circle" d="M80.91,1.81c1.34-2.41,3.53-2.41,4.87,0,1.34,2.41,3.76,2.56,5.39,.34,1.63-2.22,3.8-1.95,4.83,.61,1.02,2.56,3.41,3.01,5.31,1.01,1.9-2,4.01-1.46,4.71,1.21,.7,2.67,3.01,3.42,5.14,1.67,2.13-1.75,4.16-.94,4.52,1.79,.36,2.73,2.56,3.77,4.89,2.3,2.33-1.47,4.25-.41,4.26,2.34,.01,2.76,2.07,4.06,4.56,2.9,2.5-1.16,4.27,.12,3.93,2.86-.33,2.74,1.54,4.29,4.17,3.44,2.62-.84,4.22,.66,3.54,3.33-.67,2.67,.99,4.45,3.7,3.94,2.71-.5,4.1,1.18,3.1,3.75-1,2.57,.43,4.53,3.18,4.37,2.75-.16,3.92,1.69,2.61,4.11-1.32,2.42-.15,4.55,2.6,4.74,2.75,.18,3.68,2.17,2.07,4.4-1.61,2.24-.72,4.5,1.99,5.03,2.7,.53,3.38,2.61,1.5,4.63-1.88,2.02-1.27,4.37,1.34,5.23,2.62,.86,3.03,3.01,.91,4.78-2.12,1.77-1.81,4.18,.68,5.36,2.49,1.18,2.63,3.37,.31,4.85-2.32,1.49-2.32,3.92,0,5.41,2.32,1.49,2.18,3.67-.31,4.85-2.49,1.18-2.79,3.6-.68,5.36,2.12,1.77,1.71,3.91-.91,4.78-2.62,.86-3.22,3.22-1.34,5.23,1.88,2.02,1.2,4.1-1.5,4.63-2.7,.53-3.6,2.79-1.99,5.03,1.61,2.24,.68,4.22-2.07,4.4-2.75,.18-3.92,2.32-2.6,4.74,1.32,2.42,.14,4.27-2.61,4.11-2.75-.16-4.18,1.81-3.18,4.37,1,2.57-.39,4.25-3.1,3.75-2.71-.51-4.37,1.27-3.7,3.94,.67,2.67-.92,4.17-3.54,3.33-2.62-.84-4.5,.71-4.17,3.44,.33,2.74-1.44,4.02-3.93,2.86-2.5-1.16-4.55,.14-4.56,2.9-.01,2.76-1.93,3.81-4.26,2.34-2.33-1.47-4.53-.43-4.89,2.3-.36,2.73-2.39,3.54-4.52,1.79-2.13-1.75-4.45-1-5.14,1.67-.7,2.67-2.81,3.21-4.71,1.21-1.9-2-4.28-1.54-5.31,1.01-1.03,2.56-3.2,2.83-4.83,.61-1.63-2.22-4.06-2.07-5.39,.34-1.34,2.41-3.53,2.41-4.87,0-1.34-2.41-3.77-2.56-5.39-.34-1.63,2.22-3.8,1.95-4.83-.61-1.02-2.56-3.41-3.01-5.31-1.01-1.89,2-4.01,1.46-4.71-1.21-.7-2.67-3.01-3.42-5.14-1.67-2.13,1.75-4.16,.94-4.52-1.79-.36-2.73-2.56-3.77-4.89-2.3-2.33,1.47-4.25,.41-4.26-2.34-.01-2.76-2.06-4.06-4.56-2.9-2.5,1.16-4.27-.12-3.94-2.86,.33-2.74-1.54-4.29-4.17-3.44-2.62,.84-4.22-.66-3.55-3.33,.67-2.67-.99-4.45-3.7-3.94-2.71,.5-4.1-1.18-3.1-3.75,1-2.57-.43-4.53-3.18-4.37-2.75,.16-3.92-1.69-2.61-4.11,1.32-2.42,.15-4.55-2.6-4.74-2.75-.18-3.68-2.16-2.07-4.4,1.61-2.24,.72-4.5-1.99-5.03-2.71-.53-3.38-2.61-1.5-4.63,1.88-2.02,1.27-4.37-1.35-5.23-2.62-.86-3.03-3.01-.91-4.78,2.12-1.77,1.81-4.18-.68-5.36-2.49-1.18-2.62-3.37-.31-4.85,2.32-1.49,2.32-3.92,0-5.41-2.32-1.49-2.18-3.67,.31-4.85,2.49-1.18,2.79-3.6,.68-5.36-2.12-1.77-1.71-3.91,.91-4.78,2.62-.86,3.22-3.22,1.35-5.23-1.88-2.02-1.2-4.1,1.5-4.63,2.71-.53,3.6-2.79,1.99-5.03-1.61-2.24-.68-4.22,2.07-4.4,2.75-.18,3.92-2.32,2.6-4.74-1.32-2.42-.14-4.27,2.61-4.11,2.75,.16,4.18-1.81,3.18-4.37-1-2.57,.39-4.25,3.1-3.75,2.71,.51,4.37-1.27,3.7-3.94-.67-2.67,.92-4.17,3.55-3.33,2.63,.84,4.5-.71,4.17-3.45-.33-2.74,1.44-4.02,3.94-2.86,2.5,1.16,4.55-.14,4.56-2.9,.01-2.76,1.93-3.81,4.26-2.34,2.33,1.47,4.53,.43,4.89-2.3,.36-2.73,2.39-3.54,4.52-1.79,2.13,1.75,4.44,1,5.14-1.67,.7-2.67,2.82-3.21,4.71-1.21,1.9,2,4.28,1.54,5.31-1.01,1.03-2.56,3.2-2.83,4.83-.61,1.63,2.22,4.06,2.07,5.39-.34Z" filter="url(#drop-shadow-1)"/></g><g id="bg_circle-2"><g id="smalltext"><path d="M121.18,30.19l-1.26,1-1.14-.84,5.07-3.8,1.45,1.06-2.05,6.01-1.19-.87,.54-1.53-1.41-1.03Zm1.85,.08l.46-1.26c.13-.35,.31-.78,.44-1.12h-.01c-.28,.22-.63,.54-.92,.77l-1.05,.82,1.08,.79Z" fill="#fff"/><path d="M127.26,30.63l-1.25-1.06,.75-.88,3.56,3.02-.75,.88-1.27-1.08-3.18,3.75-1.05-.89,3.18-3.75Z" fill="#fff"/><path d="M129.85,35.77l-.62,.66-1.72-1.61,.62-.66,1.72,1.61Z" fill="#fff"/><path d="M130.55,38.28l-1.43,.75-.97-1.04,5.71-2.78,1.22,1.31-3.16,5.52-1.01-1.08,.82-1.4-1.19-1.28Zm1.8,.43l.69-1.16c.19-.32,.45-.71,.65-1.02h-.01c-.32,.16-.72,.41-1.05,.58l-1.19,.61,.92,.98Z" fill="#fff"/><path d="M136.42,39.85l-1.03-1.27,.9-.72,2.93,3.63-.9,.72-1.04-1.29-3.82,3.08-.86-1.07,3.82-3.08Z" fill="#fff"/><path d="M124.2,134.26l-.62-1.49,1.12-.87,2.26,5.93-1.42,1.1-5.21-3.63,1.17-.91,1.32,.94,1.38-1.07Zm-.59,1.75l1.09,.79c.3,.22,.67,.51,.96,.74h.01c-.15-.35-.36-.77-.5-1.11l-.5-1.24-1.06,.82Z" fill="#fff"/><path d="M122.11,139.98l1.36-.91,.64,.96-3.88,2.6-.64-.96,1.38-.92-2.73-4.08,1.14-.76,2.73,4.08Z" fill="#fff"/><path d="M116.45,141.06l-.47-.78,2.02-1.21,.47,.78-2.02,1.21Z" fill="#fff"/><path d="M113.84,141.04l-.32-1.58,1.26-.64,1.1,6.25-1.6,.81-4.43-4.55,1.32-.67,1.12,1.18,1.56-.79Zm-.91,1.61l.92,.98c.26,.27,.56,.63,.8,.9h.02c-.08-.37-.21-.82-.28-1.18l-.26-1.31-1.2,.61Z" fill="#fff"/><path d="M110.71,146.27l1.51-.63,.45,1.06-4.31,1.81-.45-1.06,1.53-.64-1.91-4.53,1.27-.53,1.91,4.53Z" fill="#fff"/><path d="M22.42,60.56l1.29,.96-.51,1.32-4.97-3.92,.65-1.67,6.33,.44-.54,1.38-1.62-.13-.63,1.62Zm-.39-1.81l-1.34-.12c-.37-.03-.83-.1-1.2-.14v.02c.29,.21,.69,.46,.98,.68l1.07,.81,.49-1.25Z" fill="#fff"/><path d="M21.29,54.56l-.71,1.48-1.04-.5,2.01-4.22,1.04,.5-.71,1.5,4.44,2.12-.59,1.24-4.44-2.12Z" fill="#fff"/><path d="M25.59,50.75l.8,.43-1.12,2.07-.8-.43,1.12-2.07Z" fill="#fff"/><path d="M27.83,49.43l1.09,1.19-.76,1.2-4.14-4.81,.96-1.52,6.14,1.64-.79,1.25-1.57-.44-.93,1.48Zm-.04-1.85l-1.29-.37c-.36-.1-.8-.26-1.15-.37v.02c.24,.27,.58,.59,.83,.86l.9,.99,.72-1.14Z" fill="#fff"/><path d="M27.86,43.34l-.97,1.32-.93-.68,2.77-3.76,.93,.68-.99,1.34,3.96,2.92-.81,1.1-3.96-2.92Z" fill="#fff"/></g><circle id="bg_circle-3" cx="83.49" cy="83.36" r="74.9" transform="translate(-11.52 153.31) rotate(-81.32)" fill="none" opacity=".7" stroke="#fff" stroke-miterlimit="10"/></g><g id="icons"><g id="at_at"><g id="Layer_46_copy_4"><ellipse cx="120.5" cy="108.19" rx="7.65" ry="4.96" transform="translate(-19.16 26.21) rotate(-11.51)" fill="none" stroke="#333" stroke-linejoin="round" stroke-width="4"/><rect x="113.41" y="114.65" width="16.57" height="3.98" fill="#56c5cf" stroke="#333" stroke-linejoin="round" stroke-width="4"/><rect x="115.4" y="110.67" width="12.59" height="3.98" fill="#b268aa" stroke="#333" stroke-linejoin="round" stroke-width="4"/><path d="M113.88,92.61h8.62v9.61c0,2.38-1.93,4.31-4.31,4.31h0c-2.38,0-4.31-1.93-4.31-4.31v-9.61h0Z" transform="translate(-21.74 33.98) rotate(-15)" fill="url(#linear-gradient)" stroke="#333" stroke-linejoin="round" stroke-width="4"/><rect x="109.75" y="75.24" width="8.62" height="17.89" transform="translate(-17.9 32.39) rotate(-15)" fill="url(#New_Gradient_Swatch_3)" stroke="#333" stroke-linejoin="round" stroke-width="4"/><circle cx="111.75" cy="75.54" r="4.31" fill="none" stroke="#333" stroke-linejoin="round" stroke-width="4"/><circle cx="116.29" cy="92.51" r="4.31" fill="#56c5cf" stroke="#333" stroke-linejoin="round" stroke-width="4"/></g><g id="Layer_46_copy"><ellipse cx="106.9" cy="106.28" rx="7.95" ry="4.97" transform="translate(-23.87 31.29) rotate(-15)" fill="none" stroke="#333" stroke-linejoin="round" stroke-width="4"/><rect x="100.69" y="112.67" width="16.57" height="3.98" transform="translate(-25.96 32.11) rotate(-15)" fill="#56c5cf" stroke="#333" stroke-linejoin="round" stroke-width="4"/><rect x="101.64" y="108.83" width="12.59" height="3.98" transform="translate(-25 31.71) rotate(-15)" fill="#b268aa" stroke="#333" stroke-linejoin="round" stroke-width="4"/><g><path d="M105.28,102.52c-1.04,0-1.96-.7-2.23-1.71l-1.97-7.35,4.46-1.19,1.97,7.35c.33,1.23-.4,2.5-1.63,2.83-.2,.05-.4,.08-.6,.08Z" fill="url(#linear-gradient-2)"/><path d="M104.12,94.72l1.45,5.42s.03,.12-.03,.23c-.06,.11-.16,.14-.19,.14-.03,0-.06,.01-.08,.01-.09,0-.25-.06-.29-.23l-1.45-5.42,.59-.16m2.83-4.9l-8.32,2.23,2.49,9.28c.52,1.92,2.26,3.19,4.16,3.19,.37,0,.74-.05,1.12-.15,2.3-.62,3.66-2.98,3.05-5.28l-2.49-9.28h0Z" fill="#9adce2"/><path d="M98.63,92.05l8.32-2.23,2.49,9.28c.62,2.3-.75,4.66-3.05,5.28h0c-2.3,.62-4.66-.75-5.28-3.05l-2.49-9.28Z" fill="none" stroke="#333" stroke-linejoin="round" stroke-width="4"/></g><g><rect x="100.19" y="80.91" width="13.89" height="4.62" transform="translate(-19.37 132.19) rotate(-59)" fill="url(#New_Gradient_Swatch_3-2)"/><path d="M109.42,78.81l.53,.32-5.1,8.48-.53-.32,5.1-8.48m-1.37-5.49l-9.22,15.34,7.39,4.44,9.22-15.34-7.39-4.44h0Z" fill="#9adce2"/><rect x="98.19" y="78.91" width="17.89" height="8.62" transform="translate(-19.37 132.19) rotate(-59)" fill="none" stroke="#333" stroke-linejoin="round" stroke-width="4"/></g><circle cx="111.75" cy="75.54" r="4.31" fill="#b268aa" stroke="#333" stroke-linejoin="round" stroke-width="4"/><circle cx="102.7" cy="90.6" r="4.31" fill="#b268aa" stroke="#333" stroke-linejoin="round" stroke-width="4"/></g><g id="Layer_46_copy_2"><ellipse cx="83.24" cy="105.84" rx="7.95" ry="4.97" transform="translate(-45.65 66.88) rotate(-35)" fill="none" stroke="#333" stroke-linejoin="round" stroke-width="4"/><rect x="79.53" y="110.39" width="16.57" height="3.98" transform="translate(-48.57 70.69) rotate(-35)" fill="#56c5cf" stroke="#333" stroke-linejoin="round" stroke-width="4"/><rect x="79.24" y="107.13" width="12.59" height="3.98" transform="translate(-47.12 68.8) rotate(-35)" fill="#b268aa" stroke="#333" stroke-linejoin="round" stroke-width="4"/><path d="M73.81,91.56h8.62v9.61c0,2.38-1.93,4.31-4.31,4.31h0c-2.38,0-4.31-1.93-4.31-4.31v-9.61h0Z" transform="translate(-42.38 62.62) rotate(-35)" fill="url(#New_Gradient_Swatch_3-3)" stroke="#333" stroke-linejoin="round" stroke-width="4"/><rect x="67.39" y="75.27" width="8.62" height="17.89" transform="translate(-19.35 21.43) rotate(-15)" fill="url(#New_Gradient_Swatch_3-4)" stroke="#333" stroke-linejoin="round" stroke-width="4"/><circle cx="69.38" cy="75.57" r="4.31" fill="none" stroke="#333" stroke-linejoin="round" stroke-width="4"/><circle cx="73.93" cy="92.54" r="4.31" fill="#56c5cf" stroke="#333" stroke-linejoin="round" stroke-width="4"/></g><g id="Layer_46_copy_3"><ellipse cx="63.47" cy="108.83" rx="4.96" ry="7.65" transform="translate(-51.85 159.56) rotate(-83.49)" fill="none" stroke="#333" stroke-linejoin="round" stroke-width="4"/><rect x="54.43" y="114.65" width="16.57" height="3.98" fill="#56c5cf" stroke="#333" stroke-linejoin="round" stroke-width="4"/><rect x="56.42" y="110.67" width="12.59" height="3.98" fill="#b268aa" stroke="#333" stroke-linejoin="round" stroke-width="4"/><g><path d="M64.57,104.95c-.13,0-.27-.01-.41-.04-.61-.11-1.14-.44-1.49-.95-.35-.51-.49-1.12-.38-1.72l1.32-7.49,4.55,.8-1.32,7.49c-.19,1.1-1.15,1.91-2.27,1.91Z" fill="url(#linear-gradient-3)"/><path d="M65.23,97.07l.61,.11-.97,5.52c-.03,.19-.2,.26-.3,.26-.02,0-.04,0-.06,0-.17-.03-.28-.19-.25-.36l.97-5.52m-3.24-4.63l-1.67,9.46c-.41,2.34,1.15,4.58,3.49,4.99,.25,.04,.5,.07,.75,.07,2.05,0,3.87-1.47,4.24-3.56l1.67-9.46-8.48-1.5h0Z" fill="#9adce2"/><path d="M61.99,92.43l8.48,1.5-1.67,9.46c-.41,2.34-2.65,3.91-4.99,3.49h0c-2.34-.41-3.91-2.65-3.49-4.99l1.67-9.46Z" fill="none" stroke="#333" stroke-linejoin="round" stroke-width="4"/></g><g><rect x="60.84" y="82.05" width="13.89" height="4.62" transform="translate(-27.06 136.47) rotate(-80)" fill="url(#New_Gradient_Swatch_3-5)"/><path d="M68.34,79.43l.61,.11-1.72,9.74-.61-.11,1.72-9.74m-3.24-4.63l-3.11,17.62,8.48,1.5,3.11-17.62-8.48-1.5h0Z" fill="#9adce2"/><rect x="58.84" y="80.05" width="17.89" height="8.62" transform="translate(-27.06 136.47) rotate(-80)" fill="none" stroke="#333" stroke-linejoin="round" stroke-width="4"/></g><circle cx="69.34" cy="75.54" r="4.31" fill="#b268aa" stroke="#333" stroke-linejoin="round" stroke-width="4"/><circle cx="66.29" cy="92.84" r="4.31" fill="#b268aa" stroke="#333" stroke-linejoin="round" stroke-width="4"/></g><rect x="55.75" y="67.59" width="5.3" height="5.96" fill="#56c5cf" stroke="#333" stroke-linejoin="round" stroke-width="4"/><g><polygon points="63.06 73.54 63.06 57.75 84.37 50.45 118.03 57.93 118.03 73.54 63.06 73.54" fill="url(#linear-gradient-4)"/><path d="M84.48,52.52l31.55,7.01v12.01h-50.97v-12.36l19.43-6.66m-.23-4.15l-23.2,7.95v19.22h58.97v-19.22l-35.78-7.95h0Z" fill="#d1a4cc"/><polygon points="61.06 75.54 61.06 56.33 84.25 48.37 120.03 56.33 120.03 75.54 61.06 75.54" fill="none" stroke="#303030" stroke-linecap="round" stroke-linejoin="round" stroke-width="4"/></g><g><rect x="79.62" y="50.37" width="18.53" height="23.17" fill="url(#linear-gradient-5)"/><path d="M96.16,52.37v19.17h-14.53v-19.17h14.53m4-4h-22.53v27.17h22.53v-27.17h0Z" fill="#cceef1"/><rect x="77.63" y="48.37" width="22.53" height="27.17" fill="none" stroke="#333" stroke-miterlimit="10" stroke-width="4"/></g><path d="M55.75,75.54h-21.21c0-5.3,4.92-9.94,9.94-9.94h11.27v9.94Z" fill="url(#linear-gradient-6)" stroke="#333" stroke-linecap="round" stroke-linejoin="round" stroke-width="4"/><path d="M55.75,75.54h-12.37c0-2.65,3.02-5.3,5.7-5.3h6.67v5.3Z" fill="none" stroke="#333" stroke-linejoin="round" stroke-width="4"/><polygon points="100.16 75.54 98.17 82.17 84.25 82.17 84.25 79.52 77.63 78.86 77.63 75.54 100.16 75.54" fill="#56c5cf" stroke="#333" stroke-linejoin="round" stroke-width="4"/><circle cx="44.49" cy="68.59" r="2.98" fill="#b268aa" stroke="#333" stroke-linejoin="round" stroke-width="4"/></g></g></svg>