<?xml version="1.0" encoding="UTF-8"?><svg id="c3po" xmlns="http://www.w3.org/2000/svg" xmlns:xlink="http://www.w3.org/1999/xlink" viewBox="0 0 166.69 167.01"><defs><style>.cls-1{fill:url(#linear-gradient-2);}.cls-2,.cls-3{fill:#cceef1;}.cls-4,.cls-5{fill:#fff;}.cls-5,.cls-6,.cls-7,.cls-8,.cls-9,.cls-10,.cls-3{stroke-linejoin:round;stroke-width:4px;}.cls-5,.cls-6,.cls-7,.cls-9,.cls-3{stroke:#2f2f2f;}.cls-5,.cls-6,.cls-8,.cls-9,.cls-3{stroke-linecap:round;}.cls-6,.cls-8,.cls-11{fill:none;}.cls-12{filter:url(#drop-shadow-1);}.cls-7{fill:url(#linear-gradient);}.cls-8{stroke:#d1a4cc;}.cls-11{opacity:.7;stroke:#fff;stroke-miterlimit:10;}.cls-13{fill:#d1a4cc;}.cls-9{fill:url(#New_Gradient_Swatch_2);}.cls-10{fill:url(#New_Gradient_Swatch_2-2);stroke:#333;}.cls-14{fill:url(#linear-gradient-3);}.cls-15{fill:url(#linear-gradient-4);}

      /* these are my interactive overrides */
      #smalltext { transition: all 0.5s ease; transform-origin: 50%;}

      #c3po:hover #bg_circle { fill: DarkCyan; }

      #c3po:hover #smalltext { fill: red; transform: rotate(170deg); }


</style>

    <script>
      // select elements you want to interact with first
      let theBadge = document.querySelector('#c3po');

      // functions always go in the middle
      function logMyId() {        
        console.log(this.id);
      }

      // event handling at the bottom
      theBadge.addEventListener('click', logMyId);
    </script>

<filter id="drop-shadow-1" filterUnits="userSpaceOnUse"><feOffset dx="0" dy="7.2"/><feGaussianBlur result="blur" stdDeviation="7.2"/><feFlood flood-color="#000" flood-opacity=".75"/><feComposite in2="blur" operator="in"/><feComposite in="SourceGraphic"/></filter><linearGradient id="New_Gradient_Swatch_2" x1="68.77" y1="125.26" x2="97.59" y2="125.26" gradientUnits="userSpaceOnUse"><stop offset="0" stop-color="#56c5cf"/><stop offset=".17" stop-color="#6cb7ca"/><stop offset=".54" stop-color="#9a9cc2"/><stop offset=".83" stop-color="#b68cbc"/><stop offset="1" stop-color="#c186bb"/></linearGradient><linearGradient id="linear-gradient" x1="46.35" y1="86.83" x2="120.01" y2="86.83" gradientUnits="userSpaceOnUse"><stop offset="0" stop-color="#c186bb"/><stop offset=".17" stop-color="#b68cbc"/><stop offset=".46" stop-color="#9a9cc2"/><stop offset=".83" stop-color="#6cb7ca"/><stop offset="1" stop-color="#56c5cf"/></linearGradient><linearGradient id="New_Gradient_Swatch_2-2" x1="51.16" y1="80.01" x2="115.2" y2="80.01" xlink:href="#New_Gradient_Swatch_2"/><linearGradient id="linear-gradient-2" x1="57.96" y1="83.87" x2="108.4" y2="83.87" gradientUnits="userSpaceOnUse"><stop offset="0" stop-color="#9adce2"/><stop offset="1" stop-color="#c186bb"/></linearGradient><linearGradient id="linear-gradient-3" x1="85.18" y1="78.03" x2="102.8" y2="78.03" gradientUnits="userSpaceOnUse"><stop offset="0" stop-color="#56c5cf"/><stop offset=".25" stop-color="#7cbace"/><stop offset=".59" stop-color="#aaaecc"/><stop offset=".85" stop-color="#c6a6cc"/><stop offset="1" stop-color="#d1a4cc"/></linearGradient><linearGradient id="linear-gradient-4" x1="63.56" y1="78.03" x2="81.18" y2="78.03" gradientUnits="userSpaceOnUse"><stop offset="0" stop-color="#d1a4cc"/><stop offset=".15" stop-color="#c6a6cc"/><stop offset=".41" stop-color="#aaaecc"/><stop offset=".75" stop-color="#7cbace"/><stop offset="1" stop-color="#56c5cf"/></linearGradient></defs><g id="newBadge"><path id="bg_circle" class="cls-12" d="M80.91,1.81c1.34-2.41,3.53-2.41,4.87,0,1.34,2.41,3.76,2.56,5.39,.34,1.63-2.22,3.8-1.95,4.83,.61,1.02,2.56,3.41,3.01,5.31,1.01,1.9-2,4.01-1.46,4.71,1.21,.7,2.67,3.01,3.42,5.14,1.67,2.13-1.75,4.16-.94,4.52,1.79,.36,2.73,2.56,3.77,4.89,2.3,2.33-1.47,4.25-.41,4.26,2.34,.01,2.76,2.07,4.06,4.56,2.9,2.5-1.16,4.27,.12,3.93,2.86-.33,2.74,1.54,4.29,4.17,3.44,2.62-.84,4.22,.66,3.54,3.33-.67,2.67,.99,4.45,3.7,3.94,2.71-.5,4.1,1.18,3.1,3.75-1,2.57,.43,4.53,3.18,4.37,2.75-.16,3.92,1.69,2.61,4.11-1.32,2.42-.15,4.55,2.6,4.74,2.75,.18,3.68,2.17,2.07,4.4-1.61,2.24-.72,4.5,1.99,5.03,2.7,.53,3.38,2.61,1.5,4.63-1.88,2.02-1.27,4.37,1.34,5.23,2.62,.86,3.03,3.01,.91,4.78-2.12,1.77-1.81,4.18,.68,5.36,2.49,1.18,2.63,3.37,.31,4.85-2.32,1.49-2.32,3.92,0,5.41,2.32,1.49,2.18,3.67-.31,4.85-2.49,1.18-2.79,3.6-.68,5.36,2.12,1.77,1.71,3.91-.91,4.78-2.62,.86-3.22,3.22-1.34,5.23,1.88,2.02,1.2,4.1-1.5,4.63-2.7,.53-3.6,2.79-1.99,5.03,1.61,2.24,.68,4.22-2.07,4.4-2.75,.18-3.92,2.32-2.6,4.74,1.32,2.42,.14,4.27-2.61,4.11-2.75-.16-4.18,1.81-3.18,4.37,1,2.57-.39,4.25-3.1,3.75-2.71-.51-4.37,1.27-3.7,3.94,.67,2.67-.92,4.17-3.54,3.33-2.62-.84-4.5,.71-4.17,3.44,.33,2.74-1.44,4.02-3.93,2.86-2.5-1.16-4.55,.14-4.56,2.9-.01,2.76-1.93,3.81-4.26,2.34-2.33-1.47-4.53-.43-4.89,2.3-.36,2.73-2.39,3.54-4.52,1.79-2.13-1.75-4.45-1-5.14,1.67-.7,2.67-2.81,3.21-4.71,1.21-1.9-2-4.28-1.54-5.31,1.01-1.03,2.56-3.2,2.83-4.83,.61-1.63-2.22-4.06-2.07-5.39,.34-1.34,2.41-3.53,2.41-4.87,0-1.34-2.41-3.77-2.56-5.39-.34-1.63,2.22-3.8,1.95-4.83-.61-1.02-2.56-3.41-3.01-5.31-1.01-1.89,2-4.01,1.46-4.71-1.21-.7-2.67-3.01-3.42-5.14-1.67-2.13,1.75-4.16,.94-4.52-1.79-.36-2.73-2.56-3.77-4.89-2.3-2.33,1.47-4.25,.41-4.26-2.34-.01-2.76-2.06-4.06-4.56-2.9-2.5,1.16-4.27-.12-3.94-2.86,.33-2.74-1.54-4.29-4.17-3.44-2.62,.84-4.22-.66-3.55-3.33,.67-2.67-.99-4.45-3.7-3.94-2.71,.5-4.1-1.18-3.1-3.75,1-2.57-.43-4.53-3.18-4.37-2.75,.16-3.92-1.69-2.61-4.11,1.32-2.42,.15-4.55-2.6-4.74-2.75-.18-3.68-2.16-2.07-4.4,1.61-2.24,.72-4.5-1.99-5.03-2.71-.53-3.38-2.61-1.5-4.63,1.88-2.02,1.27-4.37-1.35-5.23-2.62-.86-3.03-3.01-.91-4.78,2.12-1.77,1.81-4.18-.68-5.36-2.49-1.18-2.62-3.37-.31-4.85,2.32-1.49,2.32-3.92,0-5.41-2.32-1.49-2.18-3.67,.31-4.85,2.49-1.18,2.79-3.6,.68-5.36-2.12-1.77-1.71-3.91,.91-4.78,2.62-.86,3.22-3.22,1.35-5.23-1.88-2.02-1.2-4.1,1.5-4.63,2.71-.53,3.6-2.79,1.99-5.03-1.61-2.24-.68-4.22,2.07-4.4,2.75-.18,3.92-2.32,2.6-4.74-1.32-2.42-.14-4.27,2.61-4.11,2.75,.16,4.18-1.81,3.18-4.37-1-2.57,.39-4.25,3.1-3.75,2.71,.51,4.37-1.27,3.7-3.94-.67-2.67,.92-4.17,3.55-3.33,2.63,.84,4.5-.71,4.17-3.45-.33-2.74,1.44-4.02,3.94-2.86,2.5,1.16,4.55-.14,4.56-2.9,.01-2.76,1.93-3.81,4.26-2.34,2.33,1.47,4.53,.43,4.89-2.3,.36-2.73,2.39-3.54,4.52-1.79,2.13,1.75,4.44,1,5.14-1.67,.7-2.67,2.82-3.21,4.71-1.21,1.9,2,4.28,1.54,5.31-1.01,1.03-2.56,3.2-2.83,4.83-.61,1.63,2.22,4.06,2.07,5.39-.34Z"/></g><g id="bg_circle-2"><polyline class="cls-9" points="68.77 118.46 68.77 132.07 97.59 132.07 97.59 118.46"/><path class="cls-7" d="M120.01,80.66c0,5.34-.75,10.58-2.15,15.38H48.5c-1.4-4.8-2.15-10.04-2.15-15.38,0-1.03,.03-2.23,.09-3.03H119.91c.06,.8,.09,1.99,.09,3.03Z"/><path class="cls-10" d="M67.16,48.15c3.54-2.18,6.76-4.92,9.04-8.4,1.3-1.99,3.52-3.75,6.99-3.75,3.47,0,5.69,1.76,6.99,3.75,2.28,3.49,5.5,6.23,9.04,8.4,9.91,6.1,16,18.04,16,32.68,0,23.04-14.85,43.2-32.02,43.2s-32.02-20.16-32.02-43.2c0-14.64,6.08-26.58,16-32.68Z"/><g><path class="cls-1" d="M83.18,117.4c-13.43,0-25.22-17.09-25.22-36.57,0-17.66,10.61-30.48,25.22-30.48s25.22,12.82,25.22,30.48c0,19.48-11.79,36.57-25.22,36.57Z"/><path class="cls-2" d="M83.18,52.35c13.67,0,23.22,11.71,23.22,28.48,0,8.79-2.62,17.68-7.2,24.39-4.47,6.56-10.16,10.18-16.02,10.18s-11.55-3.61-16.02-10.18c-4.57-6.71-7.2-15.6-7.2-24.39,0-16.77,9.55-28.48,23.22-28.48m0-4c-15.25,0-27.22,12.86-27.22,32.48s11.97,38.57,27.22,38.57,27.22-18.95,27.22-38.57-11.97-32.48-27.22-32.48h0Z"/><path class="cls-6" d="M110.4,80.83c0,19.62-11.97,38.57-27.22,38.57s-27.22-18.95-27.22-38.57,11.97-32.48,27.22-32.48,27.22,12.86,27.22,32.48Z"/></g><path class="cls-8" d="M63.16,77.7c0,20.26,9.91,40.16,20.01,40.16s20.01-19.89,20.01-40.16"/><line class="cls-6" x1="83.18" y1="78.43" x2="83.18" y2="119.26"/><g><path class="cls-14" d="M93.99,87.64c-4.86,0-8.81-4.31-8.81-9.61s3.95-9.61,8.81-9.61,8.81,4.31,8.81,9.61-3.95,9.61-8.81,9.61Z"/><path class="cls-13" d="M93.99,70.42c3.75,0,6.81,3.41,6.81,7.61s-3.05,7.61-6.81,7.61-6.81-3.41-6.81-7.61,3.05-7.61,6.81-7.61m0-4c-5.97,0-10.81,5.2-10.81,11.61s4.84,11.61,10.81,11.61,10.81-5.2,10.81-11.61-4.84-11.61-10.81-11.61h0Z"/><ellipse class="cls-6" cx="93.99" cy="78.03" rx="10.81" ry="11.61"/></g><g><path class="cls-15" d="M72.37,87.64c-4.86,0-8.81-4.31-8.81-9.61s3.95-9.61,8.81-9.61,8.81,4.31,8.81,9.61-3.95,9.61-8.81,9.61Z"/><path class="cls-13" d="M72.37,70.42c3.75,0,6.81,3.41,6.81,7.61s-3.05,7.61-6.81,7.61-6.81-3.41-6.81-7.61,3.05-7.61,6.81-7.61m0-4c-5.97,0-10.81,5.2-10.81,11.61s4.84,11.61,10.81,11.61,10.81-5.2,10.81-11.61-4.84-11.61-10.81-11.61h0Z"/><ellipse class="cls-6" cx="72.37" cy="78.03" rx="10.81" ry="11.61"/></g><circle class="cls-5" cx="93.99" cy="78.03" r="3.6"/><line class="cls-6" x1="87.81" y1="96.33" x2="83.18" y2="91.69"/><path class="cls-6" d="M61.56,77.7c0,19.59,9.68,41.7,21.62,41.7,11.94,0,21.62-22.11,21.62-41.7"/><circle class="cls-5" cx="72.37" cy="78.03" r="3.6"/><line class="cls-6" x1="78.55" y1="96.33" x2="83.18" y2="91.69"/><ellipse class="cls-3" cx="83.18" cy="44.49" rx="3.84" ry="3.86"/><line class="cls-6" x1="79.18" y1="104.85" x2="87.18" y2="104.85"/></g><g id="smalltext"><g id="smalltext-2"><path class="cls-4" d="M121.84,28.86c.79-1.09,1.86-1.13,2.74-.49,.4,.29,.65,.6,.8,.86l.86-.71c-.12-.25-.47-.68-1.05-1.09-1.48-1.07-3.35-1.02-4.57,.65-1.01,1.4-.91,3.1,.79,4.33,.59,.43,1.14,.65,1.41,.7l.46-.99c-.29-.07-.7-.27-1.04-.51-.99-.72-1.12-1.75-.41-2.74Z"/><path class="cls-4" d="M127.35,33.08h.01c.71,.26,1.29,.12,1.69-.35,.52-.61,.42-1.56-.53-2.37-.58-.49-1.25-.78-1.66-.84l-.43,.93c.27,.04,.79,.21,1.16,.53,.44,.38,.48,.76,.26,1.02-.32,.37-.88,.13-1.22-.16l-.41-.35-.64,.75,.42,.36c.46,.39,.72,.96,.35,1.41-.28,.33-.78,.36-1.32-.1-.42-.36-.7-.9-.8-1.15l-.88,.6c.12,.38,.48,.95,1.05,1.44,1.13,.96,2.31,.98,2.98,.2,.5-.58,.41-1.35-.04-1.91Z"/><path class="cls-4" d="M133.6,35.57c-.06-.52-.37-1.06-.97-1.66-.59-.59-1.05-.97-1.4-1.22l-4.23,4.23,.96,.96,1.54-1.54c.07,.1,.18,.22,.31,.35,.57,.57,1.21,.92,1.85,.94,.49,.02,.99-.2,1.41-.62,.42-.42,.6-.96,.54-1.45Zm-1.52,.51c-.43,.43-1.01,.38-1.53-.14-.14-.14-.23-.25-.3-.35l1.27-1.27c.09,.05,.24,.17,.43,.36,.49,.49,.52,.99,.13,1.39Z"/><rect class="cls-4" x="132.39" y="38.42" width=".91" height="2.35" transform="translate(7.19 98.13) rotate(-41.58)"/><path class="cls-4" d="M138.23,40.46c-.93-1.19-2.43-.93-3.76,.12-1.3,1.03-1.95,2.39-1.02,3.58,.92,1.17,2.35,.98,3.77-.13,1.26-.99,1.98-2.34,1.01-3.57Zm-1.87,2.5c-1.05,.82-1.75,1-2.08,.58-.32-.41-.02-1.06,1.04-1.89,1.07-.84,1.78-.96,2.09-.57,.34,.43-.02,1.07-1.04,1.87Z"/><path class="cls-4" d="M112.32,139.97c-.65,.34-1.09,.73-1.25,.96l.68,.86c.19-.23,.55-.51,.92-.71,1.08-.57,2.07-.23,2.64,.85,.63,1.19,.19,2.17-.77,2.68-.43,.23-.83,.31-1.13,.34l.26,1.09c.27,0,.82-.12,1.45-.46,1.62-.85,2.4-2.56,1.43-4.39-.81-1.53-2.38-2.19-4.24-1.21Z"/><path class="cls-4" d="M110.86,146.15c-.53,.23-.89,.1-1.03-.22-.19-.45,.27-.84,.69-1.03l.49-.21-.39-.9-.51,.22c-.56,.24-1.19,.22-1.42-.31-.17-.4,.02-.86,.68-1.13,.51-.22,1.12-.23,1.39-.21l-.15-1.05c-.4-.06-1.06,0-1.76,.31-1.36,.58-1.9,1.63-1.5,2.58,.3,.71,1.03,.97,1.73,.81v.02c-.55,.51-.68,1.1-.44,1.67,.32,.74,1.21,1.07,2.36,.58,.7-.3,1.25-.77,1.49-1.12l-.65-.8c-.16,.23-.54,.61-.98,.8Z"/><path class="cls-4" d="M104.49,143.43l.7,2.06c-.12,.02-.28,.06-.45,.12-.76,.26-1.36,.67-1.66,1.24-.24,.43-.26,.97-.06,1.54,.19,.56,.59,.96,1.06,1.12,.49,.18,1.12,.14,1.92-.13,.79-.27,1.34-.51,1.71-.71l-1.92-5.67-1.29,.44Zm1.09,4.99c-.66,.22-1.12,.03-1.3-.5-.2-.58,.11-1.08,.8-1.31,.19-.06,.33-.1,.44-.11l.57,1.7c-.09,.05-.26,.14-.52,.22Z"/><rect class="cls-4" x="99.64" y="146.58" width="2.35" height=".91" transform="translate(-35.08 31.64) rotate(-15.23)"/><path class="cls-4" d="M96.45,145.55c-1.46,.3-1.92,1.67-1.56,3.44,.33,1.57,1.22,2.81,2.75,2.5,1.48-.31,1.91-1.76,1.56-3.43-.34-1.62-1.27-2.81-2.76-2.51Zm.99,4.91c-.53,.11-.95-.5-1.21-1.77-.27-1.3-.12-2.02,.4-2.13,.51-.11,.96,.45,1.23,1.77,.28,1.33,.07,2.02-.42,2.12Z"/><path class="cls-4" d="M23.03,59.77c.02,.29-.06,.75-.2,1.15-.41,1.15-1.36,1.57-2.51,1.17-1.27-.45-1.61-1.47-1.25-2.49,.16-.46,.39-.79,.6-1.01l-.93-.62c-.2,.18-.51,.65-.75,1.32-.61,1.73-.02,3.5,1.93,4.19,1.63,.57,3.23-.01,3.93-1.99,.24-.69,.3-1.28,.27-1.55l-1.08-.17Z"/><path class="cls-4" d="M24.6,55.05c-.7-.31-1.42-.01-1.82,.58h-.02c.06-.76-.24-1.29-.81-1.54-.73-.33-1.62,.04-2.12,1.18-.31,.69-.4,1.42-.33,1.83l1.02,.14c-.03-.28-.02-.82,.18-1.26,.23-.53,.59-.68,.91-.54,.45,.2,.38,.8,.19,1.22l-.22,.49,.9,.4,.23-.51c.25-.55,.72-.97,1.25-.73,.4,.18,.56,.65,.28,1.29-.23,.51-.66,.93-.88,1.1l.83,.67c.33-.22,.77-.73,1.08-1.42,.6-1.35,.28-2.49-.66-2.91Z"/><path class="cls-4" d="M25.56,52.24c.38-.71,.54-1.42,.37-2.04-.12-.48-.48-.89-1-1.17s-1.09-.3-1.54-.1c-.48,.2-.91,.66-1.31,1.4-.4,.73-.63,1.28-.77,1.69l5.26,2.85,.65-1.19-1.91-1.03c.08-.1,.16-.24,.25-.4Zm-.93-.49c-.1,.18-.17,.29-.25,.38l-1.57-.85c.03-.1,.1-.28,.23-.51,.33-.61,.8-.78,1.29-.52,.54,.29,.65,.86,.3,1.5Z"/><rect class="cls-4" x="26.3" y="48.04" width="2.35" height=".91" transform="translate(-28.22 46.15) rotate(-58.06)"/><path class="cls-4" d="M30.49,43.03c-1.31-.93-2.81-1.23-3.71,.04-.88,1.23-.2,2.59,1.19,3.58,1.35,.95,2.85,1.2,3.72-.04,.86-1.22,.27-2.54-1.2-3.58Zm.37,2.96c-.3,.43-1.01,.32-2.11-.46-1.11-.79-1.43-1.43-1.14-1.84,.32-.44,1.04-.28,2.09,.47,1.08,.77,1.46,1.4,1.15,1.83Z"/></g><circle id="bg_circle-3" class="cls-11" cx="83.49" cy="83.36" r="74.9" transform="translate(-11.52 153.31) rotate(-81.32)"/></g></svg>