<?xml version="1.0" encoding="UTF-8"?><svg id="darthvader" xmlns="http://www.w3.org/2000/svg" xmlns:xlink="http://www.w3.org/1999/xlink" viewBox="0 0 166.69 167.01"><defs>

<filter id="drop-shadow-1" filterUnits="userSpaceOnUse"><feOffset dx="0" dy="7.2"/><feGaussianBlur result="blur" stdDeviation="7.2"/><feFlood flood-color="#000" flood-opacity=".75"/><feComposite in2="blur" operator="in"/><feComposite in="SourceGraphic"/></filter><linearGradient id="linear-gradient" x1="49.46" y1="60.78" x2="116.69" y2="60.78" gradientUnits="userSpaceOnUse"><stop offset="0" stop-color="#c186bb"/><stop offset=".17" stop-color="#b68cbc"/><stop offset=".46" stop-color="#9a9cc2"/><stop offset=".83" stop-color="#6cb7ca"/><stop offset="1" stop-color="#56c5cf"/></linearGradient><linearGradient id="linear-gradient-2" x1="37.09" y1="89.57" x2="129.09" y2="89.57" gradientUnits="userSpaceOnUse"><stop offset="0" stop-color="#56c5cf"/><stop offset="1" stop-color="#c186bb"/></linearGradient><linearGradient id="linear-gradient-3" x1="45.44" y1="96.09" x2="120.76" y2="96.09" gradientUnits="userSpaceOnUse"><stop offset="0" stop-color="#c186bb"/><stop offset="1" stop-color="#9adce2"/></linearGradient><linearGradient id="linear-gradient-4" x1="59.02" y1="109.98" x2="107.13" y2="109.98" gradientUnits="userSpaceOnUse"><stop offset="0" stop-color="#56c5cf"/><stop offset=".21" stop-color="#74b8cc"/><stop offset=".57" stop-color="#a2a5c7"/><stop offset=".84" stop-color="#be99c5"/><stop offset="1" stop-color="#c995c4"/></linearGradient><linearGradient id="linear-gradient-5" x1="87.72" y1="81.75" x2="107.17" y2="81.75" gradientUnits="userSpaceOnUse"><stop offset="0" stop-color="#89d7dd"/><stop offset=".38" stop-color="#aabfd5"/><stop offset=".77" stop-color="#c6abce"/><stop offset="1" stop-color="#d1a4cc"/></linearGradient><linearGradient id="linear-gradient-6" x1="58.96" y1="81.75" x2="78.41" y2="81.75" gradientUnits="userSpaceOnUse"><stop offset="0" stop-color="#d1a4cc"/><stop offset=".23" stop-color="#c6abce"/><stop offset=".62" stop-color="#aabfd5"/><stop offset="1" stop-color="#89d7dd"/></linearGradient><linearGradient id="linear-gradient-7" x1="59.66" y1="105.99" x2="106.49" y2="105.99" gradientUnits="userSpaceOnUse"><stop offset="0" stop-color="#9adce2"/><stop offset="1" stop-color="#c995c4"/></linearGradient>



<style>

      /* these are my interactive overrides */
      #smalltext { transition: all 0.5s ease; transform-origin: 50%;}

      #darthvader:hover #bg_circle { fill: green; }

      #darthvader:hover #smalltext { fill: red; transform: rotate(170deg); }

</style>

    <script>
      let theBadge = document.querySelector('#darthvader');
      
      function logMyId() {        
        console.log(this.id);
      }

      // event handling at the bottom
      theBadge.addEventListener('click', logMyId);
    </script>

</defs>



<g id="newBadge"><path id="bg_circle" d="M80.91,1.81c1.34-2.41,3.53-2.41,4.87,0,1.34,2.41,3.76,2.56,5.39,.34,1.63-2.22,3.8-1.95,4.83,.61,1.02,2.56,3.41,3.01,5.31,1.01,1.9-2,4.01-1.46,4.71,1.21,.7,2.67,3.01,3.42,5.14,1.67,2.13-1.75,4.16-.94,4.52,1.79,.36,2.73,2.56,3.77,4.89,2.3,2.33-1.47,4.25-.41,4.26,2.34,.01,2.76,2.07,4.06,4.56,2.9,2.5-1.16,4.27,.12,3.93,2.86-.33,2.74,1.54,4.29,4.17,3.44,2.62-.84,4.22,.66,3.54,3.33-.67,2.67,.99,4.45,3.7,3.94,2.71-.5,4.1,1.18,3.1,3.75-1,2.57,.43,4.53,3.18,4.37,2.75-.16,3.92,1.69,2.61,4.11-1.32,2.42-.15,4.55,2.6,4.74,2.75,.18,3.68,2.17,2.07,4.4-1.61,2.24-.72,4.5,1.99,5.03,2.7,.53,3.38,2.61,1.5,4.63-1.88,2.02-1.27,4.37,1.34,5.23,2.62,.86,3.03,3.01,.91,4.78-2.12,1.77-1.81,4.18,.68,5.36,2.49,1.18,2.63,3.37,.31,4.85-2.32,1.49-2.32,3.92,0,5.41,2.32,1.49,2.18,3.67-.31,4.85-2.49,1.18-2.79,3.6-.68,5.36,2.12,1.77,1.71,3.91-.91,4.78-2.62,.86-3.22,3.22-1.34,5.23,1.88,2.02,1.2,4.1-1.5,4.63-2.7,.53-3.6,2.79-1.99,5.03,1.61,2.24,.68,4.22-2.07,4.4-2.75,.18-3.92,2.32-2.6,4.74,1.32,2.42,.14,4.27-2.61,4.11-2.75-.16-4.18,1.81-3.18,4.37,1,2.57-.39,4.25-3.1,3.75-2.71-.51-4.37,1.27-3.7,3.94,.67,2.67-.92,4.17-3.54,3.33-2.62-.84-4.5,.71-4.17,3.44,.33,2.74-1.44,4.02-3.93,2.86-2.5-1.16-4.55,.14-4.56,2.9-.01,2.76-1.93,3.81-4.26,2.34-2.33-1.47-4.53-.43-4.89,2.3-.36,2.73-2.39,3.54-4.52,1.79-2.13-1.75-4.45-1-5.14,1.67-.7,2.67-2.81,3.21-4.71,1.21-1.9-2-4.28-1.54-5.31,1.01-1.03,2.56-3.2,2.83-4.83,.61-1.63-2.22-4.06-2.07-5.39,.34-1.34,2.41-3.53,2.41-4.87,0-1.34-2.41-3.77-2.56-5.39-.34-1.63,2.22-3.8,1.95-4.83-.61-1.02-2.56-3.41-3.01-5.31-1.01-1.89,2-4.01,1.46-4.71-1.21-.7-2.67-3.01-3.42-5.14-1.67-2.13,1.75-4.16,.94-4.52-1.79-.36-2.73-2.56-3.77-4.89-2.3-2.33,1.47-4.25,.41-4.26-2.34-.01-2.76-2.06-4.06-4.56-2.9-2.5,1.16-4.27-.12-3.94-2.86,.33-2.74-1.54-4.29-4.17-3.44-2.62,.84-4.22-.66-3.55-3.33,.67-2.67-.99-4.45-3.7-3.94-2.71,.5-4.1-1.18-3.1-3.75,1-2.57-.43-4.53-3.18-4.37-2.75,.16-3.92-1.69-2.61-4.11,1.32-2.42,.15-4.55-2.6-4.74-2.75-.18-3.68-2.16-2.07-4.4,1.61-2.24,.72-4.5-1.99-5.03-2.71-.53-3.38-2.61-1.5-4.63,1.88-2.02,1.27-4.37-1.35-5.23-2.62-.86-3.03-3.01-.91-4.78,2.12-1.77,1.81-4.18-.68-5.36-2.49-1.18-2.62-3.37-.31-4.85,2.32-1.49,2.32-3.92,0-5.41-2.32-1.49-2.18-3.67,.31-4.85,2.49-1.18,2.79-3.6,.68-5.36-2.12-1.77-1.71-3.91,.91-4.78,2.62-.86,3.22-3.22,1.35-5.23-1.88-2.02-1.2-4.1,1.5-4.63,2.71-.53,3.6-2.79,1.99-5.03-1.61-2.24-.68-4.22,2.07-4.4,2.75-.18,3.92-2.32,2.6-4.74-1.32-2.42-.14-4.27,2.61-4.11,2.75,.16,4.18-1.81,3.18-4.37-1-2.57,.39-4.25,3.1-3.75,2.71,.51,4.37-1.27,3.7-3.94-.67-2.67,.92-4.17,3.55-3.33,2.63,.84,4.5-.71,4.17-3.45-.33-2.74,1.44-4.02,3.94-2.86,2.5,1.16,4.55-.14,4.56-2.9,.01-2.76,1.93-3.81,4.26-2.34,2.33,1.47,4.53,.43,4.89-2.3,.36-2.73,2.39-3.54,4.52-1.79,2.13,1.75,4.44,1,5.14-1.67,.7-2.67,2.82-3.21,4.71-1.21,1.9,2,4.28,1.54,5.31-1.01,1.03-2.56,3.2-2.83,4.83-.61,1.63,2.22,4.06,2.07,5.39-.34Z" filter="url(#drop-shadow-1)"/></g><g id="bg_circle-2"><g id="icons"><g id="Darth_Vader"><g><path d="M49.46,84.41v-15.02c0-17.77,14.46-32.23,32.23-32.23h2.77c17.77,0,32.23,14.46,32.23,32.23v15.02H49.46Z" fill="url(#linear-gradient)"/><path d="M84.46,39.16c16.67,0,30.23,13.56,30.23,30.23v13.02H51.46v-13.02c0-16.67,13.56-30.23,30.23-30.23h2.77m0-4h-2.77c-18.9,0-34.23,15.32-34.23,34.23v17.02H118.69v-17.02c0-18.9-15.32-34.23-34.23-34.23h0Z" fill="#d1a4cc"/><path d="M118.69,86.41H47.46v-17.02c0-18.9,15.32-34.23,34.23-34.23h2.77c18.9,0,34.23,15.32,34.23,34.23v17.02Z" fill="none" stroke="#333" stroke-miterlimit="10" stroke-width="4"/></g><path d="M73.6,51.79h19c12.21,0,22.79,8.48,25.44,20.41l10.31,32.05c3.43,11.53-5.21,23.11-17.24,23.11H55.09c-12.03,0-20.67-11.58-17.24-23.11l10.31-32.05c2.65-11.92,13.22-20.41,25.44-20.41Z" fill="url(#linear-gradient-2)" stroke="#303030" stroke-linecap="round" stroke-linejoin="round" stroke-width="4"/><g><path d="M61.43,125.36c-5.13,0-9.81-2.37-12.86-6.49-3.04-4.13-3.92-9.3-2.41-14.21l9.14-27.02c.02-.06,.04-.13,.06-.2,1.42-6.25,6.89-10.62,13.3-10.62h28.87c6.41,0,11.88,4.37,13.3,10.62,.02,.07,.03,.13,.06,.2l9.16,27.07c1.5,4.85,.62,10.03-2.43,14.16-3.04,4.12-7.73,6.49-12.86,6.49H61.43Z" fill="url(#linear-gradient-3)"/><path d="M97.53,68.82c5.47,0,10.14,3.73,11.35,9.06,.03,.13,.07,.27,.11,.4l9.14,27.02c1.3,4.28,.53,8.79-2.12,12.38-2.66,3.61-6.76,5.68-11.25,5.68H61.43c-4.49,0-8.59-2.07-11.25-5.68-2.65-3.6-3.43-8.11-2.12-12.38l9.14-27.02c.04-.13,.08-.26,.11-.4,1.21-5.34,5.88-9.06,11.35-9.06h28.87m0-4h-28.87c-7.3,0-13.64,5.06-15.25,12.18l-9.15,27.07c-3.57,11.57,5.07,23.29,17.18,23.29h43.33c12.11,0,20.75-11.72,17.18-23.29l-9.15-27.07c-1.62-7.12-7.95-12.18-15.25-12.18h0Z" fill="#cceef1"/><path d="M104.76,127.36H61.43c-12.11,0-20.75-11.72-17.18-23.29l9.15-27.07c1.62-7.12,7.95-12.18,15.25-12.18h28.87c7.3,0,13.64,5.06,15.25,12.18l9.15,27.07c3.57,11.57-5.07,23.29-17.18,23.29Z" fill="none" stroke="#303030" stroke-linecap="round" stroke-linejoin="round" stroke-width="4"/></g><g><rect x="59.02" y="90.27" width="48.12" height="39.43" fill="url(#linear-gradient-4)"/><path d="M105.13,92.27v35.43H61.02v-35.43h44.12m4-4H57.02v43.43h52.12v-43.43h0Z" fill="#d1a4cc"/><rect x="57.02" y="88.27" width="52.12" height="43.43" fill="none" stroke="#303030" stroke-linecap="round" stroke-linejoin="round" stroke-width="4"/></g><path d="M82.96,31.81h.27c1.84,0,3.34,1.5,3.34,3.34v29.67h-6.95v-29.67c0-1.84,1.5-3.34,3.34-3.34Z" fill="#56c5cf" stroke="#333" stroke-linejoin="round" stroke-width="4"/><g><path d="M87.72,89.74v-4.95c0-6.09,4.36-11.04,9.73-11.04,5.39,0,9.72,4.32,9.72,9.62,0,.35-.02,4.01-.03,6.37h-19.42Z" fill="url(#linear-gradient-5)"/><path d="M97.54,75.76c4.2,0,7.63,3.42,7.64,7.62,0,.26,0,2.34-.02,4.36h-15.43v-2.95c0-4.98,3.47-9.04,7.73-9.04h.09m0-4h-.09c-6.48,0-11.73,5.84-11.73,13.04v6.95h23.41s.04-7.85,.04-8.37c-.01-6.42-5.22-11.62-11.64-11.62h0Z" fill="#d1a4cc"/><path d="M109.14,91.74h-23.41v-6.95c0-7.2,5.25-13.04,11.73-13.04,.03,0,.06,0,.09,0,6.42,0,11.63,5.2,11.64,11.62,0,.52-.04,8.37-.04,8.37Z" fill="none" stroke="#333" stroke-miterlimit="10" stroke-width="4"/></g><g><path d="M58.99,89.74c-.01-2.36-.03-6.03-.03-6.38,.01-5.3,4.33-9.61,9.63-9.61s9.82,4.95,9.82,11.04v4.95h-19.42Z" fill="url(#linear-gradient-6)"/><path d="M68.69,75.76c4.26,0,7.73,4.06,7.73,9.04v2.95h-15.43c0-2.03-.02-4.12-.02-4.37,0-4.2,3.43-7.61,7.63-7.61h.09m0-4h-.09c-6.41,0-11.62,5.19-11.63,11.61,0,.52,.04,8.38,.04,8.38h23.41v-6.95c0-7.2-5.25-13.04-11.73-13.04h0Z" fill="#d1a4cc"/><path d="M57,91.74h23.41s0-5.1,0-6.95c0-7.2-5.25-13.04-11.73-13.04h-.09c-6.41,0-11.62,5.19-11.63,11.61,0,.52,.04,8.38,.04,8.38Z" fill="none" stroke="#333" stroke-miterlimit="10" stroke-width="4"/></g><g><polygon points="64.83 108.62 59.66 90.27 106.49 90.27 101.32 108.62 83.07 121.71 64.83 108.62" fill="url(#linear-gradient-7)"/><path d="M103.85,92.27l-4.27,15.14-16.51,11.84-16.51-11.84-4.27-15.14h41.55m5.28-4H57.02l6.08,21.57,19.98,14.33,19.98-14.33,6.08-21.57h0Z" fill="#c4ebee"/><polygon points="83.07 124.17 63.1 109.84 57.02 88.27 109.13 88.27 103.05 109.84 83.07 124.17" fill="none" stroke="#303030" stroke-linecap="round" stroke-linejoin="round" stroke-width="4"/></g><line x1="83.09" y1="89.14" x2="83.09" y2="109.98" fill="none" stroke="#333" stroke-linejoin="round" stroke-width="4"/><line x1="76.15" y1="98.69" x2="76.15" y2="109.98" fill="none" stroke="#333" stroke-linejoin="round" stroke-width="4"/><line x1="90.04" y1="98.69" x2="90.04" y2="109.98" fill="none" stroke="#333" stroke-linejoin="round" stroke-width="4"/><g><path d="M83.07,94.92l10.6,11.07h-21.21l10.6-11.07m0-5.78l-19.98,20.85h39.96l-19.98-20.85h0Z" fill="#d1a4cc"/><polygon points="83.07 89.14 63.1 109.98 103.05 109.98 83.07 89.14" fill="none" stroke="#333" stroke-linejoin="round" stroke-width="4"/></g><rect x="78.75" y="83.93" width="8.69" height="8.69" rx="4" ry="4" fill="#56c5cf" stroke="#333" stroke-linejoin="round" stroke-width="4"/><line x1="80.49" y1="71.77" x2="85.7" y2="71.77" fill="none" stroke="#333" stroke-linecap="round" stroke-linejoin="round" stroke-width="4"/></g></g><g id="smalltext"><path d="M122.67,25.79c.46,.23,1.01,.58,1.57,.99,.93,.68,1.41,1.3,1.61,2,.23,.75,.11,1.58-.53,2.45-.69,.94-1.51,1.33-2.27,1.38-.83,.05-1.77-.33-2.72-1.03-.57-.42-.96-.76-1.2-1l3.54-4.8Zm-1.83,4.8c.08,.09,.24,.2,.37,.3,.99,.75,2.06,.68,2.92-.49,.75-1.01,.55-1.98-.4-2.68-.24-.18-.42-.28-.53-.33l-2.36,3.2Z" fill="#fff"/><path d="M125.99,33.96l-1.35,.88-1.06-.94,5.41-3.31,1.34,1.19-2.61,5.79-1.1-.98,.68-1.47-1.3-1.16Zm1.83,.26l.57-1.21c.16-.34,.38-.75,.55-1.08h-.01c-.3,.2-.68,.48-.98,.68l-1.12,.72,1,.89Z" fill="#fff"/><path d="M132.53,33.94c.36,.27,.85,.7,1.35,1.23,.62,.65,.95,1.2,1,1.76,.04,.46-.13,.9-.54,1.28-.56,.53-1.32,.5-1.82,.25l-.02,.02c.17,.42,.04,.87-.26,1.37-.37,.61-.82,1.29-.91,1.53l-.97-1.02c.06-.19,.31-.63,.74-1.28,.43-.64,.41-.97,.02-1.38l-.28-.3-1.73,1.64-.94-.99,4.34-4.12Zm-.96,2.78l.37,.39c.47,.49,1,.55,1.38,.19,.4-.38,.35-.85-.08-1.31-.23-.24-.37-.36-.46-.42l-1.21,1.15Z" fill="#fff"/><path d="M136.31,39.71l-1.03-1.27,.89-.72,2.94,3.62-.89,.72-1.04-1.29-3.82,3.09-.86-1.07,3.82-3.09Z" fill="#fff"/><path d="M140.55,43.36l-1.93,1.31,1.27,1.87,1.93-1.31,.77,1.13-5.02,3.4-.77-1.13,2.1-1.42-1.27-1.87-2.1,1.42-.77-1.13,5.02-3.4,.77,1.13Z" fill="#fff"/><path d="M139.5,53.2l4.48-4.53,.7,1.33-1.94,1.84c-.54,.52-1.07,1-1.67,1.49v.02c.73-.2,1.46-.36,2.17-.5l2.65-.52,.67,1.29-6.32,1-.74-1.42Z" fill="#fff"/><path d="M143.17,57.14l-1.6,.21-.55-1.31,6.31-.66,.7,1.65-4.85,4.1-.58-1.36,1.25-1.04-.68-1.61Zm1.54,1.02l1.04-.85c.29-.24,.67-.51,.96-.74v-.02c-.37,.06-.83,.15-1.19,.2l-1.33,.17,.52,1.24Z" fill="#fff"/><path d="M149.09,59.97c.23,.46,.47,1.07,.68,1.72,.35,1.1,.37,1.88,.13,2.56-.26,.74-.84,1.34-1.87,1.67-1.11,.35-2,.19-2.64-.21-.7-.45-1.24-1.3-1.59-2.43-.21-.68-.33-1.18-.38-1.51l5.68-1.8Zm-4.3,2.8c.01,.12,.07,.3,.12,.46,.36,1.19,1.26,1.76,2.65,1.32,1.2-.38,1.61-1.28,1.25-2.4-.09-.29-.18-.47-.24-.58l-3.79,1.2Z" fill="#fff"/><path d="M148.46,70.6l-.49-2.18-1.41,.32,.55,2.44-1.1,.25-.85-3.78,5.92-1.33,.82,3.65-1.1,.25-.52-2.31-1.23,.28,.49,2.18-1.09,.24Z" fill="#fff"/><path d="M152.08,71.37c.14,.43,.29,1.06,.39,1.79,.13,.89,.08,1.53-.2,2.01-.23,.4-.63,.66-1.18,.74-.76,.11-1.37-.36-1.63-.85h-.03c-.11,.44-.47,.74-1,.97-.65,.28-1.41,.58-1.63,.73l-.2-1.39c.16-.12,.62-.34,1.34-.61,.73-.28,.89-.56,.82-1.12l-.06-.4-2.36,.34-.19-1.35,5.92-.85Zm-2.39,1.72l.08,.53c.1,.67,.5,1.03,1.02,.95,.55-.08,.78-.5,.69-1.12-.05-.32-.1-.51-.13-.6l-1.65,.24Z" fill="#fff"/><path d="M126.09,138.45c-.36,.36-.87,.78-1.43,1.18-.93,.67-1.67,.94-2.4,.92-.79-.01-1.54-.38-2.16-1.26-.68-.94-.8-1.84-.62-2.58,.21-.8,.85-1.58,1.81-2.27,.58-.42,1.02-.68,1.32-.84l3.47,4.84Zm-4-3.22c-.11,.05-.27,.16-.4,.26-1.01,.72-1.28,1.75-.43,2.93,.73,1.02,1.72,1.13,2.68,.44,.24-.17,.39-.31,.48-.41l-2.32-3.23Z" fill="#fff"/><path d="M117.3,139.09l-.42-1.56,1.22-.72,1.48,6.16-1.55,.91-4.7-4.27,1.27-.75,1.19,1.11,1.5-.88Zm-.81,1.66l.98,.92c.27,.26,.59,.59,.85,.85h.02c-.1-.36-.26-.8-.35-1.16l-.34-1.29-1.16,.68Z" fill="#fff"/><path d="M115.29,145.3c-.37,.26-.93,.59-1.59,.9-.81,.39-1.44,.54-1.98,.41-.45-.1-.81-.4-1.05-.91-.33-.69-.07-1.41,.32-1.81v-.03c-.47,.03-.85-.23-1.23-.67-.46-.54-.97-1.17-1.18-1.33l1.27-.6c.16,.12,.51,.49,.98,1.1,.48,.61,.8,.68,1.31,.45l.37-.18-1.03-2.15,1.23-.59,2.58,5.4Zm-2.35-1.77l-.48,.23c-.61,.29-.83,.78-.6,1.26,.24,.5,.7,.59,1.27,.33,.3-.14,.46-.24,.54-.31l-.72-1.51Z" fill="#fff"/><path d="M108.63,147.13l1.53-.59,.41,1.08-4.36,1.67-.41-1.08,1.55-.59-1.76-4.59,1.28-.49,1.76,4.59Z" fill="#fff"/><path d="M103.85,150.02l-.65-2.24-2.17,.62,.64,2.24-1.32,.38-1.68-5.83,1.32-.38,.7,2.44,2.17-.62-.7-2.44,1.32-.38,1.68,5.83-1.32,.38Z" fill="#fff"/><path d="M94.83,145.97l2.92,5.67-1.48,.25-1.15-2.41c-.33-.68-.62-1.32-.9-2.05h-.02c-.03,.75-.11,1.49-.2,2.21l-.33,2.68-1.44,.24,1.02-6.32,1.58-.26Z" fill="#fff"/><path d="M89.91,148.22l.3-1.59,1.41-.12-1.34,6.2-1.79,.15-2.39-5.89,1.47-.12,.59,1.51,1.74-.15Zm-1.45,1.15l.48,1.25c.13,.35,.28,.79,.4,1.14h.02c.06-.37,.11-.83,.18-1.19l.25-1.31-1.34,.11Z" fill="#fff"/><path d="M85.36,152.99c-.51,.07-1.17,.11-1.85,.1-1.15-.02-1.9-.24-2.47-.69-.62-.48-1.01-1.23-.99-2.3,.02-1.16,.45-1.96,1.04-2.44,.65-.52,1.63-.76,2.81-.74,.71,.01,1.22,.06,1.56,.12l-.1,5.96Zm-1.29-4.98c-.12-.02-.31-.03-.48-.03-1.24-.03-2.07,.64-2.1,2.09-.02,1.26,.7,1.94,1.88,1.96,.3,0,.5-.02,.62-.04l.07-3.97Z" fill="#fff"/><path d="M75.51,149.09l2.22,.21,.13-1.44-2.48-.23,.1-1.12,3.85,.35-.56,6.04-3.72-.34,.1-1.12,2.35,.22,.12-1.26-2.22-.21,.1-1.11Z" fill="#fff"/><path d="M73.65,152.29c-.45,0-1.1-.06-1.82-.18-.89-.15-1.48-.39-1.85-.81-.31-.34-.43-.8-.34-1.35,.13-.76,.76-1.19,1.31-1.29v-.03c-.38-.24-.55-.67-.6-1.25-.07-.71-.11-1.52-.19-1.77l1.38,.24c.06,.19,.13,.69,.17,1.46,.04,.78,.25,1.02,.81,1.12l.4,.07,.4-2.35,1.34,.23-1.01,5.89Zm-.9-2.8l-.53-.09c-.67-.12-1.13,.16-1.22,.68-.09,.55,.23,.89,.85,1,.32,.06,.52,.07,.62,.06l.28-1.65Z" fill="#fff"/><path d="M13.99,87.85c-.1-.5-.16-1.16-.18-1.85-.03-1.15,.16-1.91,.58-2.5,.45-.64,1.18-1.06,2.26-1.09,1.16-.03,1.98,.37,2.49,.94,.55,.62,.83,1.59,.86,2.78,.02,.71,0,1.22-.05,1.56l-5.96,.16Zm4.91-1.5c.02-.12,.02-.31,.01-.48-.02-1.24-.73-2.04-2.18-2-1.26,.03-1.9,.79-1.87,1.97,0,.3,.04,.5,.07,.62l3.97-.11Z" fill="#fff"/><path d="M18.39,80.2l1.53,.53-.09,1.42-5.94-2.23,.11-1.79,6.18-1.51-.09,1.48-1.58,.37-.11,1.74Zm-.92-1.6l-1.31,.3c-.36,.08-.83,.16-1.19,.23v.02c.35,.11,.8,.23,1.15,.35l1.26,.44,.08-1.34Z" fill="#fff"/><path d="M14.36,75.06c0-.45,.03-1.1,.14-1.82,.13-.89,.36-1.49,.76-1.87,.34-.32,.79-.45,1.34-.37,.76,.11,1.21,.74,1.32,1.28h.03c.23-.39,.66-.56,1.24-.63,.71-.08,1.51-.15,1.76-.23l-.21,1.39c-.19,.07-.69,.14-1.46,.2-.77,.06-1.01,.28-1.1,.83l-.06,.4,2.35,.35-.2,1.34-5.91-.88Zm2.78-.96l.08-.53c.1-.67-.18-1.13-.7-1.2-.55-.08-.89,.25-.98,.87-.05,.32-.06,.52-.05,.62l1.65,.25Z" fill="#fff"/><path d="M16.57,68.54l-.37,1.6-1.12-.26,1.05-4.55,1.12,.26-.37,1.62,4.79,1.11-.31,1.34-4.79-1.11Z" fill="#fff"/><path d="M16.85,62.95l2.22,.72,.7-2.15-2.22-.72,.42-1.3,5.77,1.87-.42,1.3-2.41-.78-.7,2.15,2.41,.78-.42,1.3-5.77-1.87,.42-1.3Z" fill="#fff"/><path d="M25.25,57.72l-6.33-.75,.62-1.37,2.64,.4c.74,.11,1.45,.22,2.2,.4v-.02c-.59-.44-1.17-.92-1.71-1.4l-2.04-1.78,.61-1.33,4.68,4.38-.67,1.46Z" fill="#fff"/><path d="M26.13,52.39l1.15,1.13-.69,1.24-4.39-4.58,.88-1.57,6.22,1.31-.72,1.29-1.59-.35-.85,1.52Zm-.14-1.84l-1.31-.3c-.36-.08-.81-.21-1.17-.3v.02c.26,.25,.62,.56,.88,.81l.95,.95,.66-1.17Z" fill="#fff"/><path d="M24.71,45.99c.22-.46,.55-1.03,.94-1.6,.65-.95,1.26-1.45,1.95-1.68,.75-.25,1.58-.16,2.46,.45,.96,.66,1.38,1.46,1.46,2.22,.08,.83-.27,1.78-.94,2.75-.4,.59-.73,.98-.96,1.23l-4.91-3.38Zm4.86,1.68c.09-.09,.2-.24,.29-.38,.71-1.02,.61-2.08-.58-2.9-1.04-.72-2-.49-2.67,.48-.17,.25-.26,.43-.31,.54l3.27,2.26Z" fill="#fff"/><path d="M33.49,39.97l-1.42,1.73,1.12,.92,1.59-1.93,.87,.71-2.46,2.99-4.69-3.86,2.38-2.89,.87,.71-1.5,1.83,.98,.8,1.42-1.73,.86,.71Z" fill="#fff"/><path d="M31.87,36.65c.25-.37,.66-.88,1.17-1.4,.62-.65,1.16-1.01,1.71-1.08,.46-.06,.9,.09,1.31,.48,.55,.53,.56,1.3,.33,1.81l.02,.02c.41-.19,.87-.08,1.38,.2,.62,.34,1.32,.76,1.57,.83l-.97,1.01c-.19-.05-.65-.28-1.31-.68-.66-.4-.99-.36-1.38,.04l-.28,.29,1.72,1.65-.94,.98-4.31-4.15Zm2.82,.83l.37-.39c.47-.49,.5-1.02,.12-1.39-.4-.39-.87-.31-1.31,.14-.23,.24-.35,.39-.4,.48l1.2,1.16Z" fill="#fff"/></g><circle id="bg_circle-3" cx="83.49" cy="83.36" r="74.9" transform="translate(-11.52 153.31) rotate(-81.32)" fill="none" opacity=".7" stroke="#fff" stroke-miterlimit="10"/></g></svg>