<?xml version="1.0" encoding="UTF-8"?><svg id="deathstar" xmlns="http://www.w3.org/2000/svg" xmlns:xlink="http://www.w3.org/1999/xlink" viewBox="0 0 166.69 167.01"><defs><filter id="drop-shadow-1" filterUnits="userSpaceOnUse"><feOffset dx="0" dy="7.2"/><feGaussianBlur result="blur" stdDeviation="7.2"/><feFlood flood-color="#000" flood-opacity=".75"/><feComposite in2="blur" operator="in"/><feComposite in="SourceGraphic"/></filter><linearGradient id="linear-gradient" x1="82.26" y1="141.9" x2="82.26" y2="86.23" gradientUnits="userSpaceOnUse"><stop offset="0" stop-color="#56c5cf"/><stop offset=".17" stop-color="#6cb7ca"/><stop offset=".54" stop-color="#9a9cc2"/><stop offset=".83" stop-color="#b68cbc"/><stop offset="1" stop-color="#c186bb"/></linearGradient><linearGradient id="linear-gradient-2" x1="82.26" y1="81.56" x2="82.26" y2="35.89" gradientUnits="userSpaceOnUse"><stop offset="0" stop-color="#c186bb"/><stop offset=".17" stop-color="#b68cbc"/><stop offset=".46" stop-color="#9a9cc2"/><stop offset=".83" stop-color="#6cb7ca"/><stop offset="1" stop-color="#56c5cf"/></linearGradient><linearGradient id="linear-gradient-3" x1="127.67" y1="80.56" x2="127.67" y2="58.9" xlink:href="#linear-gradient-2"/><linearGradient id="linear-gradient-4" x1="58.68" y1="134.28" x2="58.68" y2="102.56" xlink:href="#linear-gradient"/><linearGradient id="linear-gradient-5" x1="44.6" y1="108.56" x2="44.6" y2="88.56" gradientUnits="userSpaceOnUse"><stop offset="0" stop-color="#9adce2"/><stop offset="1" stop-color="#b268aa"/></linearGradient><linearGradient id="linear-gradient-6" x1="95.26" y1="72.57" x2="95.26" y2="42.57" xlink:href="#linear-gradient"/></defs>

<style>

      /* these are my interactive overrides */
      #smalltext { transition: all 0.5s ease; transform-origin: 50%;}

      #deathstar:hover #bg_circle { fill: purple; }

      #deathstar:hover #smalltext { fill: red; transform: rotate(170deg); }

</style>

    <script>
      // select elements you want to interact with first
      let theBadge = document.querySelector('#deathstar');

      // functions always go in the middle
      function logMyId() {        
        console.log(this.id);
      }

      // event handling at the bottom
      theBadge.addEventListener('click', logMyId);
    </script>

<g id="newBadge"><path id="bg_circle" d="M80.91,1.81c1.34-2.41,3.53-2.41,4.87,0,1.34,2.41,3.76,2.56,5.39,.34,1.63-2.22,3.8-1.95,4.83,.61,1.02,2.56,3.41,3.01,5.31,1.01,1.9-2,4.01-1.46,4.71,1.21,.7,2.67,3.01,3.42,5.14,1.67,2.13-1.75,4.16-.94,4.52,1.79,.36,2.73,2.56,3.77,4.89,2.3,2.33-1.47,4.25-.41,4.26,2.34,.01,2.76,2.07,4.06,4.56,2.9,2.5-1.16,4.27,.12,3.93,2.86-.33,2.74,1.54,4.29,4.17,3.44,2.62-.84,4.22,.66,3.54,3.33-.67,2.67,.99,4.45,3.7,3.94,2.71-.5,4.1,1.18,3.1,3.75-1,2.57,.43,4.53,3.18,4.37,2.75-.16,3.92,1.69,2.61,4.11-1.32,2.42-.15,4.55,2.6,4.74,2.75,.18,3.68,2.17,2.07,4.4-1.61,2.24-.72,4.5,1.99,5.03,2.7,.53,3.38,2.61,1.5,4.63-1.88,2.02-1.27,4.37,1.34,5.23,2.62,.86,3.03,3.01,.91,4.78-2.12,1.77-1.81,4.18,.68,5.36,2.49,1.18,2.63,3.37,.31,4.85-2.32,1.49-2.32,3.92,0,5.41,2.32,1.49,2.18,3.67-.31,4.85-2.49,1.18-2.79,3.6-.68,5.36,2.12,1.77,1.71,3.91-.91,4.78-2.62,.86-3.22,3.22-1.34,5.23,1.88,2.02,1.2,4.1-1.5,4.63-2.7,.53-3.6,2.79-1.99,5.03,1.61,2.24,.68,4.22-2.07,4.4-2.75,.18-3.92,2.32-2.6,4.74,1.32,2.42,.14,4.27-2.61,4.11-2.75-.16-4.18,1.81-3.18,4.37,1,2.57-.39,4.25-3.1,3.75-2.71-.51-4.37,1.27-3.7,3.94,.67,2.67-.92,4.17-3.54,3.33-2.62-.84-4.5,.71-4.17,3.44,.33,2.74-1.44,4.02-3.93,2.86-2.5-1.16-4.55,.14-4.56,2.9-.01,2.76-1.93,3.81-4.26,2.34-2.33-1.47-4.53-.43-4.89,2.3-.36,2.73-2.39,3.54-4.52,1.79-2.13-1.75-4.45-1-5.14,1.67-.7,2.67-2.81,3.21-4.71,1.21-1.9-2-4.28-1.54-5.31,1.01-1.03,2.56-3.2,2.83-4.83,.61-1.63-2.22-4.06-2.07-5.39,.34-1.34,2.41-3.53,2.41-4.87,0-1.34-2.41-3.77-2.56-5.39-.34-1.63,2.22-3.8,1.95-4.83-.61-1.02-2.56-3.41-3.01-5.31-1.01-1.89,2-4.01,1.46-4.71-1.21-.7-2.67-3.01-3.42-5.14-1.67-2.13,1.75-4.16,.94-4.52-1.79-.36-2.73-2.56-3.77-4.89-2.3-2.33,1.47-4.25,.41-4.26-2.34-.01-2.76-2.06-4.06-4.56-2.9-2.5,1.16-4.27-.12-3.94-2.86,.33-2.74-1.54-4.29-4.17-3.44-2.62,.84-4.22-.66-3.55-3.33,.67-2.67-.99-4.45-3.7-3.94-2.71,.5-4.1-1.18-3.1-3.75,1-2.57-.43-4.53-3.18-4.37-2.75,.16-3.92-1.69-2.61-4.11,1.32-2.42,.15-4.55-2.6-4.74-2.75-.18-3.68-2.16-2.07-4.4,1.61-2.24,.72-4.5-1.99-5.03-2.71-.53-3.38-2.61-1.5-4.63,1.88-2.02,1.27-4.37-1.35-5.23-2.62-.86-3.03-3.01-.91-4.78,2.12-1.77,1.81-4.18-.68-5.36-2.49-1.18-2.62-3.37-.31-4.85,2.32-1.49,2.32-3.92,0-5.41-2.32-1.49-2.18-3.67,.31-4.85,2.49-1.18,2.79-3.6,.68-5.36-2.12-1.77-1.71-3.91,.91-4.78,2.62-.86,3.22-3.22,1.35-5.23-1.88-2.02-1.2-4.1,1.5-4.63,2.71-.53,3.6-2.79,1.99-5.03-1.61-2.24-.68-4.22,2.07-4.4,2.75-.18,3.92-2.32,2.6-4.74-1.32-2.42-.14-4.27,2.61-4.11,2.75,.16,4.18-1.81,3.18-4.37-1-2.57,.39-4.25,3.1-3.75,2.71,.51,4.37-1.27,3.7-3.94-.67-2.67,.92-4.17,3.55-3.33,2.63,.84,4.5-.71,4.17-3.45-.33-2.74,1.44-4.02,3.94-2.86,2.5,1.16,4.55-.14,4.56-2.9,.01-2.76,1.93-3.81,4.26-2.34,2.33,1.47,4.53,.43,4.89-2.3,.36-2.73,2.39-3.54,4.52-1.79,2.13,1.75,4.44,1,5.14-1.67,.7-2.67,2.82-3.21,4.71-1.21,1.9,2,4.28,1.54,5.31-1.01,1.03-2.56,3.2-2.83,4.83-.61,1.63,2.22,4.06,2.07,5.39-.34Z" filter="url(#drop-shadow-1)"/></g><g id="bg_circle-2"><g id="smalltext"><path d="M122.67,25.79c.46,.23,1.01,.58,1.57,.99,.93,.68,1.41,1.3,1.61,2,.23,.75,.11,1.58-.53,2.45-.69,.94-1.51,1.33-2.27,1.38-.83,.05-1.77-.33-2.72-1.03-.57-.42-.96-.76-1.2-1l3.54-4.8Zm-1.83,4.8c.08,.09,.24,.2,.37,.3,.99,.75,2.06,.68,2.92-.49,.75-1.01,.55-1.98-.4-2.68-.24-.18-.42-.28-.53-.33l-2.36,3.2Z" fill="#fff"/><path d="M128.43,34.76l-1.68-1.47-.95,1.09,1.88,1.65-.74,.85-2.91-2.55,4-4.57,2.81,2.46-.74,.85-1.78-1.56-.83,.95,1.68,1.47-.73,.84Z" fill="#fff"/><path d="M129.63,37.34l-1.42,.77-.99-1.02,5.65-2.89,1.25,1.29-3.05,5.57-1.03-1.06,.8-1.42-1.21-1.25Zm1.81,.4l.66-1.17c.19-.32,.44-.72,.63-1.03h-.01c-.32,.17-.71,.42-1.03,.6l-1.18,.63,.93,.96Z" fill="#fff"/><path d="M135.53,38.79l-1.05-1.25,.88-.74,3,3.58-.88,.74-1.07-1.27-3.77,3.16-.88-1.05,3.77-3.16Z" fill="#fff"/><path d="M139.83,42.35l-1.91,1.34,1.3,1.85,1.91-1.34,.79,1.12-4.96,3.5-.79-1.12,2.07-1.46-1.3-1.85-2.07,1.46-.79-1.12,4.96-3.5,.79,1.12Z" fill="#fff"/><path d="M139.7,50.61c0,.41,.11,1,.4,1.52,.3,.55,.69,.72,1.04,.53,.33-.18,.38-.54,.26-1.3-.17-1.06,0-1.9,.77-2.33,.91-.5,2.01-.11,2.7,1.14,.33,.61,.45,1.11,.48,1.5l-1.11,.26c-.01-.27-.07-.73-.35-1.25-.29-.52-.67-.64-.94-.49-.34,.18-.33,.56-.21,1.39,.16,1.13-.09,1.84-.84,2.25-.89,.49-2.02,.22-2.82-1.24-.33-.6-.5-1.3-.49-1.68l1.13-.3Z" fill="#fff"/><path d="M145.64,54.48l-.67-1.49,1.05-.47,1.92,4.25-1.05,.47-.68-1.51-4.47,2.02-.56-1.25,4.47-2.02Z" fill="#fff"/><path d="M144.35,60.02l-1.61,.13-.49-1.33,6.33-.35,.62,1.69-5.05,3.86-.51-1.39,1.3-.97-.6-1.64Zm1.49,1.1l1.08-.8c.3-.22,.69-.48,.99-.69v-.02c-.37,.04-.84,.11-1.2,.14l-1.33,.1,.46,1.26Z" fill="#fff"/><path d="M150.11,63.09c.19,.41,.41,1.02,.6,1.72,.24,.87,.27,1.51,.05,2.02-.18,.43-.54,.73-1.08,.88-.74,.2-1.4-.19-1.72-.64h-.03c-.05,.46-.38,.79-.88,1.09-.61,.36-1.33,.75-1.52,.92l-.37-1.35c.15-.14,.58-.41,1.25-.77,.69-.36,.82-.66,.67-1.21l-.11-.39-2.3,.63-.36-1.31,5.77-1.57Zm-2.16,2l.14,.52c.18,.66,.62,.96,1.13,.82,.54-.15,.71-.59,.55-1.19-.09-.32-.16-.5-.21-.58l-1.61,.44Z" fill="#fff"/><path d="M129.65,135.49c-.34,.38-.81,.84-1.34,1.28-.89,.73-1.6,1.05-2.33,1.08-.79,.04-1.56-.28-2.24-1.11-.74-.9-.93-1.78-.79-2.53,.15-.82,.75-1.63,1.66-2.38,.55-.45,.97-.74,1.26-.92l3.79,4.6Zm-4.2-2.95c-.11,.06-.25,.18-.38,.29-.96,.78-1.16,1.83-.24,2.95,.8,.97,1.79,1.02,2.7,.27,.23-.19,.37-.34,.45-.44l-2.53-3.06Z" fill="#fff"/><path d="M119.57,138.87l1.83-1.27-.82-1.19-2.05,1.42-.64-.92,3.18-2.2,3.45,4.99-3.07,2.12-.64-.92,1.95-1.34-.72-1.04-1.83,1.27-.63-.92Z" fill="#fff"/><path d="M116.77,139.4l-.41-1.56,1.23-.71,1.42,6.18-1.56,.89-4.66-4.31,1.28-.74,1.18,1.12,1.51-.87Zm-.83,1.65l.97,.93c.27,.26,.59,.6,.85,.86h.02c-.1-.36-.25-.81-.34-1.16l-.33-1.3-1.16,.67Z" fill="#fff"/><path d="M113.92,144.78l1.47-.71,.5,1.04-4.2,2.04-.5-1.04,1.49-.72-2.14-4.42,1.23-.6,2.14,4.42Z" fill="#fff"/><path d="M109.37,148.07l-.83-2.18-2.11,.81,.83,2.18-1.28,.49-2.16-5.67,1.28-.49,.9,2.37,2.11-.8-.9-2.37,1.28-.49,2.16,5.67-1.28,.49Z" fill="#fff"/><path d="M101.42,145.9c-.4-.1-1-.14-1.57,.01-.61,.16-.87,.49-.77,.88,.09,.36,.43,.5,1.19,.57,1.07,.09,1.85,.46,2.07,1.32,.26,1-.39,1.98-1.77,2.33-.67,.17-1.19,.16-1.58,.09l.02-1.14c.26,.05,.73,.11,1.3-.04,.58-.15,.79-.49,.71-.79-.1-.37-.46-.45-1.3-.55-1.14-.12-1.76-.54-1.97-1.37-.25-.98,.28-2.01,1.9-2.43,.67-.17,1.38-.16,1.75-.06v1.17Z" fill="#fff"/><path d="M96.19,150.71l1.61-.29,.2,1.13-4.6,.82-.2-1.13,1.64-.29-.86-4.84,1.35-.24,.86,4.84Z" fill="#fff"/><path d="M91.14,148.09l.27-1.59,1.41-.14-1.23,6.23-1.79,.18-2.5-5.84,1.47-.15,.62,1.5,1.74-.18Zm-1.43,1.17l.51,1.24c.14,.35,.29,.79,.42,1.13h.02c.05-.37,.1-.83,.16-1.19l.23-1.32-1.34,.14Z" fill="#fff"/><path d="M86.74,152.91c-.44,.08-1.09,.15-1.82,.16-.9,.01-1.53-.11-1.97-.45-.37-.28-.57-.71-.58-1.26-.01-.77,.53-1.31,1.05-1.51v-.03c-.42-.16-.67-.56-.83-1.12-.2-.68-.4-1.47-.52-1.7l1.4-.02c.1,.17,.26,.66,.44,1.41,.18,.76,.44,.95,1,.95h.41s-.04-2.39-.04-2.39l1.36-.02,.1,5.99Zm-1.4-2.59h-.54c-.68,.02-1.08,.38-1.07,.9,0,.55,.4,.83,1.02,.83,.33,0,.52-.03,.62-.06l-.03-1.67Z" fill="#fff"/><path d="M15.98,66.23c.06-.51,.2-1.15,.4-1.81,.32-1.1,.74-1.77,1.32-2.2,.63-.47,1.45-.64,2.48-.34,1.12,.33,1.77,.96,2.08,1.65,.33,.76,.3,1.77-.03,2.91-.2,.68-.38,1.16-.52,1.47l-5.72-1.68Zm5.14,.08c.06-.11,.11-.29,.16-.45,.36-1.19-.07-2.17-1.46-2.57-1.21-.36-2.05,.16-2.38,1.3-.08,.29-.12,.49-.12,.61l3.81,1.12Z" fill="#fff"/><path d="M22.42,57.75l-.81,2.08,1.35,.52,.9-2.33,1.05,.41-1.4,3.61-5.66-2.19,1.35-3.48,1.05,.41-.85,2.21,1.18,.46,.81-2.08,1.04,.4Z" fill="#fff"/><path d="M24.44,55.74l1.21,1.07-.62,1.27-4.64-4.32,.79-1.61,6.28,.96-.65,1.33-1.6-.26-.76,1.57Zm-.24-1.83l-1.32-.22c-.37-.06-.82-.17-1.18-.24v.02c.27,.24,.65,.52,.92,.76l1,.89,.59-1.21Z" fill="#fff"/><path d="M23.78,49.7l-.82,1.42-1-.58,2.33-4.04,1,.58-.83,1.44,4.26,2.46-.69,1.19-4.26-2.46Z" fill="#fff"/><path d="M25.7,44.43l1.91,1.34,1.3-1.85-1.91-1.34,.79-1.12,4.97,3.48-.79,1.12-2.08-1.45-1.3,1.85,2.08,1.45-.79,1.12-4.97-3.48,.79-1.12Z" fill="#fff"/><path d="M33.49,41.75c.39-.14,.9-.45,1.29-.89,.42-.47,.44-.9,.14-1.16-.28-.25-.64-.17-1.31,.2-.94,.52-1.79,.65-2.46,.07-.78-.68-.79-1.86,.15-2.93,.46-.52,.89-.8,1.25-.96l.63,.95c-.25,.1-.66,.32-1.05,.76-.4,.45-.38,.85-.14,1.05,.29,.25,.64,.11,1.38-.28,1.01-.54,1.76-.55,2.4,.02,.76,.67,.9,1.83-.2,3.08-.45,.52-1.05,.91-1.42,1.04l-.67-.96Z" fill="#fff"/><path d="M35.09,34.86l-1.17,1.14-.8-.82,3.34-3.26,.8,.82-1.19,1.16,3.43,3.52-.98,.96-3.43-3.52Z" fill="#fff"/><path d="M40.73,34.18l.68,1.47-1.08,.92-2.5-5.83,1.37-1.16,5.36,3.42-1.13,.95-1.36-.89-1.33,1.13Zm.52-1.78l-1.12-.74c-.31-.21-.69-.48-.99-.7h-.01c.16,.34,.39,.75,.54,1.09l.55,1.22,1.03-.87Z" fill="#fff"/><path d="M41.65,27.7c.32-.32,.82-.74,1.41-1.16,.74-.52,1.33-.77,1.88-.74,.46,.03,.87,.26,1.19,.71,.44,.63,.3,1.38-.01,1.84l.02,.02c.44-.1,.87,.09,1.32,.45,.55,.45,1.16,.99,1.39,1.12l-1.15,.81c-.18-.09-.58-.4-1.16-.91-.58-.52-.9-.54-1.37-.22l-.33,.24,1.38,1.95-1.11,.79-3.46-4.89Zm2.62,1.35l.44-.31c.56-.39,.69-.91,.38-1.34-.32-.45-.8-.47-1.31-.11-.27,.19-.41,.32-.48,.39l.97,1.37Z" fill="#fff"/></g><circle id="bg_circle-3" cx="83.49" cy="83.36" r="74.9" transform="translate(-11.52 153.31) rotate(-81.32)" fill="none" opacity=".7" stroke="#fff" stroke-miterlimit="10"/></g><g id="icons"><g id="Death_Star"><g><path d="M135.18,86.56c-1.56,28-24.65,50-52.92,50s-51.36-22-52.92-50h105.83Z" fill="url(#linear-gradient)"/><path d="M29.35,81.56c1.56-28,24.65-50,52.92-50s51.36,22,52.92,50H29.35Z" fill="url(#linear-gradient-2)"/><path d="M47.05,49.32c-1.03,1.78-1.98,3.64-2.85,5.58-.38,.83-.75,1.72-1.09,2.59-.17,.43-.33,.85-.5,1.3-.1,.28-.21,.56-.3,.84-.16,.42-.29,.81-.4,1.15-.17,.48-.31,.93-.44,1.35-.49,1.55-.94,3.2-1.34,4.91-.08,.32-.15,.65-.22,.97-.08,.37-.17,.75-.24,1.13-.13,.61-.23,1.2-.34,1.8-.11,.58-.21,1.2-.3,1.89-.09,.6-.33,1.23-.41,1.86-.07,.6-.35,1.21-.35,1.86h0s-4.52,.01-4.52,.01c.41-3,1.1-5.9,2.04-8.74,1.06-3.19,2.48-6.29,4.21-9.23,2.01-3.41,4.38-6.52,7.05-9.27m35.22-18.76c-19.47,0-36.49,10.35-45.71,26-1.85,3.14-3.39,6.49-4.56,10-1.48,4.44-2.39,9-2.65,14h12.96c.03-1,.08-1.53,.14-2.29,.03-.45,.06-.89,.11-1.33,.05-.6,.12-1.19,.19-1.78,.07-.59,.15-1.18,.24-1.76,.08-.59,.17-1.17,.28-1.75,.1-.58,.2-1.15,.32-1.72,.07-.36,.15-.73,.23-1.08,.06-.3,.13-.6,.2-.9,.37-1.57,.79-3.12,1.26-4.62,.13-.42,.26-.84,.41-1.25,.12-.37,.24-.73,.38-1.09,.09-.27,.19-.54,.29-.81,.15-.4,.3-.8,.46-1.2,.32-.82,.66-1.63,1.02-2.42,6.96-15.57,19.78-26,34.43-26h0Z" fill="#cceef1"/><path d="M82.26,34.56c17.6,0,33.4,8.98,42.26,24.03,.76,1.29,1.46,2.97,2.1,3.97h-6.47c-1.24,0-2.4,.57-3.16,1.55-.76,.98-1.02,2.25-.71,3.45,.75,2.91,1.29,6,1.62,9H61.48s.06-.86,.09-1.29c.04-.5,.08-1,.12-1.47l.06-.57c.04-.37,.07-.74,.12-1.15v-.12c.06-.38,.1-.77,.15-1.15,0-.02,0-.04,0-.06,.24-2.05,.56-4.11,.94-6.13,.14-.74,.28-1.45,.42-2.09,.08-.35,.16-.7,.23-1.03,.11-.48,.22-.97,.33-1.44,.04-.14,.08-.29,.11-.43,.18-.72,.35-1.39,.52-1.99,.34-1.21,.09-2.5-.66-3.5-.76-1-1.94-1.59-3.19-1.59h-6.31c6.8-11,17.07-18,27.84-18m0-4c-14.65,0-27.47,10-34.43,26h12.9c-.2,1-.39,1.44-.57,2.17-.02,.1-.05,.19-.08,.29-.13,.54-.26,1.09-.38,1.64-.07,.33-.14,.66-.22,.99-.16,.74-.31,1.5-.45,2.26-.39,2.06-.72,4.19-.98,6.38-.06,.45-.11,.91-.16,1.36-.07,.58-.12,1.16-.18,1.75-.05,.52-.09,1.04-.13,1.57-.14,1.83-.24,3.59-.29,5.59H122.2c-.21-5-.91-10-2.05-14h12.38c-1.17-4-2.71-6.86-4.56-10-9.22-15.65-26.24-26-45.71-26h0Z" fill="#cceef1"/><path d="M103.15,90.56c-.44,7-1.55,13.14-3.16,18.92-.7,2.49-1.56,5.08-2.46,7.08h-19.05c-.75-5-1.33-10.38-1.7-16.26-.2-3.07-.35-6.74-.43-9.74h26.8Zm4.07-4h-34.95c.06,5,.23,9.57,.52,14,.48,7.58,1.28,14,2.31,20h25.06c1.38-3,2.6-6.36,3.62-10,1.98-7.1,3.21-15,3.44-24h0Z" fill="#cceef1"/><path d="M135.18,80.56h-12.98c-.21-4.87-.91-9.57-2.05-14h12.38c1.48,4.44,2.39,9.13,2.65,14Z" fill="url(#linear-gradient-3)"/><path d="M77.05,134.28c-11.82-1.26-23.27-6.73-31.31-15.1-1.98-2.05-3.79-4.61-5.42-6.61h19.83c.63,0,1.29-.33,1.67-.83,.39-.52,.52-1.21,.34-1.83-.2-.7-.39-1.44-.56-2.18-.17-.7-.88-4.14-1.05-5.11,0-.01,0-.05,0-.05h10.39c.49,7,1.25,13.09,2.21,18.36,1.25,6.81,2.65,10.88,3.91,13.35Z" fill="url(#linear-gradient-4)"/><path d="M69.17,104.56c.49,6,1.16,11.87,2.05,16.73,.83,4.51,1.7,7.92,2.63,10.51-10.11-1.81-19.72-6.79-26.66-14.01-1-1.03-1.96-2.22-2.87-3.22h15.83c1.27,0,2.49-.6,3.26-1.62,.77-1.01,1.02-2.35,.68-3.57-.21-.73-.39-1.44-.55-2.13-.09-.36-.33-1.68-.57-2.68h6.2Zm3.1-4h-13.95c-.06,0-.1,.05-.09,.1,.11,.77,.22,1.53,.36,2.28,.17,1.01,.89,4.48,1.07,5.23,.18,.77,.38,1.53,.59,2.28,.02,.06-.03,.11-.09,.11h-23.32c-.04,.08-.04,.06-.08,.14,2.13,3.55,4.66,6.88,7.55,9.87,9.16,9.53,22.99,15.99,37.07,15.99h0c.1,0,.13-.14,.04-.18-2.47-1.08-4.66-6.93-6.29-15.81-1.03-5.59-2.05-12.37-2.53-19.92,0-.05-.31-.09-.31-.09h0Z" fill="#d1a4cc"/><path d="M131.03,90.56c-.46,3-1.3,5.87-2.28,8.7-.87,2.51-2.05,5.3-3.31,7.3h-2.89c.56-2,1.05-3.31,1.48-5,.91-3.55,1.55-7,1.91-11h5.09Zm4.23-4h-13.06c-.21,5-.91,9.57-2.05,14-.89,3.51-2.06,7-3.47,10h11.09c1.87-3,3.43-6.49,4.64-10,1.52-4.41,2.5-9.07,2.85-13.91v-.09h0Z" fill="#cceef1"/><path d="M37.82,108.56c-1.53-3-2.82-5.62-3.84-8.64-1.25-3.67-2.08-7.36-2.45-11.36h23.76c.07,4,.39,8.41,.94,12.28,.37,2.66,.86,5.72,1.45,7.72h-19.86Z" fill="url(#linear-gradient-5)"/><path d="M53.3,90.56c.13,4,.45,7.2,.93,10.55,.26,1.86,.59,3.45,.96,5.45h-16.18c-1.23-2-2.28-4.76-3.14-7.29-.96-2.82-1.66-5.71-2.09-8.71h19.52Zm3.97-4H29.34s.03,.08,.03,.12c.28,4.83,1.21,9.49,2.71,13.88,1.19,3.51,2.72,7,4.58,10h23.6c-.88-3-1.57-6.49-2.06-10-.63-4.43-.94-9.12-.94-13.99h0Z" fill="#cceef1"/><path d="M132.26,83.5c0,1.02-.03,2.06-.08,3.06H32.34c-.05-1-.08-2.05-.08-3.06s.03-1.94,.08-2.94h99.84c.05,1,.08,1.97,.08,2.94Z" fill="#56c5cf"/><circle cx="95.26" cy="57.57" r="15" fill="url(#linear-gradient-6)"/><path d="M95.26,44.57c7.17,0,13,5.83,13,13s-5.83,13-13,13-13-5.83-13-13,5.83-13,13-13h0Zm0-4c-9.39,0-17,7.61-17,17s7.61,17,17,17,17-7.61,17-17-7.61-17-17-17h0Z" fill="#d1a4cc"/><circle cx="95.26" cy="57.57" r="5" fill="#56c5cf"/></g><g><path d="M57.29,80.56c.13-4.87,.57-9.57,1.28-14,.56-3.51,1.28-7,2.16-10h-12.9c6.96-16,19.64-26,34.29-26" fill="none" stroke="#303030" stroke-linecap="round" stroke-linejoin="round" stroke-width="4"/><path d="M132.26,66.56h-12.11c1.14,4,1.84,9.13,2.05,14" fill="none" stroke="#303030" stroke-linecap="round" stroke-linejoin="round" stroke-width="4"/><path d="M107.22,86.56c-.23,9-1.46,16.9-3.44,24-1.02,3.64-2.24,7-3.62,10h-25.06c-1.03-6-1.83-12.42-2.31-20-.29-4.43-.46-9-.52-14h34.95Z" fill="none" stroke="#303030" stroke-linecap="round" stroke-linejoin="round" stroke-width="4"/><line x1="58.26" y1="100.56" x2="72.26" y2="100.56" fill="none" stroke="#333" stroke-miterlimit="10" stroke-width="4"/><line x1="116.26" y1="110.56" x2="127.26" y2="110.56" fill="none" stroke="#303030" stroke-linejoin="round" stroke-width="4"/><path d="M42.3,80.56c.37-8.73,2.35-16.9,5.53-24" fill="none" stroke="#333" stroke-linejoin="round" stroke-width="4"/><path d="M36.26,110.56h24c-.88-3-1.57-6.49-2.06-10-.63-4.43-.94-9.12-.94-13.99h0" fill="none" stroke="#303030" stroke-linejoin="round" stroke-width="4"/><path d="M122.2,86.56c-.21,4.87-.91,9.57-2.05,14-.89,3.51-2.06,6.86-3.47,10-1.63,3.64-3.57,6.99-5.79,10-7,9.52-17.91,15.58-28.66,15.99-2.81,0-5.29-6.12-7.11-15.99" fill="none" stroke="#333" stroke-linejoin="round" stroke-width="4"/><path d="M132.26,83.5c0,1.02-.03,2.06-.08,3.06H32.34c-.05-1-.08-2.05-.08-3.06s.03-1.94,.08-2.94h99.84c.05,1,.08,1.97,.08,2.94Z" fill="none" stroke="#333" stroke-linejoin="round" stroke-width="4"/><path d="M135.18,86.56c-1.56,28-24.65,50-52.92,50s-51.36-22-52.92-50h105.83Z" fill="none" stroke="#333" stroke-linecap="round" stroke-linejoin="round" stroke-width="4"/><path d="M29.35,80.56c1.56-28,24.65-50,52.92-50s51.36,22,52.92,50H29.35Z" fill="none" stroke="#333" stroke-linecap="round" stroke-linejoin="round" stroke-width="4"/><g><circle cx="95.26" cy="57.57" r="17" fill="none" stroke="#333" stroke-miterlimit="10" stroke-width="4"/><line x1="92.76" y1="61.9" x2="86.76" y2="72.29" fill="none" stroke="#333" stroke-linejoin="round" stroke-width="4"/><line x1="103.76" y1="42.84" x2="97.76" y2="53.24" fill="none" stroke="#333" stroke-linejoin="round" stroke-width="4"/><line x1="103.76" y1="72.29" x2="97.76" y2="61.9" fill="none" stroke="#333" stroke-linejoin="round" stroke-width="4"/><line x1="92.76" y1="53.24" x2="86.76" y2="42.84" fill="none" stroke="#333" stroke-linejoin="round" stroke-width="4"/><line x1="90.26" y1="57.56" x2="78.26" y2="57.56" fill="none" stroke="#333" stroke-linejoin="round" stroke-width="4"/><line x1="112.26" y1="57.56" x2="100.26" y2="57.56" fill="none" stroke="#333" stroke-linejoin="round" stroke-width="4"/><circle cx="95.26" cy="57.57" r="5" fill="none" stroke="#333" stroke-linejoin="round" stroke-width="4"/></g></g></g></g></svg>