<?xml version="1.0" encoding="UTF-8"?><svg id="falcon" xmlns="http://www.w3.org/2000/svg" xmlns:xlink="http://www.w3.org/1999/xlink" viewBox="0 0 166.69 167.01"><defs><filter id="drop-shadow-1" filterUnits="userSpaceOnUse"><feOffset dx="0" dy="7.2"/><feGaussianBlur result="blur" stdDeviation="7.2"/><feFlood flood-color="#000" flood-opacity=".75"/><feComposite in2="blur" operator="in"/><feComposite in="SourceGraphic"/></filter><linearGradient id="linear-gradient" x1="38.75" y1="83.58" x2="130.01" y2="83.58" gradientUnits="userSpaceOnUse"><stop offset="0" stop-color="#c186bb"/><stop offset="1" stop-color="#9adce2"/></linearGradient><linearGradient id="linear-gradient-2" x1="72.03" y1="112.52" x2="72.03" y2="54.43" gradientUnits="userSpaceOnUse"><stop offset="0" stop-color="#56c5cf"/><stop offset=".07" stop-color="#5ebccb"/><stop offset=".49" stop-color="#8b8eb9"/><stop offset=".81" stop-color="#a772ae"/><stop offset="1" stop-color="#b268aa"/></linearGradient><linearGradient id="linear-gradient-3" x1="65.24" y1="83.48" x2="114.9" y2="83.48" gradientUnits="userSpaceOnUse"><stop offset="0" stop-color="#b268aa"/><stop offset=".19" stop-color="#a772ae"/><stop offset=".51" stop-color="#8b8eb9"/><stop offset=".93" stop-color="#5ebccb"/><stop offset="1" stop-color="#56c5cf"/></linearGradient><linearGradient id="linear-gradient-4" x1="65.57" y1="83.48" x2="78.5" y2="83.48" gradientUnits="userSpaceOnUse"><stop offset="0" stop-color="#c186bb"/><stop offset=".17" stop-color="#b68cbc"/><stop offset=".46" stop-color="#9a9cc2"/><stop offset=".83" stop-color="#6cb7ca"/><stop offset="1" stop-color="#56c5cf"/></linearGradient><linearGradient id="linear-gradient-5" x1="38.75" y1="83.51" x2="96.63" y2="83.51" gradientUnits="userSpaceOnUse"><stop offset="0" stop-color="#c995c4"/><stop offset=".16" stop-color="#be99c5"/><stop offset=".43" stop-color="#a2a5c7"/><stop offset=".79" stop-color="#74b8cc"/><stop offset="1" stop-color="#56c5cf"/></linearGradient><linearGradient id="linear-gradient-6" x1="83.9" y1="106.4" x2="108.84" y2="106.4" xlink:href="#linear-gradient-4"/></defs>

<style>

      /* these are my interactive overrides */
      #smalltext { transition: all 0.5s ease; transform-origin: 50%;}

      #falcon:hover #bg_circle { fill: orange; }

      #falcon:hover #smalltext { fill: red; transform: rotate(170deg); }

</style>

    <script>
      // select elements you want to interact with first
      let theBadge = document.querySelector('#falcon');

      // functions always go in the middle
      function logMyId() {        
        console.log(this.id);
      }

      // event handling at the bottom
      theBadge.addEventListener('click', logMyId);
    </script>

<g id="newBadge"><path id="bg_circle" d="M80.91,1.81c1.34-2.41,3.53-2.41,4.87,0,1.34,2.41,3.76,2.56,5.39,.34,1.63-2.22,3.8-1.95,4.83,.61,1.02,2.56,3.41,3.01,5.31,1.01,1.9-2,4.01-1.46,4.71,1.21,.7,2.67,3.01,3.42,5.14,1.67,2.13-1.75,4.16-.94,4.52,1.79,.36,2.73,2.56,3.77,4.89,2.3,2.33-1.47,4.25-.41,4.26,2.34,.01,2.76,2.07,4.06,4.56,2.9,2.5-1.16,4.27,.12,3.93,2.86-.33,2.74,1.54,4.29,4.17,3.44,2.62-.84,4.22,.66,3.54,3.33-.67,2.67,.99,4.45,3.7,3.94,2.71-.5,4.1,1.18,3.1,3.75-1,2.57,.43,4.53,3.18,4.37,2.75-.16,3.92,1.69,2.61,4.11-1.32,2.42-.15,4.55,2.6,4.74,2.75,.18,3.68,2.17,2.07,4.4-1.61,2.24-.72,4.5,1.99,5.03,2.7,.53,3.38,2.61,1.5,4.63-1.88,2.02-1.27,4.37,1.34,5.23,2.62,.86,3.03,3.01,.91,4.78-2.12,1.77-1.81,4.18,.68,5.36,2.49,1.18,2.63,3.37,.31,4.85-2.32,1.49-2.32,3.92,0,5.41,2.32,1.49,2.18,3.67-.31,4.85-2.49,1.18-2.79,3.6-.68,5.36,2.12,1.77,1.71,3.91-.91,4.78-2.62,.86-3.22,3.22-1.34,5.23,1.88,2.02,1.2,4.1-1.5,4.63-2.7,.53-3.6,2.79-1.99,5.03,1.61,2.24,.68,4.22-2.07,4.4-2.75,.18-3.92,2.32-2.6,4.74,1.32,2.42,.14,4.27-2.61,4.11-2.75-.16-4.18,1.81-3.18,4.37,1,2.57-.39,4.25-3.1,3.75-2.71-.51-4.37,1.27-3.7,3.94,.67,2.67-.92,4.17-3.54,3.33-2.62-.84-4.5,.71-4.17,3.44,.33,2.74-1.44,4.02-3.93,2.86-2.5-1.16-4.55,.14-4.56,2.9-.01,2.76-1.93,3.81-4.26,2.34-2.33-1.47-4.53-.43-4.89,2.3-.36,2.73-2.39,3.54-4.52,1.79-2.13-1.75-4.45-1-5.14,1.67-.7,2.67-2.81,3.21-4.71,1.21-1.9-2-4.28-1.54-5.31,1.01-1.03,2.56-3.2,2.83-4.83,.61-1.63-2.22-4.06-2.07-5.39,.34-1.34,2.41-3.53,2.41-4.87,0-1.34-2.41-3.77-2.56-5.39-.34-1.63,2.22-3.8,1.95-4.83-.61-1.02-2.56-3.41-3.01-5.31-1.01-1.89,2-4.01,1.46-4.71-1.21-.7-2.67-3.01-3.42-5.14-1.67-2.13,1.75-4.16,.94-4.52-1.79-.36-2.73-2.56-3.77-4.89-2.3-2.33,1.47-4.25,.41-4.26-2.34-.01-2.76-2.06-4.06-4.56-2.9-2.5,1.16-4.27-.12-3.94-2.86,.33-2.74-1.54-4.29-4.17-3.44-2.62,.84-4.22-.66-3.55-3.33,.67-2.67-.99-4.45-3.7-3.94-2.71,.5-4.1-1.18-3.1-3.75,1-2.57-.43-4.53-3.18-4.37-2.75,.16-3.92-1.69-2.61-4.11,1.32-2.42,.15-4.55-2.6-4.74-2.75-.18-3.68-2.16-2.07-4.4,1.61-2.24,.72-4.5-1.99-5.03-2.71-.53-3.38-2.61-1.5-4.63,1.88-2.02,1.27-4.37-1.35-5.23-2.62-.86-3.03-3.01-.91-4.78,2.12-1.77,1.81-4.18-.68-5.36-2.49-1.18-2.62-3.37-.31-4.85,2.32-1.49,2.32-3.92,0-5.41-2.32-1.49-2.18-3.67,.31-4.85,2.49-1.18,2.79-3.6,.68-5.36-2.12-1.77-1.71-3.91,.91-4.78,2.62-.86,3.22-3.22,1.35-5.23-1.88-2.02-1.2-4.1,1.5-4.63,2.71-.53,3.6-2.79,1.99-5.03-1.61-2.24-.68-4.22,2.07-4.4,2.75-.18,3.92-2.32,2.6-4.74-1.32-2.42-.14-4.27,2.61-4.11,2.75,.16,4.18-1.81,3.18-4.37-1-2.57,.39-4.25,3.1-3.75,2.71,.51,4.37-1.27,3.7-3.94-.67-2.67,.92-4.17,3.55-3.33,2.63,.84,4.5-.71,4.17-3.45-.33-2.74,1.44-4.02,3.94-2.86,2.5,1.16,4.55-.14,4.56-2.9,.01-2.76,1.93-3.81,4.26-2.34,2.33,1.47,4.53,.43,4.89-2.3,.36-2.73,2.39-3.54,4.52-1.79,2.13,1.75,4.44,1,5.14-1.67,.7-2.67,2.82-3.21,4.71-1.21,1.9,2,4.28,1.54,5.31-1.01,1.03-2.56,3.2-2.83,4.83-.61,1.63,2.22,4.06,2.07,5.39-.34Z" filter="url(#drop-shadow-1)"/></g><g id="bg_circle-2"><g id="smalltext"><path d="M122.68,25.72l3.01,2.16-.66,.91-1.89-1.36-.81,1.13,1.77,1.27-.65,.9-1.77-1.27-1.42,1.98-1.11-.8,3.54-4.93Z" fill="#fff"/><path d="M124.47,32.69l-1.33,.92-1.09-.91,5.31-3.47,1.38,1.15-2.44,5.87-1.13-.95,.64-1.5-1.34-1.12Zm1.84,.2l.54-1.23c.15-.34,.36-.76,.51-1.09h-.01c-.3,.21-.66,.5-.96,.71l-1.1,.76,1.03,.86Z" fill="#fff"/><path d="M131.04,32.41l.98,.96-3.44,3.51,1.72,1.69-.8,.82-2.7-2.65,4.25-4.33Z" fill="#fff"/><path d="M132.82,42.88c-.25-.1-.74-.44-1.22-.99-1.39-1.57-1.13-3.26,.17-4.4,1.55-1.37,3.39-1.02,4.6,.35,.47,.53,.73,1.03,.79,1.3l-1,.51c-.09-.28-.27-.65-.59-1.01-.72-.81-1.77-1.01-2.78-.12-.91,.81-1.01,1.85-.2,2.77,.28,.31,.64,.6,.91,.73l-.67,.87Z" fill="#fff"/><path d="M138.82,45.98c-1.6,1.19-3.28,.94-4.34-.49-1.07-1.45-.61-3.11,.78-4.14,1.46-1.08,3.25-.96,4.31,.48,1.11,1.5,.6,3.15-.75,4.15Zm-2.68-3.48c-.96,.71-1.29,1.66-.75,2.4,.55,.75,1.57,.65,2.52-.06,.88-.65,1.32-1.62,.76-2.38-.55-.75-1.58-.66-2.53,.04Z" fill="#fff"/><path d="M136.73,48.46l5.19-3.13,.82,1.37-1.26,2.23c-.36,.64-.82,1.33-1.27,1.92v.02c.66-.49,1.34-.93,2.13-1.4l1.51-.91,.65,1.08-5.19,3.13-.74-1.23,1.33-2.32c.37-.65,.83-1.39,1.29-2.01l-.02-.02c-.67,.45-1.39,.91-2.24,1.42l-1.56,.94-.65-1.08Z" fill="#fff"/><path d="M129.2,135.98l-2.86,2.36-.72-.87,1.8-1.49-.89-1.07-1.68,1.39-.71-.86,1.68-1.39-1.55-1.88,1.06-.87,3.87,4.68Z" fill="#fff"/><path d="M121.98,135.95l-.55-1.52,1.16-.82,2.01,6.02-1.46,1.04-5.06-3.85,1.21-.86,1.28,1,1.42-1.01Zm-.66,1.73l1.06,.83c.29,.23,.64,.54,.93,.78h.02c-.13-.35-.33-.78-.45-1.13l-.45-1.26-1.09,.78Z" fill="#fff"/><path d="M120.59,142.37l-1.18,.7-2.52-4.23-2.07,1.24-.59-.99,3.25-1.94,3.11,5.21Z" fill="#fff"/><path d="M110.02,141.42c.17-.22,.62-.6,1.27-.93,1.88-.94,3.43-.26,4.21,1.29,.93,1.85,.12,3.54-1.52,4.36-.64,.32-1.18,.44-1.46,.43l-.24-1.09c.3-.02,.69-.09,1.13-.31,.97-.49,1.43-1.46,.82-2.66-.55-1.09-1.53-1.45-2.62-.9-.38,.19-.74,.47-.94,.69l-.67-.87Z" fill="#fff"/><path d="M105.47,146.42c-.74-1.85-.06-3.41,1.58-4.07,1.67-.67,3.16,.21,3.8,1.82,.67,1.68,.09,3.38-1.57,4.04-1.73,.69-3.19-.23-3.81-1.79Zm4.04-1.69c-.44-1.1-1.27-1.68-2.12-1.34-.86,.34-1.03,1.35-.59,2.45,.4,1.02,1.23,1.69,2.11,1.34,.86-.34,1.04-1.36,.61-2.46Z" fill="#fff"/><path d="M103.62,143.77l1.69,5.83-1.54,.44-1.83-1.79c-.53-.51-1.08-1.14-1.53-1.72h-.02c.3,.76,.56,1.53,.81,2.41l.49,1.7-1.21,.35-1.69-5.83,1.38-.4,1.9,1.88c.53,.53,1.13,1.17,1.61,1.77h.03c-.26-.77-.52-1.59-.8-2.54l-.51-1.75,1.21-.35Z" fill="#fff"/><path d="M19.49,55.72l1.56-3.36,1.02,.47-.98,2.12,1.26,.58,.92-1.98,1.01,.47-.92,1.98,2.21,1.03-.58,1.24-5.5-2.55Z" fill="#fff"/><path d="M26,52.63l1.16,1.13-.69,1.24-4.41-4.56,.87-1.57,6.22,1.29-.72,1.29-1.59-.35-.85,1.53Zm-.15-1.84l-1.31-.29c-.36-.08-.81-.21-1.17-.3v.02c.26,.25,.62,.55,.88,.81l.95,.94,.65-1.17Z" fill="#fff"/><path d="M24.5,46.23l.76-1.14,4.09,2.73,1.34-2.01,.96,.64-2.1,3.15-5.05-3.36Z" fill="#fff"/><path d="M34.44,42.53c-.05,.27-.29,.81-.74,1.39-1.29,1.66-2.99,1.72-4.36,.66-1.64-1.27-1.64-3.14-.52-4.59,.44-.56,.88-.91,1.13-1.02l.69,.89c-.26,.14-.59,.38-.89,.77-.66,.86-.66,1.93,.41,2.76,.96,.74,2.01,.64,2.75-.32,.26-.33,.47-.74,.55-1.03l.98,.5Z" fill="#fff"/><path d="M36.36,36.07c1.46,1.35,1.54,3.04,.34,4.35-1.22,1.32-2.93,1.18-4.21,.01-1.33-1.23-1.55-3-.34-4.32,1.26-1.37,2.97-1.18,4.21-.04Zm-2.91,3.28c.87,.8,1.87,.96,2.49,.29,.63-.68,.34-1.66-.53-2.46-.8-.74-1.84-.99-2.48-.3-.63,.68-.35,1.68,.52,2.47Z" fill="#fff"/><path d="M39.19,37.65l-4.05-4.51,1.19-1.07,2.42,.81c.7,.23,1.47,.56,2.13,.89l.02-.02c-.6-.54-1.16-1.13-1.77-1.81l-1.18-1.32,.94-.84,4.05,4.51-1.07,.96-2.53-.87c-.71-.25-1.52-.56-2.22-.89l-.02,.02c.57,.57,1.15,1.2,1.82,1.93l1.22,1.36-.94,.84Z" fill="#fff"/></g><circle id="bg_circle-3" cx="83.49" cy="83.36" r="74.9" transform="translate(-11.52 153.31) rotate(-81.32)" fill="none" opacity=".7" stroke="#fff" stroke-miterlimit="10"/></g><g id="icons"><g id="Falcon"><g><path d="M63.03,115.52c-5.51-1.54-10.54-4.47-14.6-8.52-6.24-6.24-9.68-14.53-9.68-23.36s3.48-17.37,9.79-23.64c4.07-4.07,9.08-6.94,14.54-8.35l2.49,2.58c.38,.4,.9,.61,1.44,.61,.11,0,.22,0,.32-.03,1.55-.25,3.13-.38,4.7-.38s3.15,.13,4.7,.38c.11,.02,.22,.03,.32,.03,.54,0,1.06-.22,1.44-.62l2.38-2.48c17.94,4.71,43.92,20.44,49.13,23.67v2.57s-12.82-.04-12.82-.04c-.53,0-1.04,.21-1.41,.58-.38,.38-.59,.88-.59,1.42v7.06c0,1.1,.9,2,2,2h12.82v2.53c-5.21,3.22-31.12,18.93-49.08,23.79l-2.4-2.58c-.38-.41-.91-.64-1.46-.64-.11,0-.21,0-.32,.03-1.55,.25-3.14,.38-4.7,.38s-3.15-.13-4.7-.38c-.11-.02-.22-.03-.32-.03-.56,0-1.1,.23-1.48,.66l-2.5,2.75Z" fill="url(#linear-gradient)"/><path d="M62.47,53.89l1.66,1.72c.76,.79,1.8,1.23,2.88,1.23,.21,0,.43-.02,.65-.05,1.45-.24,2.92-.36,4.38-.36s2.93,.12,4.38,.36c.22,.04,.43,.05,.65,.05,1.08,0,2.13-.44,2.89-1.23l1.55-1.62c16.01,4.53,37.94,17.34,45.6,21.99l-9.89-.03s0,0-.01,0c-1.06,0-2.07,.42-2.82,1.17-.75,.75-1.18,1.77-1.18,2.83v7.06c0,2.21,1.79,4,4,4h9.86c-7.68,4.66-29.5,17.42-45.49,22.07l-1.57-1.69c-.76-.82-1.83-1.28-2.93-1.28-.21,0-.43,.02-.65,.05-1.44,.24-2.92,.36-4.38,.36s-2.93-.12-4.38-.36c-.22-.04-.43-.05-.65-.05-1.12,0-2.2,.47-2.96,1.31l-1.65,1.82c-4.72-1.52-9.02-4.14-12.55-7.66-5.86-5.86-9.09-13.65-9.09-21.94s3.27-16.33,9.21-22.23c3.54-3.53,7.83-6.11,12.51-7.52m1.26-4.46c-6.39,1.41-12.09,4.65-16.6,9.14-6.41,6.38-10.38,15.29-10.38,25.06s3.92,18.44,10.27,24.77c4.52,4.51,10.25,7.8,16.68,9.35l3.31-3.65c1.64,.27,3.32,.41,5.02,.41s3.39-.14,5.02-.41l3.22,3.46c20.48-5.11,51.73-24.92,51.73-24.92v-5.64h-14.82v-7.06l14.82,.04v-5.69s-31.3-19.84-51.77-24.78l-3.18,3.32c-1.64-.27-3.32-.41-5.02-.41s-3.39,.14-5.02,.41l-3.28-3.41h0Z" fill="#cceef1"/><path d="M117.19,79.95v7.06h14.82v5.64s-31.25,19.81-51.73,24.92l-3.22-3.46c-1.64,.27-3.32,.41-5.02,.41s-3.39-.14-5.02-.41l-3.31,3.65c-6.43-1.55-12.16-4.84-16.68-9.35-6.34-6.34-10.27-15.07-10.27-24.77s3.97-18.68,10.38-25.06c4.5-4.49,10.21-7.73,16.6-9.14l3.28,3.41c1.64-.27,3.32-.41,5.02-.41s3.39,.14,5.02,.41l3.18-3.32c20.47,4.94,51.77,24.78,51.77,24.78v5.69l-14.82-.04Z" fill="none" stroke="#303030" stroke-linecap="round" stroke-linejoin="round" stroke-width="4"/></g><path d="M77.06,114.3c.11,2.32-1.67,4.33-4,4.43-.35,.02-.69,.03-1.03,.03-.3,0-.59,0-.88-.01-2.38-.06-4.27-2.05-4.15-4.45v-.18c1.64,.27,3.32,.41,5.03,.41s3.39-.14,5.02-.41v.18Z" fill="#56c5cf" stroke="#333" stroke-linejoin="round" stroke-width="4"/><path d="M77.06,52.84c-1.64-.27-3.32-.41-5.02-.41s-3.39,.14-5.02,.41c0-.08,0-.16,0-.23,0-2.29,1.83-4.18,4.13-4.23,.59-.01,1.2,0,1.79,0,2.38,.06,4.25,2.07,4.13,4.45Z" fill="#56c5cf" stroke="#333" stroke-linejoin="round" stroke-width="4"/><path d="M84.73,83.48c0,1.81-.38,3.54-1.07,5.1-.25,.56-.54,1.11-.87,1.63-1.16,1.86-2.8,3.4-4.74,4.45-1.79,.97-3.84,1.52-6.02,1.52-3.5,0-6.67-1.43-8.98-3.73-2.3-2.3-3.73-5.48-3.73-8.98,0-2.05,.49-3.98,1.35-5.69,.61-1.22,1.42-2.33,2.37-3.28,.81-.81,1.74-1.52,2.74-2.08,1.84-1.05,3.97-1.64,6.23-1.64,5.19,0,9.66,3.13,11.63,7.6,.69,1.56,1.07,3.29,1.07,5.1Z" fill="none" stroke="#333" stroke-linejoin="round" stroke-width="4"/><g><path d="M72.03,112.52c-.98,0-1.96-.05-2.94-.15l1.41-28.8c0-.06,0-.13,0-.2l-1.41-28.8c.98-.1,1.96-.15,2.94-.15s1.96,.05,2.94,.15l-1.41,28.8c0,.06,0,.13,0,.2l1.41,28.8c-.98,.1-1.96,.15-2.94,.15Z" fill="url(#linear-gradient-2)"/><path d="M72.03,56.43c.28,0,.56,0,.84,.01l-.84,17.27-.84-17.27c.28,0,.56-.01,.84-.01m0,36.81l.84,17.27c-.28,0-.56,.01-.84,.01s-.56,0-.84-.01l.84-17.27m0-40.81c-1.71,0-3.39,.14-5.02,.41l1.5,30.64-1.5,30.64c1.64,.27,3.32,.41,5.02,.41s3.39-.14,5.02-.41l-1.5-30.64,1.5-30.64c-1.64-.27-3.32-.41-5.02-.41h0Z" fill="#cceef1"/><path d="M72.03,56.43c.28,0,.56,0,.84,.01l-.84,17.27-.84-17.27c.28,0,.56-.01,.84-.01m0,36.81l.84,17.27c-.28,0-.56,.01-.84,.01s-.56,0-.84-.01l.84-17.27m0-40.81c-1.71,0-3.39,.14-5.02,.41l1.5,30.64-1.5,30.64c1.64,.27,3.32,.41,5.02,.41s3.39-.14,5.02-.41l-1.5-30.64,1.5-30.64c-1.64-.27-3.32-.41-5.02-.41h0Z" fill="#c4ebee"/><path d="M75.56,83.48l1.5,30.64c-1.64,.27-3.32,.41-5.02,.41s-3.39-.14-5.02-.41l1.5-30.64-1.5-30.64c1.64-.27,3.32-.41,5.02-.41s3.39,.14,5.02,.41l-1.5,30.64Z" fill="none" stroke="#333" stroke-linecap="round" stroke-linejoin="round" stroke-width="4"/></g><g><path d="M86.42,86.44c.2-.97,.3-1.96,.3-2.97s-.1-2-.3-2.97l28.77,1.35v3.24l-28.77,1.35Z" fill="url(#linear-gradient-3)"/><path d="M88.7,82.62l18.33,.86-18.33,.86c.01-.29,.02-.57,.02-.86s0-.57-.02-.86m-5.06-4.24c.69,1.56,1.08,3.29,1.08,5.1s-.39,3.54-1.08,5.1l33.54-1.57v-7.06l-33.55-1.57h0Z" fill="#d1a4cc"/><path d="M117.19,79.95v7.06l-33.54,1.57c.69-1.56,1.08-3.29,1.08-5.1s-.39-3.54-1.08-5.1l33.55,1.57Z" fill="none" stroke="#333" stroke-miterlimit="10" stroke-width="4"/></g><g><path d="M72.03,89.94c-3.57,0-6.47-2.9-6.47-6.47s2.9-6.47,6.47-6.47,6.47,2.9,6.47,6.47-2.9,6.47-6.47,6.47Z" fill="url(#linear-gradient-4)"/><path d="M72.03,79.01c2.46,0,4.47,2,4.47,4.47s-2,4.47-4.47,4.47-4.47-2-4.47-4.47,2-4.47,4.47-4.47m0-4c-4.67,0-8.47,3.8-8.47,8.47s3.8,8.47,8.47,8.47,8.47-3.8,8.47-8.47-3.8-8.47-8.47-8.47h0Z" fill="#d1a4cc"/><path d="M72.03,91.94c-4.67,0-8.47-3.8-8.47-8.47s3.8-8.47,8.47-8.47,8.47,3.8,8.47,8.47-3.8,8.47-8.47,8.47Z" fill="none" stroke="#333" stroke-miterlimit="10" stroke-width="4"/></g><path d="M36.75,83.64c0,9.7,3.92,18.44,10.27,24.77l-6.25-.8c-5.17-6.67-8.25-15.05-8.25-24.13s3.08-17.46,8.25-24.13l6.32-.81,.04,.04c-6.41,6.38-10.38,15.29-10.38,25.06Z" fill="#56c5cf" stroke="#333" stroke-linejoin="round" stroke-width="4"/><g><path d="M47.1,105.58c-5.4-6.05-8.34-13.77-8.34-21.94s2.97-16.1,8.42-22.2l13.15,13.15c-1.94,2.55-2.99,5.63-2.99,8.88s1.05,6.34,2.99,8.88l-13.23,13.23Z" fill="url(#linear-gradient-5)"/><path d="M47.3,64.4l10.44,10.44c-1.57,2.58-2.41,5.55-2.41,8.64s.84,6.06,2.41,8.64l-10.51,10.51c-4.2-5.41-6.48-12.02-6.48-18.98s2.3-13.78,6.55-19.23m-.17-5.83c-6.41,6.38-10.38,15.29-10.38,25.06s3.92,18.44,10.27,24.77h.07s15.97-15.96,15.97-15.96c-2.3-2.3-3.73-5.48-3.73-8.98s1.43-6.67,3.73-8.98l-15.93-15.93h0Z" fill="#d1a4cc"/><path d="M59.33,83.48c0,3.5,1.43,6.67,3.73,8.98l-15.97,15.97h-.07c-6.34-6.34-10.27-15.08-10.27-24.78s3.97-18.68,10.38-25.06l15.93,15.93c-2.3,2.3-3.73,5.48-3.73,8.98Z" fill="none" stroke="#333" stroke-miterlimit="10" stroke-width="4"/></g><g><path d="M115.78,113.82c0,2.73-2.21,4.94-4.94,4.94v-9.88c1.37,0,2.6,.55,3.49,1.45,.9,.9,1.45,2.12,1.45,3.49Z" fill="#56c5cf"/><path d="M115.78,113.82c0,2.73-2.21,4.94-4.94,4.94v-9.88c1.37,0,2.6,.55,3.49,1.45,.9,.9,1.45,2.12,1.45,3.49Z" fill="none" stroke="#333" stroke-miterlimit="10" stroke-width="4"/></g><g><path d="M100.39,116.76l-16.48-18.54c.82-.66,1.59-1.39,2.29-2.18l15.58,14.31c.37,.34,.85,.53,1.35,.53h5.72v5.88h-8.46Z" fill="url(#linear-gradient-6)"/><path d="M90.92,103.1l9.49,8.72c.74,.68,1.7,1.05,2.71,1.05h3.72v1.88h-5.56l-10.36-11.65m-4.97-9.99c-1.33,1.92-3.05,3.55-5.03,4.77l18.56,20.88h11.35v-9.88h-7.72l-17.17-15.77h0Z" fill="#d1a4cc"/><path d="M110.84,108.88v9.88h-11.35l-18.56-20.88c1.98-1.22,3.7-2.85,5.03-4.77l17.17,15.77h7.72Z" fill="none" stroke="#333" stroke-miterlimit="10" stroke-width="4"/></g><circle cx="52.63" cy="83.48" r="2.47" fill="#56c5cf" stroke="#333" stroke-linejoin="round" stroke-width="4"/><circle cx="54.75" cy="92.31" r="2.47" fill="#56c5cf" stroke="#333" stroke-linejoin="round" stroke-width="4"/><circle cx="54.75" cy="74.67" r="2.47" fill="#56c5cf" stroke="#333" stroke-linejoin="round" stroke-width="4"/></g></g></svg>