<?xml version="1.0" encoding="UTF-8"?><svg id="r2d2" xmlns="http://www.w3.org/2000/svg" xmlns:xlink="http://www.w3.org/1999/xlink" viewBox="0 0 166.69 167.01"><defs><filter id="drop-shadow-1" filterUnits="userSpaceOnUse"><feOffset dx="0" dy="7.2"/><feGaussianBlur result="blur" stdDeviation="7.2"/><feFlood flood-color="#000" flood-opacity=".75"/><feComposite in2="blur" operator="in"/><feComposite in="SourceGraphic"/></filter><linearGradient id="linear-gradient" x1="64.09" y1="46.9" x2="100.44" y2="46.9" gradientUnits="userSpaceOnUse"><stop offset="0" stop-color="#c186bb"/><stop offset="1" stop-color="#56c5cf"/></linearGradient><linearGradient id="linear-gradient-2" x1="64.09" y1="85.24" x2="100.44" y2="85.24" gradientUnits="userSpaceOnUse"><stop offset="0" stop-color="#c186bb"/><stop offset="1" stop-color="#9adce2"/></linearGradient><linearGradient id="linear-gradient-3" x1="66.12" y1="112.28" x2="98.41" y2="112.28" gradientUnits="userSpaceOnUse"><stop offset="0" stop-color="#c186bb"/><stop offset=".17" stop-color="#b68cbc"/><stop offset=".46" stop-color="#9a9cc2"/><stop offset=".83" stop-color="#6cb7ca"/><stop offset="1" stop-color="#56c5cf"/></linearGradient><linearGradient id="New_Gradient_Swatch_4" x1="111.32" y1="61.4" x2="111.32" y2="89.68" gradientUnits="userSpaceOnUse"><stop offset="0" stop-color="#56c5cf"/><stop offset=".17" stop-color="#6cb7ca"/><stop offset=".54" stop-color="#9a9cc2"/><stop offset=".83" stop-color="#b68cbc"/><stop offset="1" stop-color="#c186bb"/></linearGradient><linearGradient id="New_Gradient_Swatch_4-2" x1="53.21" y1="61.4" x2="53.21" gradientTransform="translate(106.42 151.08) rotate(-180)" xlink:href="#New_Gradient_Swatch_4"/><linearGradient id="linear-gradient-4" x1="74.19" y1="48.51" x2="90.34" y2="48.51" gradientUnits="userSpaceOnUse"><stop offset="0" stop-color="#bce8ec"/><stop offset=".11" stop-color="#bcdae5"/><stop offset=".51" stop-color="#bfacce"/><stop offset=".82" stop-color="#c090c0"/><stop offset="1" stop-color="#c186bb"/></linearGradient></defs>

<style>

      /* these are my interactive overrides */
      #smalltext { transition: all 0.5s ease; transform-origin: 50%;}

      #r2d2:hover #bg_circle { fill: brown; }

      #r2d2:hover #smalltext { fill: red; transform: rotate(170deg); }

</style>

    <script>
      // select elements you want to interact with first
      let theBadge = document.querySelector('#r2d2');

      // functions always go in the middle
      function logMyId() {        
        console.log(this.id);
      }

      // event handling at the bottom
      theBadge.addEventListener('click', logMyId);
    </script>
    
    <g id="newBadge"><path id="bg_circle" d="M80.91,1.81c1.34-2.41,3.53-2.41,4.87,0,1.34,2.41,3.76,2.56,5.39,.34,1.63-2.22,3.8-1.95,4.83,.61,1.02,2.56,3.41,3.01,5.31,1.01,1.9-2,4.01-1.46,4.71,1.21,.7,2.67,3.01,3.42,5.14,1.67,2.13-1.75,4.16-.94,4.52,1.79,.36,2.73,2.56,3.77,4.89,2.3,2.33-1.47,4.25-.41,4.26,2.34,.01,2.76,2.07,4.06,4.56,2.9,2.5-1.16,4.27,.12,3.93,2.86-.33,2.74,1.54,4.29,4.17,3.44,2.62-.84,4.22,.66,3.54,3.33-.67,2.67,.99,4.45,3.7,3.94,2.71-.5,4.1,1.18,3.1,3.75-1,2.57,.43,4.53,3.18,4.37,2.75-.16,3.92,1.69,2.61,4.11-1.32,2.42-.15,4.55,2.6,4.74,2.75,.18,3.68,2.17,2.07,4.4-1.61,2.24-.72,4.5,1.99,5.03,2.7,.53,3.38,2.61,1.5,4.63-1.88,2.02-1.27,4.37,1.34,5.23,2.62,.86,3.03,3.01,.91,4.78-2.12,1.77-1.81,4.18,.68,5.36,2.49,1.18,2.63,3.37,.31,4.85-2.32,1.49-2.32,3.92,0,5.41,2.32,1.49,2.18,3.67-.31,4.85-2.49,1.18-2.79,3.6-.68,5.36,2.12,1.77,1.71,3.91-.91,4.78-2.62,.86-3.22,3.22-1.34,5.23,1.88,2.02,1.2,4.1-1.5,4.63-2.7,.53-3.6,2.79-1.99,5.03,1.61,2.24,.68,4.22-2.07,4.4-2.75,.18-3.92,2.32-2.6,4.74,1.32,2.42,.14,4.27-2.61,4.11-2.75-.16-4.18,1.81-3.18,4.37,1,2.57-.39,4.25-3.1,3.75-2.71-.51-4.37,1.27-3.7,3.94,.67,2.67-.92,4.17-3.54,3.33-2.62-.84-4.5,.71-4.17,3.44,.33,2.74-1.44,4.02-3.93,2.86-2.5-1.16-4.55,.14-4.56,2.9-.01,2.76-1.93,3.81-4.26,2.34-2.33-1.47-4.53-.43-4.89,2.3-.36,2.73-2.39,3.54-4.52,1.79-2.13-1.75-4.45-1-5.14,1.67-.7,2.67-2.81,3.21-4.71,1.21-1.9-2-4.28-1.54-5.31,1.01-1.03,2.56-3.2,2.83-4.83,.61-1.63-2.22-4.06-2.07-5.39,.34-1.34,2.41-3.53,2.41-4.87,0-1.34-2.41-3.77-2.56-5.39-.34-1.63,2.22-3.8,1.95-4.83-.61-1.02-2.56-3.41-3.01-5.31-1.01-1.89,2-4.01,1.46-4.71-1.21-.7-2.67-3.01-3.42-5.14-1.67-2.13,1.75-4.16,.94-4.52-1.79-.36-2.73-2.56-3.77-4.89-2.3-2.33,1.47-4.25,.41-4.26-2.34-.01-2.76-2.06-4.06-4.56-2.9-2.5,1.16-4.27-.12-3.94-2.86,.33-2.74-1.54-4.29-4.17-3.44-2.62,.84-4.22-.66-3.55-3.33,.67-2.67-.99-4.45-3.7-3.94-2.71,.5-4.1-1.18-3.1-3.75,1-2.57-.43-4.53-3.18-4.37-2.75,.16-3.92-1.69-2.61-4.11,1.32-2.42,.15-4.55-2.6-4.74-2.75-.18-3.68-2.16-2.07-4.4,1.61-2.24,.72-4.5-1.99-5.03-2.71-.53-3.38-2.61-1.5-4.63,1.88-2.02,1.27-4.37-1.35-5.23-2.62-.86-3.03-3.01-.91-4.78,2.12-1.77,1.81-4.18-.68-5.36-2.49-1.18-2.62-3.37-.31-4.85,2.32-1.49,2.32-3.92,0-5.41-2.32-1.49-2.18-3.67,.31-4.85,2.49-1.18,2.79-3.6,.68-5.36-2.12-1.77-1.71-3.91,.91-4.78,2.62-.86,3.22-3.22,1.35-5.23-1.88-2.02-1.2-4.1,1.5-4.63,2.71-.53,3.6-2.79,1.99-5.03-1.61-2.24-.68-4.22,2.07-4.4,2.75-.18,3.92-2.32,2.6-4.74-1.32-2.42-.14-4.27,2.61-4.11,2.75,.16,4.18-1.81,3.18-4.37-1-2.57,.39-4.25,3.1-3.75,2.71,.51,4.37-1.27,3.7-3.94-.67-2.67,.92-4.17,3.55-3.33,2.63,.84,4.5-.71,4.17-3.45-.33-2.74,1.44-4.02,3.94-2.86,2.5,1.16,4.55-.14,4.56-2.9,.01-2.76,1.93-3.81,4.26-2.34,2.33,1.47,4.53,.43,4.89-2.3,.36-2.73,2.39-3.54,4.52-1.79,2.13,1.75,4.44,1,5.14-1.67,.7-2.67,2.82-3.21,4.71-1.21,1.9,2,4.28,1.54,5.31-1.01,1.03-2.56,3.2-2.83,4.83-.61,1.63,2.22,4.06,2.07,5.39-.34Z" filter="url(#drop-shadow-1)"/></g><g id="bg_circle-2"><g id="smalltext"><path d="M122.65,25.8c.4,.2,.96,.54,1.55,.96,.73,.53,1.16,1.01,1.31,1.54,.12,.44,.04,.91-.29,1.36-.45,.62-1.21,.73-1.74,.58l-.02,.02c.24,.38,.2,.85,0,1.39-.25,.67-.57,1.41-.61,1.67l-1.14-.82c.03-.2,.19-.68,.49-1.39,.31-.71,.22-1.03-.23-1.36l-.33-.24-1.4,1.93-1.1-.8,3.51-4.84Zm-.43,2.91l.43,.32c.55,.4,1.08,.36,1.39-.07,.33-.45,.18-.9-.32-1.27-.27-.19-.43-.29-.53-.33l-.98,1.35Z" fill="#fff"/><path d="M123.14,33.58l.54-.63,1.01-.03c1.72-.04,2.62-.14,3.07-.65,.31-.36,.34-.83-.17-1.27-.38-.33-.88-.42-1.27-.45l.34-.99c.55,.03,1.25,.27,1.85,.78,1.01,.86,1.06,1.92,.37,2.73-.64,.75-1.68,.89-2.82,.91h-.7s-.01,0-.01,0l1.68,1.44-.73,.86-3.16-2.7Z" fill="#fff"/><path d="M130.42,36.33l-.63,.66-1.7-1.63,.63-.66,1.7,1.63Z" fill="#fff"/><path d="M133.48,34.88c.4,.32,.88,.78,1.33,1.29,.77,.85,1.12,1.56,1.18,2.28,.07,.78-.21,1.57-1.01,2.29-.86,.78-1.74,1-2.5,.9-.82-.12-1.67-.67-2.46-1.55-.48-.53-.79-.94-.98-1.22l4.42-3.99Zm-2.76,4.33c.06,.1,.19,.25,.3,.37,.82,.93,1.88,1.08,2.96,.1,.94-.84,.94-1.83,.15-2.71-.2-.22-.36-.35-.46-.43l-2.95,2.66Z" fill="#fff"/><path d="M132.95,43.31l.66-.5,1,.19c1.69,.33,2.59,.43,3.14,.02,.38-.29,.51-.74,.1-1.28-.3-.4-.77-.6-1.14-.71l.55-.9c.53,.15,1.16,.53,1.63,1.16,.8,1.06,.62,2.1-.22,2.74-.78,.59-1.83,.51-2.95,.28l-.69-.16h-.01s1.34,1.77,1.34,1.77l-.9,.68-2.51-3.31Z" fill="#fff"/><path d="M129.35,135.74c-.29,.34-.76,.79-1.32,1.26-.69,.57-1.27,.87-1.82,.88-.46,0-.89-.19-1.24-.62-.49-.59-.41-1.36-.12-1.83l-.02-.02c-.43,.14-.87-.02-1.34-.36-.58-.41-1.23-.9-1.47-1.01l1.08-.89c.18,.08,.61,.36,1.22,.83,.61,.48,.94,.47,1.38,.12l.32-.26-1.51-1.84,1.05-.86,3.8,4.62Zm-2.71-1.15l-.42,.34c-.52,.43-.62,.96-.28,1.37,.35,.43,.83,.41,1.31,0,.25-.21,.39-.35,.45-.43l-1.06-1.29Z" fill="#fff"/><path d="M121.69,134.27l.48,.68-.23,.99c-.39,1.68-.52,2.57-.14,3.14,.27,.39,.72,.54,1.27,.15,.41-.29,.63-.75,.75-1.11l.88,.58c-.17,.52-.58,1.14-1.22,1.59-1.09,.76-2.12,.54-2.73-.32-.56-.8-.44-1.85-.18-2.96l.19-.68h0s-1.81,1.26-1.81,1.26l-.65-.92,3.4-2.39Z" fill="#fff"/><path d="M117.19,140.63l-.48-.78,2.01-1.23,.48,.78-2.01,1.23Z" fill="#fff"/><path d="M117.84,143.95c-.41,.31-.97,.65-1.58,.97-1.02,.53-1.78,.69-2.5,.57-.78-.13-1.47-.6-1.96-1.55-.54-1.03-.53-1.94-.24-2.64,.32-.77,1.07-1.44,2.12-1.99,.63-.33,1.1-.53,1.42-.64l2.75,5.28Zm-3.5-3.76c-.12,.04-.29,.12-.44,.2-1.11,.56-1.51,1.55-.85,2.83,.58,1.12,1.54,1.37,2.58,.82,.27-.14,.43-.25,.53-.33l-1.83-3.52Z" fill="#fff"/><path d="M109.82,141.32l.32,.77-.44,.92c-.74,1.55-1.07,2.4-.82,3.03,.18,.44,.59,.68,1.21,.42,.47-.19,.78-.59,.97-.92l.73,.76c-.28,.47-.81,.99-1.53,1.29-1.23,.51-2.19,.07-2.6-.91-.38-.91-.03-1.91,.47-2.93l.33-.62v-.02s-2.05,.85-2.05,.85l-.43-1.04,3.84-1.59Z" fill="#fff"/><path d="M15.3,69.25c.03-.45,.12-1.09,.29-1.8,.21-.88,.49-1.46,.92-1.8,.36-.29,.82-.38,1.37-.25,.75,.18,1.14,.83,1.2,1.39h.03c.26-.36,.71-.5,1.29-.52,.71-.02,1.52-.02,1.78-.08l-.32,1.37c-.19,.05-.7,.08-1.47,.08-.78-.01-1.03,.19-1.17,.74l-.09,.4,2.32,.55-.31,1.32-5.82-1.38Zm2.85-.72l.12-.52c.16-.66-.09-1.14-.6-1.26-.54-.13-.9,.18-1.05,.79-.08,.32-.1,.51-.1,.61l1.63,.39Z" fill="#fff"/><path d="M22.3,65.79l-.79-.25-.42-.92c-.7-1.57-1.13-2.36-1.78-2.58-.45-.15-.9,0-1.11,.65-.15,.48-.05,.98,.07,1.34l-1.05,.07c-.18-.52-.23-1.26,.01-2,.41-1.26,1.37-1.71,2.37-1.39,.93,.3,1.47,1.21,1.92,2.25l.26,.65h.02s.68-2.1,.68-2.1l1.07,.35-1.27,3.95Z" fill="#fff"/><path d="M22.05,58.03l.85,.33-.86,2.19-.85-.33,.86-2.19Z" fill="#fff"/><path d="M19.53,55.76c.14-.49,.38-1.11,.68-1.73,.5-1.04,1.01-1.63,1.66-1.96,.7-.37,1.54-.41,2.5,.06,1.05,.5,1.6,1.23,1.79,1.96,.21,.81,.01,1.8-.5,2.87-.31,.64-.56,1.08-.75,1.37l-5.38-2.56Zm5.06,.89c.07-.1,.16-.27,.23-.42,.54-1.12,.28-2.15-1.03-2.78-1.14-.55-2.05-.16-2.56,.9-.13,.27-.19,.46-.22,.59l3.59,1.71Z" fill="#fff"/><path d="M27.53,53.03l-.71-.42-.21-.99c-.34-1.69-.59-2.56-1.18-2.91-.41-.24-.88-.19-1.22,.39-.26,.43-.26,.94-.22,1.32l-1.04-.16c-.06-.54,.05-1.28,.45-1.96,.67-1.15,1.71-1.38,2.62-.84,.85,.5,1.17,1.5,1.39,2.62l.11,.7h.02s1.12-1.9,1.12-1.9l.97,.57-2.1,3.58Z" fill="#fff"/></g><circle id="bg_circle-3" cx="83.49" cy="83.36" r="74.9" transform="translate(-11.52 153.31) rotate(-81.32)" fill="none" opacity=".7" stroke="#fff" stroke-miterlimit="10"/></g><g id="icons"><g id="R2_D2"><g><path d="M64.09,59.43v-6.88c0-.97,.08-1.95,.23-2.91,.08-.5,.18-.98,.3-1.46,2-8.13,9.25-13.81,17.65-13.81,4.86,0,9.42,1.89,12.85,5.32,2.35,2.35,4.01,5.28,4.79,8.49,.12,.48,.22,.96,.3,1.46,.15,.96,.23,1.93,.23,2.91v6.88h-36.36Z" fill="url(#linear-gradient)"/><path d="M82.26,36.37c4.32,0,8.39,1.68,11.44,4.74,2.09,2.09,3.56,4.7,4.26,7.54,.12,.48,.2,.91,.27,1.31,.14,.85,.21,1.72,.21,2.59v4.88h-32.36v-4.88c0-.87,.07-1.74,.21-2.59,.06-.4,.15-.83,.27-1.3,1.78-7.24,8.24-12.29,15.7-12.29m0-4c-9.48,0-17.43,6.53-19.59,15.34-.13,.53-.24,1.07-.33,1.61-.17,1.05-.26,2.13-.26,3.23v8.88h40.36v-8.88c0-1.1-.09-2.18-.26-3.23-.09-.55-.2-1.08-.33-1.61-.89-3.62-2.76-6.87-5.32-9.43-3.65-3.65-8.7-5.91-14.27-5.91h0Z" fill="#9adce2"/><path d="M102.44,52.55v8.88H62.09v-8.88c0-1.1,.09-2.18,.26-3.23,.09-.55,.2-1.08,.33-1.61,2.16-8.81,10.11-15.34,19.59-15.34,5.57,0,10.62,2.26,14.27,5.91,2.56,2.56,4.43,5.8,5.32,9.43,.13,.53,.24,1.07,.33,1.61,.17,1.05,.26,2.13,.26,3.23Z" fill="none" stroke="#333" stroke-linecap="round" stroke-linejoin="round" stroke-width="4"/></g><g><rect x="64.09" y="63.43" width="36.36" height="43.62" fill="url(#linear-gradient-2)"/><path d="M98.44,65.43v39.62h-32.36v-39.62h32.36m4-4H62.09v47.62h40.36V61.43h0Z" fill="#9adce2"/><rect x="62.09" y="61.43" width="40.36" height="47.62" fill="none" stroke="#333" stroke-linecap="round" stroke-linejoin="round" stroke-width="4"/></g><g><polygon points="104.94 124.76 107.28 114.23 113.75 114.23 116.09 124.76 104.94 124.76" fill="#c186bb"/><path d="M112.15,116.23l1.45,6.53h-6.17l1.45-6.53h3.27m3.21-4h-9.69l-3.23,14.53h16.14l-3.23-14.53h0Z" fill="#cceef1"/><polygon points="105.67 112.23 115.36 112.23 118.58 126.76 102.44 126.76 105.67 112.23" fill="none" stroke="#333" stroke-linejoin="round" stroke-width="4"/></g><polygon points="94.56 115.51 69.97 115.51 66.12 109.05 98.41 109.05 94.56 115.51" fill="url(#linear-gradient-3)" stroke="#303030" stroke-linecap="round" stroke-linejoin="round" stroke-width="4"/><rect x="107.29" y="88.06" width="6.46" height="24.21" fill="#56c5cf" stroke="#333" stroke-linejoin="round" stroke-width="4"/><path d="M107.29,61.4h0c4.45,0,8.07,3.62,8.07,8.07v20.2h-8.07v-28.27h0Z" fill="url(#New_Gradient_Swatch_4)" stroke="#333" stroke-linejoin="round" stroke-width="4"/><g><polygon points="48.44 124.76 50.78 114.23 57.25 114.23 59.59 124.76 48.44 124.76" fill="#c186bb"/><path d="M55.65,116.23l1.45,6.53h-6.17l1.45-6.53h3.27m3.21-4h-9.69l-3.23,14.53h16.14l-3.23-14.53h0Z" fill="#cceef1"/><polygon points="58.86 112.23 49.17 112.23 45.94 126.76 62.09 126.76 58.86 112.23" fill="none" stroke="#333" stroke-linejoin="round" stroke-width="4"/></g><rect x="50.79" y="88.06" width="6.46" height="24.21" transform="translate(108.03 200.34) rotate(180)" fill="#56c5cf" stroke="#333" stroke-linejoin="round" stroke-width="4"/><path d="M49.17,61.4h8.07v20.2c0,4.45-3.62,8.07-8.07,8.07h0v-28.27h0Z" transform="translate(106.42 151.08) rotate(180)" fill="url(#New_Gradient_Swatch_4-2)" stroke="#333" stroke-linejoin="round" stroke-width="4"/><path d="M102.44,52.55v4.04H62.09v-4.04c0-1.1,.09-2.42,.26-3.23h39.84c.17,.81,.26,2.13,.26,3.23Z" fill="none" stroke="#333" stroke-linejoin="round" stroke-width="4"/><rect x="74.19" y="40.44" width="16.14" height="16.14" fill="url(#linear-gradient-4)" stroke="#333" stroke-linejoin="round" stroke-width="4"/><circle cx="82.24" cy="48.11" r="3.63" fill="#56c5cf" stroke="#333" stroke-linejoin="round" stroke-width="4"/><line x1="70.96" y1="67.89" x2="92.76" y2="67.89" fill="none" stroke="#333" stroke-linecap="round" stroke-linejoin="round" stroke-width="4"/><line x1="70.96" y1="72.73" x2="92.76" y2="72.73" fill="none" stroke="#333" stroke-linecap="round" stroke-linejoin="round" stroke-width="4"/><line x1="70.96" y1="77.57" x2="92.76" y2="77.57" fill="none" stroke="#333" stroke-linecap="round" stroke-linejoin="round" stroke-width="4"/><g><rect x="72.91" y="86" width="5.69" height="12.14" fill="#56c5cf"/><path d="M76.6,88v8.14h-1.69v-8.14h1.69m4-4h-9.69v16.14h9.69v-16.14h0Z" fill="#d1a4cc"/><rect x="70.91" y="84" width="9.69" height="16.14" fill="none" stroke="#333" stroke-linejoin="round" stroke-width="4"/></g></g></g></svg>