<?xml version="1.0" encoding="UTF-8"?><svg id="storm" xmlns="http://www.w3.org/2000/svg" xmlns:xlink="http://www.w3.org/1999/xlink" viewBox="0 0 166.69 167.01"><defs><filter id="drop-shadow-1" filterUnits="userSpaceOnUse"><feOffset dx="0" dy="7.2"/><feGaussianBlur result="blur" stdDeviation="7.2"/><feFlood flood-color="#000" flood-opacity=".75"/><feComposite in2="blur" operator="in"/><feComposite in="SourceGraphic"/></filter><linearGradient id="linear-gradient" x1="45.13" y1="81.26" x2="119.65" y2="81.26" gradientUnits="userSpaceOnUse"><stop offset="0" stop-color="#78d1d8"/><stop offset="1" stop-color="#c186bb"/></linearGradient><radialGradient id="radial-gradient" cx="35.85" cy="78.17" fx="35.85" fy="78.17" r="13.84" gradientTransform="translate(50.33 15.52) scale(.9)" gradientUnits="userSpaceOnUse"><stop offset="0" stop-color="#9adce2"/><stop offset=".02" stop-color="#9adae1"/><stop offset=".46" stop-color="#afaccc"/><stop offset=".8" stop-color="#bc90bf"/><stop offset="1" stop-color="#c186bb"/></radialGradient><linearGradient id="linear-gradient-2" x1="58" y1="115.09" x2="106.47" y2="115.09" gradientUnits="userSpaceOnUse"><stop offset="0" stop-color="#c995c4"/><stop offset=".16" stop-color="#be99c5"/><stop offset=".43" stop-color="#a2a5c7"/><stop offset=".79" stop-color="#74b8cc"/><stop offset="1" stop-color="#56c5cf"/></linearGradient><radialGradient id="radial-gradient-2" cx="35.59" cy="65.04" fx="35.59" fy="65.04" r="31.81" xlink:href="#radial-gradient"/></defs>

<style>

      /* these are my interactive overrides */
      #smalltext { transition: all 0.5s ease; transform-origin: 50%;}

      #storm:hover #bg_circle { fill: red; }

      #storm:hover #smalltext { fill: red; transform: rotate(170deg); }

</style>

    <script>
      // select elements you want to interact with first
      let theBadge = document.querySelector('#storm');

      // functions always go in the middle
      function logMyId() {        
        console.log(this.id);
      }

      // event handling at the bottom
      theBadge.addEventListener('click', logMyId);
    </script>

<g id="newBadge"><path id="bg_circle" d="M80.91,1.81c1.34-2.41,3.53-2.41,4.87,0,1.34,2.41,3.76,2.56,5.39,.34,1.63-2.22,3.8-1.95,4.83,.61,1.02,2.56,3.41,3.01,5.31,1.01,1.9-2,4.01-1.46,4.71,1.21,.7,2.67,3.01,3.42,5.14,1.67,2.13-1.75,4.16-.94,4.52,1.79,.36,2.73,2.56,3.77,4.89,2.3,2.33-1.47,4.25-.41,4.26,2.34,.01,2.76,2.07,4.06,4.56,2.9,2.5-1.16,4.27,.12,3.93,2.86-.33,2.74,1.54,4.29,4.17,3.44,2.62-.84,4.22,.66,3.54,3.33-.67,2.67,.99,4.45,3.7,3.94,2.71-.5,4.1,1.18,3.1,3.75-1,2.57,.43,4.53,3.18,4.37,2.75-.16,3.92,1.69,2.61,4.11-1.32,2.42-.15,4.55,2.6,4.74,2.75,.18,3.68,2.17,2.07,4.4-1.61,2.24-.72,4.5,1.99,5.03,2.7,.53,3.38,2.61,1.5,4.63-1.88,2.02-1.27,4.37,1.34,5.23,2.62,.86,3.03,3.01,.91,4.78-2.12,1.77-1.81,4.18,.68,5.36,2.49,1.18,2.63,3.37,.31,4.85-2.32,1.49-2.32,3.92,0,5.41,2.32,1.49,2.18,3.67-.31,4.85-2.49,1.18-2.79,3.6-.68,5.36,2.12,1.77,1.71,3.91-.91,4.78-2.62,.86-3.22,3.22-1.34,5.23,1.88,2.02,1.2,4.1-1.5,4.63-2.7,.53-3.6,2.79-1.99,5.03,1.61,2.24,.68,4.22-2.07,4.4-2.75,.18-3.92,2.32-2.6,4.74,1.32,2.42,.14,4.27-2.61,4.11-2.75-.16-4.18,1.81-3.18,4.37,1,2.57-.39,4.25-3.1,3.75-2.71-.51-4.37,1.27-3.7,3.94,.67,2.67-.92,4.17-3.54,3.33-2.62-.84-4.5,.71-4.17,3.44,.33,2.74-1.44,4.02-3.93,2.86-2.5-1.16-4.55,.14-4.56,2.9-.01,2.76-1.93,3.81-4.26,2.34-2.33-1.47-4.53-.43-4.89,2.3-.36,2.73-2.39,3.54-4.52,1.79-2.13-1.75-4.45-1-5.14,1.67-.7,2.67-2.81,3.21-4.71,1.21-1.9-2-4.28-1.54-5.31,1.01-1.03,2.56-3.2,2.83-4.83,.61-1.63-2.22-4.06-2.07-5.39,.34-1.34,2.41-3.53,2.41-4.87,0-1.34-2.41-3.77-2.56-5.39-.34-1.63,2.22-3.8,1.95-4.83-.61-1.02-2.56-3.41-3.01-5.31-1.01-1.89,2-4.01,1.46-4.71-1.21-.7-2.67-3.01-3.42-5.14-1.67-2.13,1.75-4.16,.94-4.52-1.79-.36-2.73-2.56-3.77-4.89-2.3-2.33,1.47-4.25,.41-4.26-2.34-.01-2.76-2.06-4.06-4.56-2.9-2.5,1.16-4.27-.12-3.94-2.86,.33-2.74-1.54-4.29-4.17-3.44-2.62,.84-4.22-.66-3.55-3.33,.67-2.67-.99-4.45-3.7-3.94-2.71,.5-4.1-1.18-3.1-3.75,1-2.57-.43-4.53-3.18-4.37-2.75,.16-3.92-1.69-2.61-4.11,1.32-2.42,.15-4.55-2.6-4.74-2.75-.18-3.68-2.16-2.07-4.4,1.61-2.24,.72-4.5-1.99-5.03-2.71-.53-3.38-2.61-1.5-4.63,1.88-2.02,1.27-4.37-1.35-5.23-2.62-.86-3.03-3.01-.91-4.78,2.12-1.77,1.81-4.18-.68-5.36-2.49-1.18-2.62-3.37-.31-4.85,2.32-1.49,2.32-3.92,0-5.41-2.32-1.49-2.18-3.67,.31-4.85,2.49-1.18,2.79-3.6,.68-5.36-2.12-1.77-1.71-3.91,.91-4.78,2.62-.86,3.22-3.22,1.35-5.23-1.88-2.02-1.2-4.1,1.5-4.63,2.71-.53,3.6-2.79,1.99-5.03-1.61-2.24-.68-4.22,2.07-4.4,2.75-.18,3.92-2.32,2.6-4.74-1.32-2.42-.14-4.27,2.61-4.11,2.75,.16,4.18-1.81,3.18-4.37-1-2.57,.39-4.25,3.1-3.75,2.71,.51,4.37-1.27,3.7-3.94-.67-2.67,.92-4.17,3.55-3.33,2.63,.84,4.5-.71,4.17-3.45-.33-2.74,1.44-4.02,3.94-2.86,2.5,1.16,4.55-.14,4.56-2.9,.01-2.76,1.93-3.81,4.26-2.34,2.33,1.47,4.53,.43,4.89-2.3,.36-2.73,2.39-3.54,4.52-1.79,2.13,1.75,4.44,1,5.14-1.67,.7-2.67,2.82-3.21,4.71-1.21,1.9,2,4.28,1.54,5.31-1.01,1.03-2.56,3.2-2.83,4.83-.61,1.63,2.22,4.06,2.07,5.39-.34Z" filter="url(#drop-shadow-1)"/></g><g id="Stormtroopers"><g><rect x="48.21" y="67.17" width="5.28" height="14.86" fill="#56c5cf"/><rect x="48.21" y="67.17" width="5.28" height="14.86" fill="none" stroke="#333" stroke-miterlimit="10" stroke-width="4"/></g><g><rect x="110.98" y="67.17" width="5.28" height="14.86" fill="#56c5cf"/><rect x="110.98" y="67.17" width="5.28" height="14.86" fill="none" stroke="#333" stroke-miterlimit="10" stroke-width="4"/></g><g><path d="M61.9,120.76c-6.69-5.43-11.99-11.81-15.38-18.54-1.9-3.78-1.85-8.2,.14-11.8,.53-.96,1.11-1.91,1.72-2.83,4.72-7.12,7.22-15.17,7.22-23.29,0-12.43,10.11-22.54,22.54-22.54h8.41c12.43,0,22.54,10.11,22.54,22.54,0,8.16,2.49,16.21,7.21,23.32,.66,.99,1.27,2.01,1.84,3.05,1.88,3.44,2,7.55,.34,10.98-3.37,6.93-8.77,13.52-15.68,19.12l-9.63-7.27c-.36-.27-.78-.4-1.21-.4-.39,0-.78,.11-1.12,.34-2.93,1.98-5.71,2.95-8.5,2.95-3.12,0-6.01-.88-8.84-2.7-.33-.21-.71-.32-1.08-.32-.42,0-.85,.13-1.2,.4l-9.33,7Z" fill="url(#linear-gradient)"/><path d="M86.55,43.76c11.33,0,20.54,9.21,20.54,20.58,0,8.51,2.61,16.94,7.55,24.38,.62,.94,1.21,1.91,1.75,2.9,1.57,2.88,1.68,6.3,.3,9.15-3.04,6.27-7.83,12.25-13.94,17.45l-8.36-6.32c-.71-.54-1.56-.81-2.41-.81-.78,0-1.57,.23-2.24,.69-2.58,1.75-5,2.6-7.38,2.6-2.72,0-5.26-.78-7.76-2.39-.66-.42-1.41-.63-2.16-.63-.85,0-1.69,.27-2.4,.8l-8.06,6.05c-5.91-5.03-10.6-10.82-13.65-16.89-1.61-3.19-1.57-6.91,.11-9.94,.51-.91,1.05-1.82,1.63-2.69,4.94-7.45,7.56-15.88,7.56-24.4,0-11.33,9.21-20.54,20.54-20.54h8.41m0-4h-8.41c-13.55,0-24.54,10.99-24.54,24.54h0c0,7.92-2.51,15.58-6.89,22.18-.64,.96-1.24,1.95-1.8,2.97-2.34,4.23-2.35,9.36-.18,13.67,3.96,7.87,10.09,14.71,17.13,20.17l10.56-7.93c2.82,1.81,6.09,3.02,9.92,3.02,3.58,0,6.81-1.39,9.62-3.29l10.86,8.2c7.24-5.61,13.51-12.65,17.45-20.78,1.97-4.06,1.78-8.85-.38-12.81-.6-1.1-1.24-2.16-1.93-3.2-4.38-6.6-6.88-14.26-6.88-22.17v-.04c0-13.55-10.99-24.54-24.54-24.54h0Z" fill="#cceef1"/><path d="M86.55,43.76c11.33,0,20.54,9.21,20.54,20.58,0,8.51,2.61,16.94,7.55,24.38,.62,.94,1.21,1.91,1.75,2.9,1.57,2.88,1.68,6.3,.3,9.15-3.04,6.27-7.83,12.25-13.94,17.45l-8.36-6.32c-.71-.54-1.56-.81-2.41-.81-.78,0-1.57,.23-2.24,.69-2.58,1.75-5,2.6-7.38,2.6-2.72,0-5.26-.78-7.76-2.39-.66-.42-1.41-.63-2.16-.63-.85,0-1.69,.27-2.4,.8l-8.06,6.05c-5.91-5.03-10.6-10.82-13.65-16.89-1.61-3.19-1.57-6.91,.11-9.94,.51-.91,1.05-1.82,1.63-2.69,4.94-7.45,7.56-15.88,7.56-24.4,0-11.33,9.21-20.54,20.54-20.54h8.41m0-4h-8.41c-13.55,0-24.54,10.99-24.54,24.54h0c0,7.92-2.51,15.58-6.89,22.18-.64,.96-1.24,1.95-1.8,2.97-2.34,4.23-2.35,9.36-.18,13.67,3.96,7.87,10.09,14.71,17.13,20.17l10.56-7.93c2.82,1.81,6.09,3.02,9.92,3.02,3.58,0,6.81-1.39,9.62-3.29l10.86,8.2c7.24-5.61,13.51-12.65,17.45-20.78,1.97-4.06,1.78-8.85-.38-12.81-.6-1.1-1.24-2.16-1.93-3.2-4.38-6.6-6.88-14.26-6.88-22.17v-.04c0-13.55-10.99-24.54-24.54-24.54h0Z" fill="#c4ebee"/><path d="M119.9,89.7c-.6-1.09-1.24-2.16-1.93-3.2-4.38-6.6-6.88-14.26-6.88-22.17v-.04c0-13.55-10.99-24.54-24.54-24.54h-8.41c-13.55,0-24.54,10.99-24.54,24.54h0c0,7.92-2.51,15.58-6.89,22.18-.64,.96-1.24,1.95-1.8,2.97-2.34,4.23-2.35,9.36-.18,13.67,3.96,7.87,10.09,14.71,17.13,20.17l10.56-7.93c2.82,1.81,6.09,3.02,9.92,3.02,3.58,0,6.81-1.39,9.62-3.29l10.86,8.2c7.24-5.61,13.51-12.65,17.45-20.78,1.97-4.06,1.78-8.85-.38-12.81Z" fill="none" stroke="#333" stroke-linecap="round" stroke-linejoin="round" stroke-width="4"/></g><path d="M62.18,104.99c-5.35-6.82-7.12-14.22-7.12-22.29" fill="none" stroke="#333" stroke-linecap="round" stroke-linejoin="round" stroke-width="4"/><path d="M109.41,82.7c0,8.06-1.77,15.46-7.12,22.29" fill="none" stroke="#333" stroke-linecap="round" stroke-linejoin="round" stroke-width="4"/><path d="M102.09,104.13c-1.31-4.49-8.32-7.65-12.03-10.31-3.39-2.43-3.34-4.39-7.83-4.39s-4.42,1.95-7.81,4.38c-3.72,2.66-10.73,5.83-12.05,10.32,1.02-3.63,6.46-10.4,9.03-13.83,3.72-4.95,5.26-8.47,10.82-8.47s7.11,3.52,10.83,8.47c2.57,3.42,8.01,10.2,9.03,13.83Z" fill="url(#radial-gradient)" stroke="#333" stroke-linejoin="round" stroke-width="4"/><g><path d="M101.19,106.57c-4.48-2.13-8.41-.89-10.82,.55-1.13,.67-2.61,.39-3.29-.74-.98-1.62-2.77-1.95-4.8-1.95s-3.81,.33-4.8,1.95c-.68,1.11-2.14,1.42-3.26,.75-2.43-1.43-6.42-2.68-10.89-.6-1.77,.82-3.21,2.25-4.08,4-4.5,9.02,3.98,17.99,12.98,14.44,1.71-.68,3.17-1.89,4.19-3.43,.72-1.08,1.21-2.15,1.51-3.19,.57-1.95,2.6-3.46,4.35-3.46s3.69,1.53,4.26,3.43c.34,1.14,.92,2.31,1.79,3.52,1.07,1.47,2.53,2.64,4.25,3.26,8.84,3.18,17.03-5.6,12.69-14.48-.86-1.76-2.31-3.2-4.08-4.04Z" fill="url(#linear-gradient-2)"/><path d="M101.19,106.57c-4.48-2.13-8.41-.89-10.82,.55-1.13,.67-2.61,.39-3.29-.74-.98-1.62-2.77-1.95-4.8-1.95s-3.81,.33-4.8,1.95c-.68,1.11-2.14,1.42-3.26,.75-2.43-1.43-6.42-2.68-10.89-.6-1.77,.82-3.21,2.25-4.08,4-4.5,9.02,3.98,17.99,12.98,14.44,1.71-.68,3.17-1.89,4.19-3.43,.72-1.08,1.21-2.15,1.51-3.19,.57-1.95,2.6-3.46,4.35-3.46s3.69,1.53,4.26,3.43c.34,1.14,.92,2.31,1.79,3.52,1.07,1.47,2.53,2.64,4.25,3.26,8.84,3.18,17.03-5.6,12.69-14.48-.86-1.76-2.31-3.2-4.08-4.04Z" fill="none" stroke="#333" stroke-miterlimit="10" stroke-width="4"/></g><g><path d="M82.23,108.53h0c1.25,0,2.26,1.01,2.26,2.26v8.02h-4.53v-8.02c0-1.25,1.01-2.26,2.26-2.26Z" fill="#56c5cf"/><path d="M82.23,108.53h0c1.25,0,2.26,1.01,2.26,2.26v8.02h-4.53v-8.02c0-1.25,1.01-2.26,2.26-2.26Z" fill="none" stroke="#333" stroke-miterlimit="10" stroke-width="4"/></g><g><path d="M56.21,67.17c0,2.31,.14,5,1.17,7.35,1.49,3.4,4.44,5.97,8.3,5.97,4.44,0,10.5-3.34,13.9-7.23,1.36-1.56,3.81-1.57,5.18-.02,3.44,3.9,9.6,7.25,14.05,7.25,3.86,0,6.81-2.57,8.3-5.97,1.03-2.35,1.17-5.03,1.17-7.35H56.21Z" fill="url(#radial-gradient-2)"/><path d="M56.21,67.17c0,2.31,.14,5,1.17,7.35,1.49,3.4,4.44,5.97,8.3,5.97,4.44,0,10.5-3.34,13.9-7.23,1.36-1.56,3.81-1.57,5.18-.02,3.44,3.9,9.6,7.25,14.05,7.25,3.86,0,6.81-2.57,8.3-5.97,1.03-2.35,1.17-5.03,1.17-7.35H56.21Z" fill="none" stroke="#333" stroke-miterlimit="10" stroke-width="4"/></g><g><path d="M99.71,71.17c-.21,.82-.43,1.03-.48,1.06-.03,.01-.16,.06-.43,.06-1.08,0-2.39-.45-3.65-1.11h4.56m4.35-4h-17.53c0,3.87,7.43,9.11,12.27,9.11s5.26-5.24,5.26-9.11h0Z" fill="#d1a4cc"/><path d="M86.53,67.17c0,3.87,7.43,9.11,12.27,9.11s5.26-5.24,5.26-9.11h-17.53Z" fill="none" stroke="#333" stroke-miterlimit="10" stroke-width="4"/></g><g><path d="M73.95,67.04s0,0,0,0h0m-4.63,4.12c-1.26,.66-2.57,1.11-3.65,1.11-.27,0-.41-.04-.43-.05-.04-.03-.27-.24-.48-1.06h4.56m8.62-4h-17.53c0,3.87,.42,9.11,5.26,9.11s12.27-5.24,12.27-9.11h0Z" fill="#d1a4cc"/><path d="M77.94,67.17c0,3.87-7.43,9.11-12.27,9.11s-5.26-5.24-5.26-9.11c3.83,0,12.36,0,17.53,0Z" fill="none" stroke="#333" stroke-miterlimit="10" stroke-width="4"/></g><g><path d="M96.3,118.85c-1.8,0-3.26-1.46-3.26-3.26s1.46-3.26,3.26-3.26,3.26,1.46,3.26,3.26-1.46,3.26-3.26,3.26Z" fill="#56c5cf"/><path d="M96.3,114.33c.69,0,1.26,.56,1.26,1.26s-.56,1.26-1.26,1.26-1.26-.56-1.26-1.26,.56-1.26,1.26-1.26m0-4c-2.9,0-5.26,2.35-5.26,5.26s2.35,5.26,5.26,5.26,5.26-2.35,5.26-5.26-2.35-5.26-5.26-5.26h0Z" fill="#d1a4cc"/><circle cx="96.3" cy="115.59" r="5.26" fill="none" stroke="#333" stroke-miterlimit="10" stroke-width="4"/></g><g><path d="M68.17,118.85c-1.8,0-3.26-1.46-3.26-3.26s1.46-3.26,3.26-3.26,3.26,1.46,3.26,3.26-1.46,3.26-3.26,3.26Z" fill="#56c5cf"/><path d="M68.17,114.33c.69,0,1.26,.56,1.26,1.26s-.56,1.26-1.26,1.26-1.26-.56-1.26-1.26,.56-1.26,1.26-1.26m0-4c-2.9,0-5.26,2.35-5.26,5.26s2.35,5.26,5.26,5.26,5.26-2.35,5.26-5.26-2.35-5.26-5.26-5.26h0Z" fill="#d1a4cc"/><circle cx="68.17" cy="115.59" r="5.26" fill="none" stroke="#333" stroke-miterlimit="10" stroke-width="4"/></g><path d="M54.18,88.58c-1.17,1.47-2.22,3.04-3.15,4.69" fill="none" stroke="#333" stroke-linecap="round" stroke-linejoin="round" stroke-width="4"/><path d="M113.44,93.27c-.93-1.65-1.98-3.22-3.15-4.69" fill="none" stroke="#333" stroke-linecap="round" stroke-linejoin="round" stroke-width="4"/><path d="M55.62,93.79c-.99,1.56-1.84,3.2-2.56,4.93" fill="none" stroke="#333" stroke-linecap="round" stroke-linejoin="round" stroke-width="4"/><path d="M111.41,98.71c-.72-1.72-1.57-3.37-2.56-4.93" fill="none" stroke="#333" stroke-linecap="round" stroke-linejoin="round" stroke-width="4"/><g><path d="M109.98,62.47H54.49c-.55,0-1,.45-1,1v3.69h57.49v-3.69c0-.55-.45-1-1-1h0Z" fill="#d1a4cc"/><path d="M110.98,67.17H53.49v-3.69c0-.55,.45-1,1-1h55.49c.55,0,1,.45,1,1v3.69Z" fill="none" stroke="#333" stroke-miterlimit="10" stroke-width="4"/></g></g><g id="bg_circle-2"><g id="smalltext"><path d="M120,29.52c.18,.37,.54,.86,1.01,1.2,.51,.37,.94,.35,1.17,.03,.22-.3,.11-.65-.33-1.28-.61-.88-.83-1.72-.31-2.44,.6-.84,1.77-.97,2.93-.14,.56,.4,.89,.81,1.08,1.15l-.89,.72c-.13-.23-.38-.63-.86-.97-.48-.35-.88-.29-1.06-.04-.23,.31-.05,.65,.41,1.35,.64,.95,.72,1.7,.21,2.39-.59,.82-1.73,1.07-3.09,.1-.56-.4-1.01-.96-1.17-1.31l.89-.76Z" fill="#fff"/><path d="M127.01,30.43l-1.25-1.05,.74-.88,3.58,3-.74,.88-1.27-1.07-3.16,3.77-1.05-.88,3.16-3.77Z" fill="#fff"/><path d="M132.55,38.08c-1.4,1.41-3.11,1.42-4.37,.17-1.28-1.27-1.07-2.98,.15-4.21,1.28-1.29,3.07-1.43,4.34-.17,1.32,1.31,1.06,3.02-.12,4.21Zm-3.17-3.04c-.84,.84-1.03,1.83-.38,2.48,.66,.65,1.65,.41,2.49-.43,.77-.78,1.06-1.8,.39-2.47-.66-.66-1.66-.42-2.5,.42Z" fill="#fff"/><path d="M135.43,37c.34,.29,.8,.75,1.27,1.31,.58,.69,.88,1.26,.9,1.81,.01,.46-.18,.89-.61,1.25-.59,.5-1.35,.42-1.83,.14l-.02,.02c.14,.43-.01,.87-.34,1.35-.4,.59-.89,1.23-.99,1.48l-.9-1.07c.07-.18,.35-.61,.81-1.23,.47-.62,.46-.94,.1-1.38l-.26-.31-1.82,1.53-.88-1.04,4.57-3.85Zm-1.12,2.72l.35,.41c.44,.52,.97,.61,1.37,.27,.42-.36,.4-.83,0-1.31-.21-.25-.35-.38-.43-.44l-1.28,1.08Z" fill="#fff"/><path d="M139.01,47.76c.59-.44,1.3-.96,2.03-1.45v-.02c-.76,.28-1.62,.55-2.34,.77l-2.37,.72-.6-.88,1.57-1.86c.48-.56,1.08-1.22,1.65-1.79v-.02c-.71,.44-1.5,.94-2.15,1.34l-1.96,1.21-.72-1.05,5.23-3.1,1.03,1.51-1.34,1.63c-.47,.55-.99,1.14-1.5,1.65l.02,.02c.67-.26,1.45-.54,2.12-.75l2.03-.61,1.01,1.48-4.83,3.69-.75-1.1,1.86-1.39Z" fill="#fff"/><path d="M143.13,49.59l-.79-1.43,1.01-.56,2.26,4.08-1.01,.56-.81-1.45-4.3,2.38-.67-1.2,4.3-2.38Z" fill="#fff"/><path d="M146,52.69c.25,.37,.57,.94,.87,1.61,.37,.82,.51,1.45,.38,1.99-.11,.45-.42,.81-.93,1.04-.7,.32-1.41,.04-1.8-.36h-.03c.02,.47-.25,.85-.69,1.22-.55,.45-1.19,.95-1.36,1.15l-.58-1.28c.12-.16,.5-.5,1.11-.96,.62-.47,.7-.78,.47-1.3l-.17-.37-2.17,.99-.56-1.24,5.45-2.48Zm-1.81,2.32l.22,.49c.28,.62,.77,.85,1.25,.63,.51-.23,.61-.69,.35-1.27-.14-.3-.23-.47-.3-.54l-1.52,.69Z" fill="#fff"/><path d="M147.43,64.1c-1.88,.66-3.41-.08-4-1.75-.59-1.7,.34-3.15,1.97-3.72,1.71-.6,3.38,.05,3.97,1.74,.62,1.76-.36,3.18-1.95,3.73Zm-1.52-4.11c-1.12,.39-1.73,1.2-1.43,2.06,.31,.88,1.31,1.09,2.42,.7,1.03-.36,1.74-1.16,1.43-2.05-.31-.88-1.31-1.1-2.43-.71Z" fill="#fff"/><path d="M149,70.48c-1.93,.47-3.38-.42-3.8-2.14-.42-1.75,.65-3.09,2.33-3.5,1.76-.42,3.36,.39,3.77,2.13,.44,1.81-.68,3.12-2.31,3.52Zm-1.1-4.24c-1.15,.28-1.84,1.02-1.62,1.91,.22,.9,1.19,1.21,2.34,.94,1.06-.26,1.85-.98,1.63-1.89-.22-.9-1.2-1.22-2.34-.95Z" fill="#fff"/><path d="M152.03,71.1c.13,.41,.27,.99,.4,1.81,.12,.83,.05,1.46-.21,1.91-.24,.43-.7,.75-1.29,.84-.59,.09-1.12-.03-1.5-.34-.5-.4-.81-1.06-.92-1.85-.03-.18-.04-.34-.04-.47l-2.15,.32-.2-1.34,5.92-.87Zm-2.52,1.74c0,.12,0,.26,.03,.46,.11,.72,.54,1.11,1.14,1.02,.55-.08,.82-.51,.72-1.19-.04-.27-.09-.45-.13-.55l-1.77,.26Z" fill="#fff"/><path d="M149.62,80.46l-.16-2.23-1.44,.1,.17,2.49-1.12,.08-.27-3.85,6.05-.42,.26,3.73-1.12,.08-.16-2.36-1.26,.09,.16,2.23-1.11,.08Z" fill="#fff"/><path d="M153.11,81.8c.07,.44,.11,1.1,.1,1.83-.02,.9-.16,1.53-.51,1.96-.29,.36-.72,.55-1.28,.54-.77-.01-1.29-.57-1.47-1.1h-.03c-.18,.42-.58,.65-1.14,.79-.69,.18-1.48,.35-1.72,.46l.02-1.4c.18-.09,.67-.23,1.42-.39,.76-.16,.97-.41,.99-.97v-.41s-2.38-.04-2.38-.04l.02-1.36,5.98,.1Zm-2.63,1.31v.54c-.02,.68,.32,1.09,.85,1.1,.56,0,.85-.37,.86-.99,0-.33-.01-.52-.04-.62l-1.67-.03Z" fill="#fff"/><path d="M116.82,139.23c-.41,0-1,.13-1.51,.41-.55,.31-.71,.7-.52,1.05,.18,.33,.54,.38,1.3,.24,1.06-.18,1.9-.03,2.34,.75,.51,.9,.14,2.01-1.11,2.71-.6,.34-1.11,.46-1.5,.49l-.27-1.11c.27-.02,.73-.08,1.24-.37,.52-.29,.63-.67,.48-.94-.19-.34-.56-.32-1.4-.19-1.13,.18-1.84-.07-2.26-.81-.5-.88-.25-2.02,1.21-2.84,.6-.34,1.29-.51,1.68-.51l.31,1.12Z" fill="#fff"/><path d="M113.01,145.22l1.48-.69,.49,1.04-4.23,1.97-.49-1.04,1.51-.7-2.07-4.46,1.24-.58,2.07,4.46Z" fill="#fff"/><path d="M103.73,147c-.69-1.87,.03-3.41,1.7-4.02,1.69-.62,3.15,.29,3.75,1.92,.62,1.7,0,3.38-1.68,4-1.75,.64-3.18-.32-3.76-1.89Zm4.09-1.58c-.41-1.12-1.22-1.71-2.08-1.4-.87,.32-1.07,1.32-.66,2.43,.38,1.03,1.18,1.73,2.07,1.4,.87-.32,1.08-1.33,.67-2.44Z" fill="#fff"/><path d="M103.47,150.07c-.41,.19-1.02,.41-1.73,.6-.87,.23-1.51,.26-2.02,.04-.42-.18-.73-.55-.87-1.08-.2-.74,.2-1.4,.65-1.72v-.03c-.46-.06-.79-.38-1.08-.88-.36-.62-.74-1.33-.91-1.53l1.36-.36c.14,.15,.41,.58,.77,1.26,.36,.69,.66,.82,1.2,.68l.39-.11-.61-2.3,1.31-.35,1.54,5.78Zm-1.99-2.17l-.52,.14c-.66,.17-.96,.62-.83,1.12,.14,.54,.58,.71,1.19,.55,.32-.08,.5-.16,.58-.2l-.43-1.62Z" fill="#fff"/><path d="M92.25,148.74c.15,.72,.31,1.58,.45,2.46h.02c.07-.8,.18-1.69,.29-2.44l.35-2.45,1.05-.17,1.02,2.21c.31,.67,.65,1.49,.92,2.26h.02c-.1-.82-.22-1.75-.31-2.5l-.26-2.29,1.25-.2,.59,6.05-1.8,.29-.91-1.9c-.3-.66-.61-1.38-.86-2.06h-.03c-.05,.72-.12,1.55-.22,2.25l-.31,2.09-1.77,.29-1.3-5.93,1.32-.21,.47,2.27Z" fill="#fff"/><path d="M88.82,151.68l1.63-.11,.08,1.15-4.66,.31-.08-1.15,1.66-.11-.33-4.91,1.37-.09,.33,4.91Z" fill="#fff"/><path d="M84.76,152.98c-.44,.07-1.1,.11-1.83,.1-.9-.02-1.53-.16-1.96-.51-.36-.29-.55-.72-.54-1.28,.01-.77,.57-1.29,1.1-1.47v-.03c-.42-.18-.65-.58-.79-1.14-.18-.69-.35-1.48-.46-1.72l1.4,.02c.09,.18,.23,.67,.39,1.42,.16,.76,.41,.97,.97,.99h.41s.04-2.38,.04-2.38l1.36,.02-.1,5.98Zm-1.31-2.63h-.54c-.68-.02-1.09,.32-1.1,.85,0,.56,.37,.85,.99,.86,.33,0,.52-.01,.62-.04l.03-1.67Z" fill="#fff"/><path d="M73.87,149.44c.2-1.98,1.52-3.06,3.28-2.88,1.79,.18,2.71,1.64,2.53,3.36-.18,1.8-1.48,3.04-3.26,2.86-1.85-.19-2.73-1.67-2.56-3.34Zm4.37,.36c.12-1.18-.35-2.07-1.27-2.16-.92-.09-1.54,.73-1.66,1.9-.11,1.09,.31,2.07,1.25,2.16,.92,.09,1.55-.73,1.67-1.9Z" fill="#fff"/><path d="M67.4,148.18c.39-1.95,1.81-2.89,3.54-2.54,1.76,.35,2.53,1.9,2.19,3.59-.36,1.78-1.77,2.88-3.52,2.53-1.82-.37-2.55-1.93-2.22-3.58Zm4.31,.79c.23-1.16-.15-2.1-1.05-2.28-.91-.18-1.6,.57-1.83,1.73-.21,1.07,.11,2.09,1.03,2.27,.91,.18,1.61-.57,1.85-1.73Z" fill="#fff"/><path d="M65.55,150.65c-.42-.05-1.01-.17-1.81-.41-.81-.24-1.34-.57-1.64-1-.29-.4-.39-.96-.22-1.53,.17-.57,.5-1,.94-1.22,.57-.29,1.3-.28,2.07-.06,.17,.05,.33,.11,.44,.16l.62-2.08,1.3,.39-1.71,5.73Zm-.52-3.02c-.1-.06-.23-.11-.43-.16-.7-.21-1.23,.02-1.41,.61-.16,.53,.11,.96,.77,1.16,.26,.08,.45,.11,.55,.12l.51-1.72Z" fill="#fff"/><path d="M58.11,144.52l2.08,.8,.52-1.35-2.33-.89,.4-1.05,3.61,1.38-2.17,5.67-3.49-1.34,.4-1.05,2.21,.85,.45-1.18-2.09-.8,.4-1.04Z" fill="#fff"/><path d="M55.47,147.12c-.43-.12-1.04-.35-1.7-.67-.81-.39-1.32-.78-1.57-1.28-.2-.42-.2-.89,.04-1.39,.33-.69,1.06-.94,1.61-.89v-.03c-.29-.33-.34-.8-.23-1.37,.13-.7,.3-1.49,.29-1.76l1.27,.6c0,.2-.06,.7-.23,1.46-.17,.76-.03,1.05,.48,1.3l.37,.17,1.03-2.15,1.23,.59-2.58,5.41Zm-.1-2.94l-.49-.23c-.61-.29-1.13-.16-1.36,.32-.24,.5-.02,.92,.55,1.2,.3,.14,.48,.21,.58,.22l.72-1.51Z" fill="#fff"/><path d="M18.59,79.01c.23-.34,.47-.89,.52-1.48,.06-.63-.17-.98-.57-1.02-.37-.03-.62,.23-.94,.93-.45,.97-1.06,1.58-1.94,1.5-1.03-.1-1.73-1.03-1.6-2.45,.06-.69,.25-1.17,.45-1.51l1.07,.4c-.14,.23-.35,.65-.4,1.23-.06,.59,.19,.9,.5,.93,.38,.04,.58-.28,.95-1.04,.5-1.03,1.1-1.47,1.95-1.39,1.01,.09,1.8,.95,1.64,2.61-.06,.68-.31,1.35-.53,1.67l-1.1-.38Z" fill="#fff"/><path d="M15.82,72.5l-.27,1.62-1.14-.19,.78-4.61,1.14,.19-.28,1.64,4.85,.83-.23,1.35-4.85-.82Z" fill="#fff"/><path d="M19.62,63.87c1.93,.5,2.79,1.96,2.35,3.68-.45,1.74-2.03,2.43-3.7,2-1.76-.45-2.78-1.92-2.34-3.65,.46-1.8,2.07-2.44,3.69-2.02Zm-1.02,4.26c1.15,.3,2.1-.04,2.33-.92,.23-.9-.49-1.63-1.63-1.92-1.06-.27-2.09,0-2.33,.91-.23,.9,.48,1.64,1.62,1.94Z" fill="#fff"/><path d="M17.25,61.88c.08-.44,.25-1.07,.49-1.76,.3-.85,.65-1.39,1.11-1.69,.39-.24,.86-.29,1.39-.1,.72,.26,1.04,.96,1.04,1.51h.03c.3-.33,.76-.42,1.34-.37,.71,.06,1.52,.15,1.78,.12l-.47,1.32c-.2,.03-.71,0-1.47-.08-.77-.1-1.05,.07-1.24,.6l-.14,.38,2.24,.8-.46,1.28-5.63-2.02Zm2.91-.4l.18-.51c.23-.64,.04-1.14-.46-1.32-.52-.19-.92,.07-1.13,.66-.11,.31-.16,.5-.17,.6l1.57,.56Z" fill="#fff"/><path d="M24.71,53.41c-.68-.29-1.48-.64-2.28-1.02v.02c.61,.51,1.28,1.11,1.83,1.62l1.82,1.69-.46,.96-2.4-.41c-.73-.13-1.59-.32-2.38-.52v.02c.72,.38,1.56,.81,2.22,1.17l2.03,1.09-.54,1.15-5.32-2.95,.78-1.65,2.09,.33c.71,.12,1.48,.28,2.18,.47v-.03c-.55-.45-1.19-.98-1.71-1.46l-1.55-1.45,.77-1.62,5.62,2.31-.57,1.21-2.14-.91Z" fill="#fff"/><path d="M24.24,48.91l-.84,1.41-.99-.59,2.39-4.01,.99,.59-.85,1.43,4.22,2.52-.7,1.18-4.22-2.52Z" fill="#fff"/><path d="M25.47,44.87c.19-.4,.53-.97,.95-1.56,.52-.73,1-1.17,1.53-1.32,.44-.13,.91-.04,1.36,.28,.63,.44,.75,1.2,.6,1.74l.02,.02c.38-.25,.85-.21,1.39,0,.67,.24,1.42,.55,1.68,.59l-.81,1.15c-.2-.03-.68-.18-1.39-.48-.72-.3-1.03-.21-1.36,.25l-.24,.33,1.94,1.38-.79,1.11-4.88-3.46Zm2.91,.4l.31-.44c.39-.55,.35-1.09-.08-1.39-.45-.32-.9-.17-1.27,.33-.19,.27-.28,.44-.32,.53l1.36,.97Z" fill="#fff"/><path d="M34.59,37.9c1.52,1.29,1.65,2.99,.5,4.34-1.17,1.37-2.89,1.29-4.21,.17-1.38-1.18-1.66-2.95-.5-4.31,1.21-1.42,2.93-1.29,4.21-.2Zm-2.79,3.39c.9,.77,1.91,.89,2.5,.19,.6-.71,.28-1.68-.62-2.44-.83-.71-1.88-.92-2.49-.2-.6,.71-.29,1.69,.61,2.46Z" fill="#fff"/><path d="M39.32,33.3c1.38,1.43,1.35,3.13,.07,4.36-1.3,1.25-3,1-4.2-.25-1.26-1.31-1.36-3.1-.07-4.33,1.34-1.29,3.04-.99,4.2,.22Zm-3.1,3.09c.82,.86,1.81,1.07,2.47,.44,.67-.64,.44-1.64-.38-2.49-.76-.79-1.78-1.1-2.46-.45-.67,.64-.45,1.65,.37,2.5Z" fill="#fff"/><path d="M38.31,30.38c.28-.32,.71-.74,1.36-1.26,.66-.53,1.23-.78,1.75-.78,.49,0,1.01,.23,1.38,.69s.54,.98,.47,1.47c-.09,.64-.51,1.23-1.13,1.74-.14,.11-.28,.21-.38,.27l1.36,1.69-1.06,.85-3.75-4.67Zm2.79,1.29c.1-.05,.22-.13,.38-.26,.57-.46,.69-1.03,.3-1.51-.35-.44-.86-.46-1.4-.02-.21,.17-.34,.31-.41,.39l1.12,1.4Z" fill="#fff"/><path d="M47.61,27.73l-1.84,1.26,.81,1.19,2.06-1.41,.63,.93-3.19,2.18-3.42-5.01,3.09-2.11,.63,.93-1.95,1.34,.71,1.04,1.84-1.26,.63,.92Z" fill="#fff"/><path d="M46.96,24.08c.34-.28,.88-.66,1.51-1.02,.78-.45,1.39-.65,1.94-.57,.46,.07,.84,.34,1.12,.82,.38,.67,.18,1.4-.18,1.83v.02c.46-.06,.87,.17,1.28,.57,.51,.5,1.06,1.09,1.28,1.24l-1.22,.7c-.17-.11-.54-.45-1.07-1.02-.53-.57-.85-.62-1.34-.34l-.35,.2,1.19,2.06-1.18,.68-2.99-5.18Zm2.48,1.58l.47-.27c.59-.34,.77-.84,.51-1.3-.28-.48-.75-.54-1.29-.23-.28,.16-.44,.28-.51,.35l.84,1.45Z" fill="#fff"/></g><circle id="bg_circle-3" cx="83.49" cy="83.36" r="74.9" transform="translate(-11.52 153.31) rotate(-81.32)" fill="none" opacity=".7" stroke="#fff" stroke-miterlimit="10"/></g></svg>