<?xml version="1.0" encoding="UTF-8"?><svg id="tieln" xmlns="http://www.w3.org/2000/svg" xmlns:xlink="http://www.w3.org/1999/xlink" viewBox="0 0 166.69 167.01"><defs><filter id="drop-shadow-1" filterUnits="userSpaceOnUse"><feOffset dx="0" dy="7.2"/><feGaussianBlur result="blur" stdDeviation="7.2"/><feFlood flood-color="#000" flood-opacity=".75"/><feComposite in2="blur" operator="in"/><feComposite in="SourceGraphic"/></filter><linearGradient id="linear-gradient" x1="98.7" y1="83.56" x2="120.44" y2="83.56" gradientUnits="userSpaceOnUse"><stop offset="0" stop-color="#b268aa"/><stop offset="1" stop-color="#9adce2"/></linearGradient><linearGradient id="linear-gradient-2" x1="44.09" y1="83.56" x2="65.83" y2="83.56" gradientUnits="userSpaceOnUse"><stop offset="0" stop-color="#9adce2"/><stop offset="1" stop-color="#b268aa"/></linearGradient><linearGradient id="New_Gradient_Swatch_5" x1="59.51" y1="83.54" x2="105.02" y2="83.54" gradientUnits="userSpaceOnUse"><stop offset="0" stop-color="#56c5cf"/><stop offset=".17" stop-color="#6cb7ca"/><stop offset=".54" stop-color="#9a9cc2"/><stop offset=".83" stop-color="#b68cbc"/><stop offset="1" stop-color="#c186bb"/></linearGradient></defs>

<style>

      /* these are my interactive overrides */
      #smalltext { transition: all 0.5s ease; transform-origin: 50%;}

      #tieln:hover #bg_circle { fill: blue; }

      #tieln:hover #smalltext { fill: red; transform: rotate(170deg); }

</style>

    <script>
      // select elements you want to interact with first
      let theBadge = document.querySelector('#tieln');

      // functions always go in the middle
      function logMyId() {        
        console.log(this.id);
      }

      // event handling at the bottom
      theBadge.addEventListener('click', logMyId);
    </script>

<g id="newBadge"><path id="bg_circle" d="M80.91,1.81c1.34-2.41,3.53-2.41,4.87,0,1.34,2.41,3.76,2.56,5.39,.34,1.63-2.22,3.8-1.95,4.83,.61,1.02,2.56,3.41,3.01,5.31,1.01,1.9-2,4.01-1.46,4.71,1.21,.7,2.67,3.01,3.42,5.14,1.67,2.13-1.75,4.16-.94,4.52,1.79,.36,2.73,2.56,3.77,4.89,2.3,2.33-1.47,4.25-.41,4.26,2.34,.01,2.76,2.07,4.06,4.56,2.9,2.5-1.16,4.27,.12,3.93,2.86-.33,2.74,1.54,4.29,4.17,3.44,2.62-.84,4.22,.66,3.54,3.33-.67,2.67,.99,4.45,3.7,3.94,2.71-.5,4.1,1.18,3.1,3.75-1,2.57,.43,4.53,3.18,4.37,2.75-.16,3.92,1.69,2.61,4.11-1.32,2.42-.15,4.55,2.6,4.74,2.75,.18,3.68,2.17,2.07,4.4-1.61,2.24-.72,4.5,1.99,5.03,2.7,.53,3.38,2.61,1.5,4.63-1.88,2.02-1.27,4.37,1.34,5.23,2.62,.86,3.03,3.01,.91,4.78-2.12,1.77-1.81,4.18,.68,5.36,2.49,1.18,2.63,3.37,.31,4.85-2.32,1.49-2.32,3.92,0,5.41,2.32,1.49,2.18,3.67-.31,4.85-2.49,1.18-2.79,3.6-.68,5.36,2.12,1.77,1.71,3.91-.91,4.78-2.62,.86-3.22,3.22-1.34,5.23,1.88,2.02,1.2,4.1-1.5,4.63-2.7,.53-3.6,2.79-1.99,5.03,1.61,2.24,.68,4.22-2.07,4.4-2.75,.18-3.92,2.32-2.6,4.74,1.32,2.42,.14,4.27-2.61,4.11-2.75-.16-4.18,1.81-3.18,4.37,1,2.57-.39,4.25-3.1,3.75-2.71-.51-4.37,1.27-3.7,3.94,.67,2.67-.92,4.17-3.54,3.33-2.62-.84-4.5,.71-4.17,3.44,.33,2.74-1.44,4.02-3.93,2.86-2.5-1.16-4.55,.14-4.56,2.9-.01,2.76-1.93,3.81-4.26,2.34-2.33-1.47-4.53-.43-4.89,2.3-.36,2.73-2.39,3.54-4.52,1.79-2.13-1.75-4.45-1-5.14,1.67-.7,2.67-2.81,3.21-4.71,1.21-1.9-2-4.28-1.54-5.31,1.01-1.03,2.56-3.2,2.83-4.83,.61-1.63-2.22-4.06-2.07-5.39,.34-1.34,2.41-3.53,2.41-4.87,0-1.34-2.41-3.77-2.56-5.39-.34-1.63,2.22-3.8,1.95-4.83-.61-1.02-2.56-3.41-3.01-5.31-1.01-1.89,2-4.01,1.46-4.71-1.21-.7-2.67-3.01-3.42-5.14-1.67-2.13,1.75-4.16,.94-4.52-1.79-.36-2.73-2.56-3.77-4.89-2.3-2.33,1.47-4.25,.41-4.26-2.34-.01-2.76-2.06-4.06-4.56-2.9-2.5,1.16-4.27-.12-3.94-2.86,.33-2.74-1.54-4.29-4.17-3.44-2.62,.84-4.22-.66-3.55-3.33,.67-2.67-.99-4.45-3.7-3.94-2.71,.5-4.1-1.18-3.1-3.75,1-2.57-.43-4.53-3.18-4.37-2.75,.16-3.92-1.69-2.61-4.11,1.32-2.42,.15-4.55-2.6-4.74-2.75-.18-3.68-2.16-2.07-4.4,1.61-2.24,.72-4.5-1.99-5.03-2.71-.53-3.38-2.61-1.5-4.63,1.88-2.02,1.27-4.37-1.35-5.23-2.62-.86-3.03-3.01-.91-4.78,2.12-1.77,1.81-4.18-.68-5.36-2.49-1.18-2.62-3.37-.31-4.85,2.32-1.49,2.32-3.92,0-5.41-2.32-1.49-2.18-3.67,.31-4.85,2.49-1.18,2.79-3.6,.68-5.36-2.12-1.77-1.71-3.91,.91-4.78,2.62-.86,3.22-3.22,1.35-5.23-1.88-2.02-1.2-4.1,1.5-4.63,2.71-.53,3.6-2.79,1.99-5.03-1.61-2.24-.68-4.22,2.07-4.4,2.75-.18,3.92-2.32,2.6-4.74-1.32-2.42-.14-4.27,2.61-4.11,2.75,.16,4.18-1.81,3.18-4.37-1-2.57,.39-4.25,3.1-3.75,2.71,.51,4.37-1.27,3.7-3.94-.67-2.67,.92-4.17,3.55-3.33,2.63,.84,4.5-.71,4.17-3.45-.33-2.74,1.44-4.02,3.94-2.86,2.5,1.16,4.55-.14,4.56-2.9,.01-2.76,1.93-3.81,4.26-2.34,2.33,1.47,4.53,.43,4.89-2.3,.36-2.73,2.39-3.54,4.52-1.79,2.13,1.75,4.44,1,5.14-1.67,.7-2.67,2.82-3.21,4.71-1.21,1.9,2,4.28,1.54,5.31-1.01,1.03-2.56,3.2-2.83,4.83-.61,1.63,2.22,4.06,2.07,5.39-.34Z" filter="url(#drop-shadow-1)"/></g><g id="bg_circle-2"><g id="smalltext"><path d="M122.95,27.34l-1.33-.96,.67-.93,3.78,2.73-.67,.93-1.35-.97-2.88,3.98-1.11-.8,2.88-3.98Z" fill="#fff"/><path d="M127.9,29.67l-3.83,4.71-1.06-.86,3.83-4.71,1.07,.87Z" fill="#fff"/><path d="M129.33,35.61l-1.65-1.5-.97,1.07,1.84,1.68-.76,.83-2.86-2.6,4.08-4.48,2.76,2.52-.76,.83-1.75-1.59-.85,.93,1.65,1.5-.75,.82Z" fill="#fff"/><path d="M127.8,38.22l6.01-3.18,.63,.65-6.02,3.18-.63-.65Z" fill="#fff"/><path d="M134.96,36.38l.9,1.03-3.71,3.23,1.58,1.82-.87,.75-2.48-2.86,4.58-3.98Z" fill="#fff"/><path d="M133.32,43.74l4.88-3.59,.95,1.29-1.05,2.33c-.3,.67-.7,1.4-1.09,2.03l.02,.02c.6-.54,1.24-1.05,1.97-1.59l1.42-1.05,.75,1.01-4.89,3.59-.85-1.16,1.11-2.43c.31-.68,.7-1.46,1.1-2.12l-.02-.02c-.62,.51-1.3,1.03-2.1,1.62l-1.47,1.08-.75-1.01Z" fill="#fff"/><path d="M126.78,136.48l1.28-1.02,.72,.9-3.65,2.91-.72-.9,1.3-1.04-3.07-3.84,1.07-.86,3.07,3.84Z" fill="#fff"/><path d="M123.18,140.63l-3.51-4.95,1.12-.79,3.51,4.95-1.12,.79Z" fill="#fff"/><path d="M117.08,140.41l1.89-1.18-.77-1.22-2.12,1.32-.6-.95,3.28-2.05,3.22,5.14-3.17,1.98-.6-.95,2-1.25-.67-1.07-1.89,1.18-.59-.94Z" fill="#fff"/><path d="M114.98,138.24l1.44,6.64-.8,.44-1.44-6.65,.79-.43Z" fill="#fff"/><path d="M114.8,145.64l-1.24,.59-2.1-4.44-2.18,1.03-.49-1.04,3.42-1.62,2.59,5.48Z" fill="#fff"/><path d="M108.19,142.05l2.13,5.68-1.5,.56-1.96-1.64c-.56-.47-1.16-1.05-1.66-1.6h-.02c.36,.73,.67,1.49,.99,2.34l.62,1.65-1.18,.44-2.13-5.68,1.34-.5,2.04,1.73c.57,.49,1.21,1.07,1.74,1.64h.03c-.32-.75-.64-1.55-.99-2.48l-.64-1.71,1.18-.44Z" fill="#fff"/><path d="M21.08,55.03l-.69,1.48-1.04-.49,1.98-4.23,1.04,.49-.7,1.5,4.45,2.08-.58,1.24-4.45-2.08Z" fill="#fff"/><path d="M22.45,49.73l5.34,2.88-.65,1.21-5.34-2.88,.65-1.21Z" fill="#fff"/><path d="M28.02,47.22l-1.17,1.9,1.23,.76,1.31-2.12,.96,.59-2.03,3.29-5.16-3.18,1.96-3.18,.96,.59-1.24,2.01,1.08,.66,1.17-1.9,.95,.58Z" fill="#fff"/><path d="M30.86,48.24l-4.24-5.32,.52-.74,4.24,5.32-.52,.74Z" fill="#fff"/><path d="M27.73,41.53l.85-1.08,3.86,3.05,1.5-1.89,.9,.71-2.35,2.97-4.76-3.76Z" fill="#fff"/><path d="M35.28,41.8l-4.43-4.14,1.09-1.17,2.49,.6c.71,.17,1.51,.43,2.2,.7v-.02c-.63-.49-1.24-1.02-1.91-1.65l-1.29-1.21,.86-.92,4.43,4.14-.98,1.05-2.6-.65c-.73-.18-1.57-.42-2.29-.69l-.02,.02c.62,.52,1.26,1.09,1.98,1.77l1.33,1.25-.86,.92Z" fill="#fff"/></g><circle id="bg_circle-3" cx="83.49" cy="83.36" r="74.9" transform="translate(-11.52 153.31) rotate(-81.32)" fill="none" opacity=".7" stroke="#fff" stroke-miterlimit="10"/></g><g id="icons"><g id="TIE_LN"><g><polygon points="104.61 121.76 98.7 83.56 104.61 45.37 114.53 45.37 120.44 83.56 114.53 121.76 104.61 121.76" fill="url(#linear-gradient)"/><path d="M112.82,47.37l5.59,36.19-5.59,36.19h-6.5l-5.6-36.19,5.6-36.19h6.5m3.43-4h-13.35l-6.22,40.19,6.22,40.19h13.35l6.21-40.19-6.21-40.19h0Z" fill="#cceef1"/><polygon points="102.89 123.76 96.67 83.56 102.89 43.37 116.25 43.37 122.46 83.56 116.25 123.76 102.89 123.76" fill="none" stroke="#303030" stroke-linecap="round" stroke-linejoin="round" stroke-width="4"/></g><line x1="116.24" y1="43.35" x2="102.9" y2="123.74" fill="none" stroke="#333" stroke-linejoin="round" stroke-width="4"/><line x1="102.9" y1="43.35" x2="116.24" y2="123.74" fill="none" stroke="#333" stroke-linejoin="round" stroke-width="4"/><line x1="122.46" y1="83.56" x2="96.67" y2="83.56" fill="none" stroke="#333" stroke-linejoin="round" stroke-width="4"/><polygon points="108.24 91.14 104.72 83.56 108.24 75.98 110.9 75.98 114.42 83.56 110.9 91.14 108.24 91.14" fill="#b268aa" stroke="#333" stroke-linejoin="round" stroke-width="4"/><g><polygon points="50 121.76 44.09 83.56 50 45.37 59.92 45.37 65.83 83.56 59.92 121.76 50 121.76" fill="url(#linear-gradient-2)"/><path d="M58.21,47.37l5.6,36.19-5.6,36.19h-6.5l-5.59-36.19,5.59-36.19h6.5m3.43-4h-13.35l-6.21,40.19,6.21,40.19h13.35l6.22-40.19-6.22-40.19h0Z" fill="#cceef1"/><polygon points="61.64 123.76 67.86 83.56 61.64 43.37 48.28 43.37 42.07 83.56 48.28 123.76 61.64 123.76" fill="none" stroke="#303030" stroke-linecap="round" stroke-linejoin="round" stroke-width="4"/></g><line x1="48.28" y1="43.35" x2="61.63" y2="123.74" fill="none" stroke="#333" stroke-linejoin="round" stroke-width="4"/><line x1="61.63" y1="43.35" x2="48.28" y2="123.74" fill="none" stroke="#333" stroke-linejoin="round" stroke-width="4"/><line x1="42.07" y1="83.56" x2="67.86" y2="83.56" fill="none" stroke="#333" stroke-linejoin="round" stroke-width="4"/><polygon points="56.29 91.14 59.81 83.56 56.29 75.98 53.63 75.98 50.1 83.56 53.63 91.14 56.29 91.14" fill="#b268aa" stroke="#333" stroke-linejoin="round" stroke-width="4"/><polygon points="105.02 85.84 89.94 94.88 74.63 94.91 59.51 85.84 59.51 81.29 74.69 72.18 89.87 72.2 105.02 81.29 105.02 85.84" fill="url(#New_Gradient_Swatch_5)" stroke="#333" stroke-linejoin="round" stroke-width="4"/><rect x="54.96" y="81.29" width="54.6" height="4.55" rx="2.28" ry="2.28" fill="#56c5cf" stroke="#333" stroke-linejoin="round" stroke-width="4"/><g><circle cx="82.27" cy="83.56" r="13.65" fill="#56c5cf"/><circle cx="82.27" cy="83.56" r="13.65" fill="none" stroke="#333" stroke-linecap="round" stroke-linejoin="round" stroke-width="4"/></g><circle cx="82.26" cy="83.56" r="8.34" fill="#c186bb" stroke="#333" stroke-linejoin="round" stroke-width="4"/><line x1="78.09" y1="76.34" x2="86.44" y2="90.79" fill="none" stroke="#333" stroke-linejoin="round" stroke-width="4"/><line x1="86.44" y1="76.34" x2="78.09" y2="90.79" fill="none" stroke="#333" stroke-linejoin="round" stroke-width="4"/><line x1="73.92" y1="83.56" x2="90.61" y2="83.56" fill="none" stroke="#333" stroke-linejoin="round" stroke-width="4"/><polygon points="77.89 83.56 80.08 79.77 84.45 79.77 86.64 83.56 84.45 87.35 80.08 87.35 77.89 83.56" fill="#cceef1" stroke="#333" stroke-linejoin="round" stroke-width="4"/></g></g></svg>