<?xml version="1.0" encoding="UTF-8"?><svg  id="yoda" xmlns="http://www.w3.org/2000/svg" xmlns:xlink="http://www.w3.org/1999/xlink" viewBox="0 0 166.69 167.01"><defs><filter id="drop-shadow-1" filterUnits="userSpaceOnUse"><feOffset dx="0" dy="7.2"/><feGaussianBlur result="blur" stdDeviation="7.2"/><feFlood flood-color="#000" flood-opacity=".75"/><feComposite in2="blur" operator="in"/><feComposite in="SourceGraphic"/></filter><linearGradient id="linear-gradient" x1="51.77" y1="102.97" x2="116.76" y2="102.97" gradientUnits="userSpaceOnUse"><stop offset="0" stop-color="#c186bb"/><stop offset=".17" stop-color="#b68cbc"/><stop offset=".46" stop-color="#9a9cc2"/><stop offset=".83" stop-color="#6cb7ca"/><stop offset="1" stop-color="#56c5cf"/></linearGradient><linearGradient id="linear-gradient-2" x1="71.67" y1="101.24" x2="96.86" y2="101.24" xlink:href="#linear-gradient"/><linearGradient id="linear-gradient-3" x1="32.84" y1="76.65" x2="56.91" y2="76.65" xlink:href="#linear-gradient"/><linearGradient id="New_Gradient_Swatch_4" x1="111.62" y1="76.65" x2="135.53" y2="76.65" gradientUnits="userSpaceOnUse"><stop offset="0" stop-color="#56c5cf"/><stop offset=".17" stop-color="#6cb7ca"/><stop offset=".54" stop-color="#9a9cc2"/><stop offset=".83" stop-color="#b68cbc"/><stop offset="1" stop-color="#c186bb"/></linearGradient><linearGradient id="linear-gradient-4" x1="59.37" y1="76.27" x2="109.16" y2="76.27" gradientUnits="userSpaceOnUse"><stop offset="0" stop-color="#bce8ec"/><stop offset="1" stop-color="#c186bb"/></linearGradient><linearGradient id="linear-gradient-5" x1="59.37" y1="82.8" x2="109.16" y2="82.8" gradientUnits="userSpaceOnUse"><stop offset="0" stop-color="#abe2e7"/><stop offset="1" stop-color="#c186bb"/></linearGradient><linearGradient id="linear-gradient-6" x1="63.72" y1="58.98" x2="104.81" y2="58.98" gradientUnits="userSpaceOnUse"><stop offset="0" stop-color="#c186bb"/><stop offset="1" stop-color="#abe2e7"/></linearGradient></defs>

<style>

      /* these are my interactive overrides */
      #smalltext { transition: all 0.5s ease; transform-origin: 50%;}

      #yoda:hover #bg_circle { fill: LightBlue; }

      #yoda:hover #smalltext { fill: red; transform: rotate(170deg); }

</style>

    <script>
      // select elements you want to interact with first
      let theBadge = document.querySelector('#yoda');

      // functions always go in the middle
      function logMyId() {        
        console.log(this.id);
      }

      // event handling at the bottom
      theBadge.addEventListener('click', logMyId);
    </script>

<g id="newBadge"><path id="bg_circle" d="M80.91,1.81c1.34-2.41,3.53-2.41,4.87,0,1.34,2.41,3.76,2.56,5.39,.34,1.63-2.22,3.8-1.95,4.83,.61,1.02,2.56,3.41,3.01,5.31,1.01,1.9-2,4.01-1.46,4.71,1.21,.7,2.67,3.01,3.42,5.14,1.67,2.13-1.75,4.16-.94,4.52,1.79,.36,2.73,2.56,3.77,4.89,2.3,2.33-1.47,4.25-.41,4.26,2.34,.01,2.76,2.07,4.06,4.56,2.9,2.5-1.16,4.27,.12,3.93,2.86-.33,2.74,1.54,4.29,4.17,3.44,2.62-.84,4.22,.66,3.54,3.33-.67,2.67,.99,4.45,3.7,3.94,2.71-.5,4.1,1.18,3.1,3.75-1,2.57,.43,4.53,3.18,4.37,2.75-.16,3.92,1.69,2.61,4.11-1.32,2.42-.15,4.55,2.6,4.74,2.75,.18,3.68,2.17,2.07,4.4-1.61,2.24-.72,4.5,1.99,5.03,2.7,.53,3.38,2.61,1.5,4.63-1.88,2.02-1.27,4.37,1.34,5.23,2.62,.86,3.03,3.01,.91,4.78-2.12,1.77-1.81,4.18,.68,5.36,2.49,1.18,2.63,3.37,.31,4.85-2.32,1.49-2.32,3.92,0,5.41,2.32,1.49,2.18,3.67-.31,4.85-2.49,1.18-2.79,3.6-.68,5.36,2.12,1.77,1.71,3.91-.91,4.78-2.62,.86-3.22,3.22-1.34,5.23,1.88,2.02,1.2,4.1-1.5,4.63-2.7,.53-3.6,2.79-1.99,5.03,1.61,2.24,.68,4.22-2.07,4.4-2.75,.18-3.92,2.32-2.6,4.74,1.32,2.42,.14,4.27-2.61,4.11-2.75-.16-4.18,1.81-3.18,4.37,1,2.57-.39,4.25-3.1,3.75-2.71-.51-4.37,1.27-3.7,3.94,.67,2.67-.92,4.17-3.54,3.33-2.62-.84-4.5,.71-4.17,3.44,.33,2.74-1.44,4.02-3.93,2.86-2.5-1.16-4.55,.14-4.56,2.9-.01,2.76-1.93,3.81-4.26,2.34-2.33-1.47-4.53-.43-4.89,2.3-.36,2.73-2.39,3.54-4.52,1.79-2.13-1.75-4.45-1-5.14,1.67-.7,2.67-2.81,3.21-4.71,1.21-1.9-2-4.28-1.54-5.31,1.01-1.03,2.56-3.2,2.83-4.83,.61-1.63-2.22-4.06-2.07-5.39,.34-1.34,2.41-3.53,2.41-4.87,0-1.34-2.41-3.77-2.56-5.39-.34-1.63,2.22-3.8,1.95-4.83-.61-1.02-2.56-3.41-3.01-5.31-1.01-1.89,2-4.01,1.46-4.71-1.21-.7-2.67-3.01-3.42-5.14-1.67-2.13,1.75-4.16,.94-4.52-1.79-.36-2.73-2.56-3.77-4.89-2.3-2.33,1.47-4.25,.41-4.26-2.34-.01-2.76-2.06-4.06-4.56-2.9-2.5,1.16-4.27-.12-3.94-2.86,.33-2.74-1.54-4.29-4.17-3.44-2.62,.84-4.22-.66-3.55-3.33,.67-2.67-.99-4.45-3.7-3.94-2.71,.5-4.1-1.18-3.1-3.75,1-2.57-.43-4.53-3.18-4.37-2.75,.16-3.92-1.69-2.61-4.11,1.32-2.42,.15-4.55-2.6-4.74-2.75-.18-3.68-2.16-2.07-4.4,1.61-2.24,.72-4.5-1.99-5.03-2.71-.53-3.38-2.61-1.5-4.63,1.88-2.02,1.27-4.37-1.35-5.23-2.62-.86-3.03-3.01-.91-4.78,2.12-1.77,1.81-4.18-.68-5.36-2.49-1.18-2.62-3.37-.31-4.85,2.32-1.49,2.32-3.92,0-5.41-2.32-1.49-2.18-3.67,.31-4.85,2.49-1.18,2.79-3.6,.68-5.36-2.12-1.77-1.71-3.91,.91-4.78,2.62-.86,3.22-3.22,1.35-5.23-1.88-2.02-1.2-4.1,1.5-4.63,2.71-.53,3.6-2.79,1.99-5.03-1.61-2.24-.68-4.22,2.07-4.4,2.75-.18,3.92-2.32,2.6-4.74-1.32-2.42-.14-4.27,2.61-4.11,2.75,.16,4.18-1.81,3.18-4.37-1-2.57,.39-4.25,3.1-3.75,2.71,.51,4.37-1.27,3.7-3.94-.67-2.67,.92-4.17,3.55-3.33,2.63,.84,4.5-.71,4.17-3.45-.33-2.74,1.44-4.02,3.94-2.86,2.5,1.16,4.55-.14,4.56-2.9,.01-2.76,1.93-3.81,4.26-2.34,2.33,1.47,4.53,.43,4.89-2.3,.36-2.73,2.39-3.54,4.52-1.79,2.13,1.75,4.44,1,5.14-1.67,.7-2.67,2.82-3.21,4.71-1.21,1.9,2,4.28,1.54,5.31-1.01,1.03-2.56,3.2-2.83,4.83-.61,1.63,2.22,4.06,2.07,5.39-.34Z" filter="url(#drop-shadow-1)"/></g><g id="bg_circle-2"><g id="smalltext"><path d="M120.27,31.46l1.46-2.01,.56-4.02,1.27,.92-.36,1.54c-.11,.46-.19,.8-.3,1.21h.01c.33-.22,.66-.42,1.05-.66l1.35-.82,1.25,.91-3.7,1.68-1.49,2.05-1.11-.81Z" fill="#fff"/><path d="M129.29,34.79c-1.3,1.51-3,1.63-4.34,.47-1.36-1.18-1.27-2.9-.14-4.21,1.19-1.37,2.96-1.64,4.31-.47,1.41,1.22,1.27,2.94,.17,4.21Zm-3.36-2.81c-.78,.9-.9,1.9-.21,2.5,.7,.61,1.68,.29,2.45-.6,.72-.83,.94-1.87,.22-2.49-.7-.61-1.69-.3-2.46,.59Z" fill="#fff"/><path d="M132.13,33.53c.41,.31,.9,.75,1.37,1.25,.79,.83,1.16,1.52,1.24,2.25,.09,.78-.17,1.58-.95,2.32-.84,.8-1.71,1.05-2.47,.97-.83-.09-1.68-.63-2.5-1.48-.49-.52-.81-.91-1.01-1.19l4.31-4.11Zm-2.64,4.41c.07,.1,.2,.24,.31,.36,.85,.91,1.91,1.02,2.96,.02,.92-.87,.88-1.86,.07-2.71-.21-.22-.36-.35-.47-.42l-2.88,2.74Z" fill="#fff"/><path d="M133.98,42.15l-1.49,.63-.88-1.11,5.9-2.32,1.12,1.41-3.58,5.25-.92-1.16,.93-1.33-1.09-1.37Zm1.76,.57l.77-1.1c.22-.3,.5-.67,.73-.97v-.02c-.35,.15-.76,.37-1.1,.51l-1.23,.52,.83,1.05Z" fill="#fff"/><path d="M122.76,133.4l1.51,1.97,3.7,1.67-1.25,.96-1.38-.78c-.41-.23-.72-.41-1.08-.64h-.01c.12,.39,.22,.76,.35,1.21l.4,1.53-1.23,.94-.56-4.02-1.54-2.01,1.09-.83Z" fill="#fff"/><path d="M117.01,141.12c-1.08-1.67-.72-3.33,.77-4.29,1.51-.97,3.14-.4,4.07,1.05,.98,1.53,.74,3.3-.77,4.27-1.57,1.01-3.17,.39-4.08-1.03Zm3.64-2.43c-.64-1-1.57-1.4-2.34-.91-.78,.5-.75,1.52-.11,2.52,.59,.92,1.53,1.42,2.32,.92,.78-.5,.76-1.53,.13-2.53Z" fill="#fff"/><path d="M117.38,144.2c-.41,.3-.98,.64-1.59,.96-1.02,.52-1.79,.68-2.51,.55-.77-.13-1.46-.61-1.95-1.57-.53-1.03-.52-1.94-.22-2.64,.33-.76,1.08-1.43,2.13-1.97,.63-.32,1.11-.52,1.43-.63l2.71,5.3Zm-3.47-3.78c-.12,.03-.29,.12-.44,.2-1.11,.55-1.53,1.54-.87,2.83,.57,1.12,1.53,1.38,2.58,.84,.27-.14,.44-.25,.53-.33l-1.81-3.54Z" fill="#fff"/><path d="M108.58,143.52l-.18-1.61,1.32-.53,.53,6.32-1.67,.67-4.01-4.93,1.37-.55,1.01,1.27,1.62-.65Zm-1.05,1.52l.83,1.06c.23,.29,.5,.68,.72,.97h.02c-.05-.37-.14-.83-.18-1.2l-.14-1.33-1.25,.5Z" fill="#fff"/><path d="M26.47,55.13l-2.21-1.13-4.06,.08,.71-1.4,1.58,.11c.47,.03,.82,.06,1.25,.11v-.02c-.27-.29-.52-.58-.82-.94l-1.02-1.21,.7-1.38,2.24,3.39,2.25,1.15-.62,1.22Z" fill="#fff"/><path d="M28.36,45.69c1.69,1.05,2.08,2.71,1.14,4.22-.95,1.53-2.67,1.71-4.14,.79-1.54-.96-2.08-2.67-1.13-4.19,.98-1.58,2.71-1.71,4.13-.82Zm-2.25,3.76c1.01,.63,2.02,.6,2.5-.18,.49-.79,.03-1.7-.98-2.33-.93-.58-2-.63-2.49,.17-.49,.79-.03,1.71,.97,2.34Z" fill="#fff"/><path d="M26.69,43.07c.24-.45,.6-1,1.02-1.55,.7-.91,1.33-1.38,2.03-1.57,.76-.21,1.58-.08,2.44,.58,.92,.71,1.3,1.53,1.34,2.29,.03,.83-.36,1.76-1.08,2.7-.43,.57-.78,.94-1.02,1.18l-4.73-3.63Zm4.76,1.93c.09-.08,.21-.23,.31-.37,.76-.98,.72-2.04-.43-2.93-1-.77-1.97-.59-2.69,.35-.18,.24-.29,.41-.34,.53l3.15,2.42Z" fill="#fff"/><path d="M34.91,39.92l.86,1.37-.96,1.04-3.21-5.48,1.22-1.32,5.74,2.72-1,1.09-1.46-.71-1.18,1.28Zm.29-1.83l-1.2-.6c-.33-.17-.74-.4-1.07-.57h-.01c.2,.32,.48,.7,.67,1.01l.7,1.14,.91-.99Z" fill="#fff"/></g><circle id="bg_circle-3" cx="83.49" cy="83.36" r="74.9" transform="translate(-11.52 153.31) rotate(-81.32)" fill="none" opacity=".7" stroke="#fff" stroke-miterlimit="10"/></g><g id="icons"><g id="Yoda"><g><path d="M51.77,115.76c1.21-14.28,15.32-25.58,32.49-25.58s31.28,11.3,32.49,25.58H51.77Z" fill="url(#linear-gradient)"/><path d="M84.26,92.18c15.23,0,27.9,9.37,30.2,21.58H54.06c2.3-12.21,14.97-21.58,30.2-21.58m0-4c-19.1,0-34.58,13.24-34.58,29.58H118.84c0-16.34-15.48-29.58-34.58-29.58h0Z" fill="#cceef1"/><path d="M118.84,117.76H49.69c0-16.34,15.48-29.58,34.58-29.58s34.58,13.24,34.58,29.58Z" fill="none" stroke="#333" stroke-linejoin="round" stroke-width="4"/></g><g><rect x="71.67" y="93.63" width="25.2" height="15.21" fill="url(#linear-gradient-2)"/><path d="M94.86,95.63v11.21h-21.2v-11.21h21.2m4-4h-29.2v19.21h29.2v-19.21h0Z" fill="#d1a4cc"/><rect x="69.67" y="91.63" width="29.2" height="19.21" fill="none" stroke="#333" stroke-linejoin="round" stroke-width="4"/></g><g><path d="M56.91,82.72c-8.08-.13-15.88-3.53-21.45-9.39l-2.61-2.75h24.07v12.14Z" fill="url(#linear-gradient-3)"/><path d="M54.91,72.58v8.03c-6.52-.58-12.71-3.43-17.38-8.03h17.38m4-4H28.18l5.83,6.12c6.09,6.4,14.53,10.02,23.37,10.02h1.54v-16.14h0Z" fill="#d1a4cc"/><path d="M57.37,84.72h1.54v-16.14H28.17l5.83,6.12c6.09,6.4,14.53,10.02,23.37,10.02Z" fill="none" stroke="#333" stroke-linejoin="round" stroke-width="4"/></g><g><path d="M111.62,70.58h23.91l-3.49,3.49c-5.47,5.47-12.7,8.53-20.42,8.65v-12.14Z" fill="url(#New_Gradient_Swatch_4)"/><path d="M130.7,72.58l-.08,.08c-4.61,4.62-10.58,7.39-17,7.96v-8.03h17.08m9.65-4h-30.73v16.14h1.54c8.36,0,16.38-3.32,22.3-9.24l6.9-6.9h0Z" fill="#d1a4cc"/><path d="M109.62,84.72h1.54c8.36,0,16.38-3.32,22.3-9.24l6.9-6.9h-30.73v16.14Z" fill="none" stroke="#333" stroke-linejoin="round" stroke-width="4"/></g><g><path d="M84.26,101.16c-13.73,0-24.89-11.17-24.89-24.89s11.17-24.89,24.89-24.89,24.89,11.17,24.89,24.89-11.17,24.89-24.89,24.89Z" fill="url(#linear-gradient-4)"/><path d="M84.26,53.38c12.62,0,22.89,10.27,22.89,22.89s-10.27,22.89-22.89,22.89-22.89-10.27-22.89-22.89,10.27-22.89,22.89-22.89m0-4c-14.85,0-26.89,12.04-26.89,26.89s12.04,26.89,26.89,26.89,26.89-12.04,26.89-26.89-12.04-26.89-26.89-26.89h0Z" fill="#cceef1"/><circle cx="84.26" cy="76.27" r="26.89" fill="none" stroke="#333" stroke-linecap="round" stroke-linejoin="round" stroke-width="4"/></g><g><path d="M84.26,101.16c-13.73,0-24.89-11.17-24.89-24.89,0-.21,0-.42,0-.62,0-.19,.01-.38,.03-.56,0-.05,0-.1,0-.15,.43-5.84,5.45-10.49,11.41-10.49,3.33,0,6.48,1.44,8.65,3.95,1.22,1.4,2.96,2.2,4.8,2.2s3.58-.8,4.79-2.19c2.17-2.52,5.33-3.96,8.66-3.96,5.94,0,10.94,4.62,11.41,10.53,0,.04,0,.09,0,.11,.01,.17,.02,.35,.02,.53,0,.24,0,.45,0,.65,0,13.73-11.17,24.89-24.89,24.89Z" fill="url(#linear-gradient-5)"/><path d="M97.71,66.44c4.88,0,8.99,3.78,9.41,8.63,0,.05,0,.11,0,.16,.01,.16,.02,.32,.02,.48,0,.19,0,.37,0,.56,0,12.62-10.27,22.89-22.89,22.89s-22.89-10.27-22.89-22.89c0-.19,0-.37,0-.55,0-.16,.01-.33,.02-.49,0-.05,0-.11,0-.16,.42-4.85,4.53-8.63,9.41-8.63,2.75,0,5.35,1.19,7.15,3.27,1.59,1.83,3.89,2.88,6.3,2.88s4.71-1.05,6.31-2.89c1.79-2.07,4.39-3.26,7.14-3.26m0-4c-4.06,0-7.71,1.8-10.17,4.65-.87,1-2.08,1.5-3.28,1.5s-2.41-.5-3.28-1.5c-2.46-2.85-6.1-4.65-10.17-4.65-7.08,0-12.89,5.48-13.41,12.44v.05c-.02,.21-.02,.42-.03,.64,0,.23,0,.46,0,.69,0,14.85,12.04,26.89,26.89,26.89s26.89-12.04,26.89-26.89c0-.23,0-.46,0-.69,0-.22-.02-.43-.03-.64v-.05c-.51-6.96-6.32-12.44-13.41-12.44h0Z" fill="#9adce2"/><path d="M111.16,76.26c0,14.85-12.04,26.89-26.89,26.89s-26.89-12.04-26.89-26.89c0-.23,0-.46,0-.69,0-.22,.02-.43,.03-.64v-.05c.51-6.96,6.32-12.44,13.41-12.44,4.06,0,7.71,1.8,10.17,4.65,1.74,2.01,4.82,2.01,6.56,0,2.46-2.85,6.1-4.65,10.17-4.65,7.08,0,12.89,5.48,13.41,12.44v.05c.02,.21,.02,.42,.03,.64,0,.23,0,.46,0,.69Z" fill="none" stroke="#333" stroke-linecap="round" stroke-linejoin="round" stroke-width="4"/></g><g><path d="M84.26,66.59c-.69,0-1.31-.29-1.77-.82-2.92-3.39-7.18-5.34-11.67-5.34-2.55,0-4.96,.63-7.1,1.74,4.49-6.55,12.03-10.81,20.54-10.81s16.05,4.26,20.54,10.81c-2.13-1.11-4.55-1.74-7.1-1.74-4.49,0-8.75,1.95-11.68,5.34-.45,.52-1.08,.81-1.77,.81Z" fill="url(#linear-gradient-6)"/><path d="M84.26,53.37c5.45,0,10.48,1.9,14.42,5.1-.32-.02-.65-.03-.97-.03-5.08,0-9.89,2.2-13.18,6.02-.05,.06-.13,.13-.26,.13s-.21-.07-.25-.12c-3.31-3.84-8.12-6.04-13.19-6.04-.33,0-.65,0-.97,.03,3.94-3.19,8.96-5.1,14.42-5.1m0-4c-14.39,0-26.14,11.3-26.85,25.51,.51-6.96,6.32-12.44,13.41-12.44,4.06,0,7.71,1.8,10.17,4.65,.87,1,2.08,1.5,3.28,1.5s2.41-.5,3.28-1.5c2.46-2.85,6.1-4.65,10.17-4.65,7.08,0,12.89,5.48,13.41,12.44-.71-14.21-12.46-25.51-26.85-25.51h0Z" fill="#9adce2"/><path d="M111.12,74.88c-.51-6.96-6.32-12.44-13.41-12.44-4.06,0-7.71,1.8-10.17,4.65-1.74,2.01-4.82,2.01-6.56,0-2.46-2.85-6.1-4.65-10.17-4.65-7.08,0-12.89,5.48-13.41,12.44,.71-14.21,12.46-25.51,26.85-25.51s26.14,11.3,26.85,25.51Z" fill="none" stroke="#333" stroke-linecap="round" stroke-linejoin="round" stroke-width="4"/></g><circle cx="97.71" cy="75.89" r="8.84" fill="none" stroke="#303030" stroke-linecap="round" stroke-linejoin="round" stroke-width="4"/><circle cx="97.71" cy="75.89" r="3.46" fill="#56c5cf" stroke="#303030" stroke-linecap="round" stroke-linejoin="round" stroke-width="4"/><circle cx="70.82" cy="75.89" r="8.84" fill="none" stroke="#303030" stroke-linecap="round" stroke-linejoin="round" stroke-width="4"/><circle cx="70.82" cy="75.89" r="3.46" fill="#56c5cf" stroke="#303030" stroke-linecap="round" stroke-linejoin="round" stroke-width="4"/><line x1="62.75" y1="72.42" x2="78.89" y2="72.42" fill="none" stroke="#303030" stroke-linecap="round" stroke-linejoin="round" stroke-width="4"/><line x1="62.75" y1="79.34" x2="78.89" y2="79.34" fill="none" stroke="#303030" stroke-linecap="round" stroke-linejoin="round" stroke-width="4"/><line x1="89.64" y1="72.42" x2="105.78" y2="72.42" fill="none" stroke="#303030" stroke-linecap="round" stroke-linejoin="round" stroke-width="4"/><line x1="89.64" y1="79.34" x2="105.78" y2="79.34" fill="none" stroke="#303030" stroke-linecap="round" stroke-linejoin="round" stroke-width="4"/><line x1="73.51" y1="93.94" x2="95.02" y2="93.94" fill="none" stroke="#303030" stroke-linecap="round" stroke-linejoin="round" stroke-width="4"/><line x1="82.73" y1="72.42" x2="85.8" y2="72.42" fill="none" stroke="#303030" stroke-linecap="round" stroke-linejoin="round" stroke-width="4"/><line x1="78.8" y1="80.2" x2="73.52" y2="93.93" fill="none" stroke="#303030" stroke-linecap="round" stroke-linejoin="round" stroke-width="4"/><line x1="89.72" y1="80.15" x2="95.01" y2="93.93" fill="none" stroke="#303030" stroke-linecap="round" stroke-linejoin="round" stroke-width="4"/><g><path d="M84.26,85.79c-2.07,0-3.76-1.69-3.76-3.76s1.69-3.76,3.76-3.76,3.76,1.69,3.76,3.76-1.69,3.76-3.76,3.76Z" fill="#56c5cf"/><path d="M84.26,80.27c.97,0,1.76,.79,1.76,1.76s-.79,1.76-1.76,1.76-1.76-.79-1.76-1.76,.79-1.76,1.76-1.76m0-4c-3.18,0-5.76,2.58-5.76,5.76s2.58,5.76,5.76,5.76,5.76-2.58,5.76-5.76-2.58-5.76-5.76-5.76h0Z" fill="#d1a4cc"/><circle cx="84.26" cy="82.03" r="5.76" fill="none" stroke="#333" stroke-miterlimit="10" stroke-width="4"/></g><line x1="111.16" y1="68.58" x2="118.2" y2="61.54" fill="none" stroke="#303030" stroke-linecap="round" stroke-linejoin="round" stroke-width="4"/><line x1="111.16" y1="68.58" x2="112.82" y2="59.23" fill="none" stroke="#303030" stroke-linecap="round" stroke-linejoin="round" stroke-width="4"/><line x1="57.37" y1="68.58" x2="50.33" y2="61.54" fill="none" stroke="#303030" stroke-linecap="round" stroke-linejoin="round" stroke-width="4"/><line x1="57.37" y1="68.58" x2="55.71" y2="59.23" fill="none" stroke="#303030" stroke-linecap="round" stroke-linejoin="round" stroke-width="4"/></g></g></svg>